<svg xmlns="http://www.w3.org/2000/svg" xmlns:xlink="http://www.w3.org/1999/xlink" width="600" height="400" viewBox="0 0 2400 1600">
<defs>
  <clipPath id="clip730">
    <rect x="0" y="0" width="2400" height="1600"></rect>
  </clipPath>
</defs>
<path clip-path="url(#clip730)" d="
M0 1600 L2400 1600 L2400 0 L0 0  Z
  " fill="#ffffff" fill-rule="evenodd" fill-opacity="1"></path>
<defs>
  <clipPath id="clip731">
    <rect x="480" y="0" width="1681" height="1600"></rect>
  </clipPath>
</defs>
<path clip-path="url(#clip730)" d="
M193.936 1486.45 L2352.76 1486.45 L2352.76 47.2441 L193.936 47.2441  Z
  " fill="#ffffff" fill-rule="evenodd" fill-opacity="1"></path>
<defs>
  <clipPath id="clip732">
    <rect x="193" y="47" width="2160" height="1440"></rect>
  </clipPath>
</defs>
<polyline clip-path="url(#clip732)" style="stroke:#000000; stroke-linecap:butt; stroke-linejoin:round; stroke-width:2; stroke-opacity:0.1; fill:none" points="
  255.035,1486.45 255.035,47.2441 
  "></polyline>
<polyline clip-path="url(#clip732)" style="stroke:#000000; stroke-linecap:butt; stroke-linejoin:round; stroke-width:2; stroke-opacity:0.1; fill:none" points="
  764.19,1486.45 764.19,47.2441 
  "></polyline>
<polyline clip-path="url(#clip732)" style="stroke:#000000; stroke-linecap:butt; stroke-linejoin:round; stroke-width:2; stroke-opacity:0.1; fill:none" points="
  1273.35,1486.45 1273.35,47.2441 
  "></polyline>
<polyline clip-path="url(#clip732)" style="stroke:#000000; stroke-linecap:butt; stroke-linejoin:round; stroke-width:2; stroke-opacity:0.1; fill:none" points="
  1782.5,1486.45 1782.5,47.2441 
  "></polyline>
<polyline clip-path="url(#clip732)" style="stroke:#000000; stroke-linecap:butt; stroke-linejoin:round; stroke-width:2; stroke-opacity:0.1; fill:none" points="
  2291.66,1486.45 2291.66,47.2441 
  "></polyline>
<polyline clip-path="url(#clip730)" style="stroke:#000000; stroke-linecap:butt; stroke-linejoin:round; stroke-width:4; stroke-opacity:1; fill:none" points="
  193.936,1486.45 2352.76,1486.45 
  "></polyline>
<polyline clip-path="url(#clip730)" style="stroke:#000000; stroke-linecap:butt; stroke-linejoin:round; stroke-width:4; stroke-opacity:1; fill:none" points="
  255.035,1486.45 255.035,1467.55 
  "></polyline>
<polyline clip-path="url(#clip730)" style="stroke:#000000; stroke-linecap:butt; stroke-linejoin:round; stroke-width:4; stroke-opacity:1; fill:none" points="
  764.19,1486.45 764.19,1467.55 
  "></polyline>
<polyline clip-path="url(#clip730)" style="stroke:#000000; stroke-linecap:butt; stroke-linejoin:round; stroke-width:4; stroke-opacity:1; fill:none" points="
  1273.35,1486.45 1273.35,1467.55 
  "></polyline>
<polyline clip-path="url(#clip730)" style="stroke:#000000; stroke-linecap:butt; stroke-linejoin:round; stroke-width:4; stroke-opacity:1; fill:none" points="
  1782.5,1486.45 1782.5,1467.55 
  "></polyline>
<polyline clip-path="url(#clip730)" style="stroke:#000000; stroke-linecap:butt; stroke-linejoin:round; stroke-width:4; stroke-opacity:1; fill:none" points="
  2291.66,1486.45 2291.66,1467.55 
  "></polyline>
<path clip-path="url(#clip730)" d="M201.563 1532.02 L231.239 1532.02 L231.239 1535.95 L201.563 1535.95 L201.563 1532.02 Z" fill="#000000" fill-rule="evenodd" fill-opacity="1"></path><path clip-path="url(#clip730)" d="M242.141 1544.91 L249.78 1544.91 L249.78 1518.55 L241.47 1520.21 L241.47 1515.95 L249.734 1514.29 L254.41 1514.29 L254.41 1544.91 L262.049 1544.91 L262.049 1548.85 L242.141 1548.85 L242.141 1544.91 Z" fill="#000000" fill-rule="evenodd" fill-opacity="1"></path><path clip-path="url(#clip730)" d="M271.493 1542.97 L276.377 1542.97 L276.377 1548.85 L271.493 1548.85 L271.493 1542.97 Z" fill="#000000" fill-rule="evenodd" fill-opacity="1"></path><path clip-path="url(#clip730)" d="M296.562 1517.37 Q292.951 1517.37 291.122 1520.93 Q289.317 1524.47 289.317 1531.6 Q289.317 1538.71 291.122 1542.27 Q292.951 1545.82 296.562 1545.82 Q300.196 1545.82 302.002 1542.27 Q303.831 1538.71 303.831 1531.6 Q303.831 1524.47 302.002 1520.93 Q300.196 1517.37 296.562 1517.37 M296.562 1513.66 Q302.372 1513.66 305.428 1518.27 Q308.507 1522.85 308.507 1531.6 Q308.507 1540.33 305.428 1544.94 Q302.372 1549.52 296.562 1549.52 Q290.752 1549.52 287.673 1544.94 Q284.618 1540.33 284.618 1531.6 Q284.618 1522.85 287.673 1518.27 Q290.752 1513.66 296.562 1513.66 Z" fill="#000000" fill-rule="evenodd" fill-opacity="1"></path><path clip-path="url(#clip730)" d="M711.216 1532.02 L740.892 1532.02 L740.892 1535.95 L711.216 1535.95 L711.216 1532.02 Z" fill="#000000" fill-rule="evenodd" fill-opacity="1"></path><path clip-path="url(#clip730)" d="M760.984 1517.37 Q757.373 1517.37 755.545 1520.93 Q753.739 1524.47 753.739 1531.6 Q753.739 1538.71 755.545 1542.27 Q757.373 1545.82 760.984 1545.82 Q764.619 1545.82 766.424 1542.27 Q768.253 1538.71 768.253 1531.6 Q768.253 1524.47 766.424 1520.93 Q764.619 1517.37 760.984 1517.37 M760.984 1513.66 Q766.794 1513.66 769.85 1518.27 Q772.929 1522.85 772.929 1531.6 Q772.929 1540.33 769.85 1544.94 Q766.794 1549.52 760.984 1549.52 Q755.174 1549.52 752.095 1544.94 Q749.04 1540.33 749.04 1531.6 Q749.04 1522.85 752.095 1518.27 Q755.174 1513.66 760.984 1513.66 Z" fill="#000000" fill-rule="evenodd" fill-opacity="1"></path><path clip-path="url(#clip730)" d="M781.146 1542.97 L786.03 1542.97 L786.03 1548.85 L781.146 1548.85 L781.146 1542.97 Z" fill="#000000" fill-rule="evenodd" fill-opacity="1"></path><path clip-path="url(#clip730)" d="M796.262 1514.29 L814.618 1514.29 L814.618 1518.22 L800.544 1518.22 L800.544 1526.7 Q801.563 1526.35 802.581 1526.19 Q803.6 1526 804.618 1526 Q810.405 1526 813.785 1529.17 Q817.165 1532.34 817.165 1537.76 Q817.165 1543.34 813.692 1546.44 Q810.22 1549.52 803.901 1549.52 Q801.725 1549.52 799.456 1549.15 Q797.211 1548.78 794.804 1548.04 L794.804 1543.34 Q796.887 1544.47 799.109 1545.03 Q801.331 1545.58 803.808 1545.58 Q807.813 1545.58 810.151 1543.48 Q812.489 1541.37 812.489 1537.76 Q812.489 1534.15 810.151 1532.04 Q807.813 1529.94 803.808 1529.94 Q801.933 1529.94 800.058 1530.35 Q798.206 1530.77 796.262 1531.65 L796.262 1514.29 Z" fill="#000000" fill-rule="evenodd" fill-opacity="1"></path><path clip-path="url(#clip730)" d="M1250.73 1517.37 Q1247.12 1517.37 1245.29 1520.93 Q1243.49 1524.47 1243.49 1531.6 Q1243.49 1538.71 1245.29 1542.27 Q1247.12 1545.82 1250.73 1545.82 Q1254.36 1545.82 1256.17 1542.27 Q1258 1538.71 1258 1531.6 Q1258 1524.47 1256.17 1520.93 Q1254.36 1517.37 1250.73 1517.37 M1250.73 1513.66 Q1256.54 1513.66 1259.6 1518.27 Q1262.67 1522.85 1262.67 1531.6 Q1262.67 1540.33 1259.6 1544.94 Q1256.54 1549.52 1250.73 1549.52 Q1244.92 1549.52 1241.84 1544.94 Q1238.79 1540.33 1238.79 1531.6 Q1238.79 1522.85 1241.84 1518.27 Q1244.92 1513.66 1250.73 1513.66 Z" fill="#000000" fill-rule="evenodd" fill-opacity="1"></path><path clip-path="url(#clip730)" d="M1270.89 1542.97 L1275.78 1542.97 L1275.78 1548.85 L1270.89 1548.85 L1270.89 1542.97 Z" fill="#000000" fill-rule="evenodd" fill-opacity="1"></path><path clip-path="url(#clip730)" d="M1295.96 1517.37 Q1292.35 1517.37 1290.52 1520.93 Q1288.72 1524.47 1288.72 1531.6 Q1288.72 1538.71 1290.52 1542.27 Q1292.35 1545.82 1295.96 1545.82 Q1299.6 1545.82 1301.4 1542.27 Q1303.23 1538.71 1303.23 1531.6 Q1303.23 1524.47 1301.4 1520.93 Q1299.6 1517.37 1295.96 1517.37 M1295.96 1513.66 Q1301.77 1513.66 1304.83 1518.27 Q1307.91 1522.85 1307.91 1531.6 Q1307.91 1540.33 1304.83 1544.94 Q1301.77 1549.52 1295.96 1549.52 Q1290.15 1549.52 1287.07 1544.94 Q1284.02 1540.33 1284.02 1531.6 Q1284.02 1522.85 1287.07 1518.27 Q1290.15 1513.66 1295.96 1513.66 Z" fill="#000000" fill-rule="evenodd" fill-opacity="1"></path><path clip-path="url(#clip730)" d="M1760.38 1517.37 Q1756.77 1517.37 1754.94 1520.93 Q1753.14 1524.47 1753.14 1531.6 Q1753.14 1538.71 1754.94 1542.27 Q1756.77 1545.82 1760.38 1545.82 Q1764.02 1545.82 1765.82 1542.27 Q1767.65 1538.71 1767.65 1531.6 Q1767.65 1524.47 1765.82 1520.93 Q1764.02 1517.37 1760.38 1517.37 M1760.38 1513.66 Q1766.19 1513.66 1769.25 1518.27 Q1772.33 1522.85 1772.33 1531.6 Q1772.33 1540.33 1769.25 1544.94 Q1766.19 1549.52 1760.38 1549.52 Q1754.57 1549.52 1751.49 1544.94 Q1748.44 1540.33 1748.44 1531.6 Q1748.44 1522.85 1751.49 1518.27 Q1754.57 1513.66 1760.38 1513.66 Z" fill="#000000" fill-rule="evenodd" fill-opacity="1"></path><path clip-path="url(#clip730)" d="M1780.55 1542.97 L1785.43 1542.97 L1785.43 1548.85 L1780.55 1548.85 L1780.55 1542.97 Z" fill="#000000" fill-rule="evenodd" fill-opacity="1"></path><path clip-path="url(#clip730)" d="M1795.66 1514.29 L1814.02 1514.29 L1814.02 1518.22 L1799.94 1518.22 L1799.94 1526.7 Q1800.96 1526.35 1801.98 1526.19 Q1803 1526 1804.02 1526 Q1809.8 1526 1813.18 1529.17 Q1816.56 1532.34 1816.56 1537.76 Q1816.56 1543.34 1813.09 1546.44 Q1809.62 1549.52 1803.3 1549.52 Q1801.12 1549.52 1798.86 1549.15 Q1796.61 1548.78 1794.2 1548.04 L1794.2 1543.34 Q1796.29 1544.47 1798.51 1545.03 Q1800.73 1545.58 1803.21 1545.58 Q1807.21 1545.58 1809.55 1543.48 Q1811.89 1541.37 1811.89 1537.76 Q1811.89 1534.15 1809.55 1532.04 Q1807.21 1529.94 1803.21 1529.94 Q1801.33 1529.94 1799.46 1530.35 Q1797.61 1530.77 1795.66 1531.65 L1795.66 1514.29 Z" fill="#000000" fill-rule="evenodd" fill-opacity="1"></path><path clip-path="url(#clip730)" d="M2258.81 1544.91 L2266.45 1544.91 L2266.45 1518.55 L2258.14 1520.21 L2258.14 1515.95 L2266.4 1514.29 L2271.08 1514.29 L2271.08 1544.91 L2278.72 1544.91 L2278.72 1548.85 L2258.81 1548.85 L2258.81 1544.91 Z" fill="#000000" fill-rule="evenodd" fill-opacity="1"></path><path clip-path="url(#clip730)" d="M2288.16 1542.97 L2293.05 1542.97 L2293.05 1548.85 L2288.16 1548.85 L2288.16 1542.97 Z" fill="#000000" fill-rule="evenodd" fill-opacity="1"></path><path clip-path="url(#clip730)" d="M2313.23 1517.37 Q2309.62 1517.37 2307.79 1520.93 Q2305.99 1524.47 2305.99 1531.6 Q2305.99 1538.71 2307.79 1542.27 Q2309.62 1545.82 2313.23 1545.82 Q2316.87 1545.82 2318.67 1542.27 Q2320.5 1538.71 2320.5 1531.6 Q2320.5 1524.47 2318.67 1520.93 Q2316.87 1517.37 2313.23 1517.37 M2313.23 1513.66 Q2319.04 1513.66 2322.1 1518.27 Q2325.18 1522.85 2325.18 1531.6 Q2325.18 1540.33 2322.1 1544.94 Q2319.04 1549.52 2313.23 1549.52 Q2307.42 1549.52 2304.34 1544.94 Q2301.29 1540.33 2301.29 1531.6 Q2301.29 1522.85 2304.34 1518.27 Q2307.42 1513.66 2313.23 1513.66 Z" fill="#000000" fill-rule="evenodd" fill-opacity="1"></path><polyline clip-path="url(#clip732)" style="stroke:#000000; stroke-linecap:butt; stroke-linejoin:round; stroke-width:2; stroke-opacity:0.1; fill:none" points="
  193.936,1411.1 2352.76,1411.1 
  "></polyline>
<polyline clip-path="url(#clip732)" style="stroke:#000000; stroke-linecap:butt; stroke-linejoin:round; stroke-width:2; stroke-opacity:0.1; fill:none" points="
  193.936,1215.85 2352.76,1215.85 
  "></polyline>
<polyline clip-path="url(#clip732)" style="stroke:#000000; stroke-linecap:butt; stroke-linejoin:round; stroke-width:2; stroke-opacity:0.1; fill:none" points="
  193.936,1020.61 2352.76,1020.61 
  "></polyline>
<polyline clip-path="url(#clip732)" style="stroke:#000000; stroke-linecap:butt; stroke-linejoin:round; stroke-width:2; stroke-opacity:0.1; fill:none" points="
  193.936,825.363 2352.76,825.363 
  "></polyline>
<polyline clip-path="url(#clip732)" style="stroke:#000000; stroke-linecap:butt; stroke-linejoin:round; stroke-width:2; stroke-opacity:0.1; fill:none" points="
  193.936,630.119 2352.76,630.119 
  "></polyline>
<polyline clip-path="url(#clip732)" style="stroke:#000000; stroke-linecap:butt; stroke-linejoin:round; stroke-width:2; stroke-opacity:0.1; fill:none" points="
  193.936,434.874 2352.76,434.874 
  "></polyline>
<polyline clip-path="url(#clip732)" style="stroke:#000000; stroke-linecap:butt; stroke-linejoin:round; stroke-width:2; stroke-opacity:0.1; fill:none" points="
  193.936,239.629 2352.76,239.629 
  "></polyline>
<polyline clip-path="url(#clip730)" style="stroke:#000000; stroke-linecap:butt; stroke-linejoin:round; stroke-width:4; stroke-opacity:1; fill:none" points="
  193.936,1486.45 193.936,47.2441 
  "></polyline>
<polyline clip-path="url(#clip730)" style="stroke:#000000; stroke-linecap:butt; stroke-linejoin:round; stroke-width:4; stroke-opacity:1; fill:none" points="
  193.936,1411.1 212.834,1411.1 
  "></polyline>
<polyline clip-path="url(#clip730)" style="stroke:#000000; stroke-linecap:butt; stroke-linejoin:round; stroke-width:4; stroke-opacity:1; fill:none" points="
  193.936,1215.85 212.834,1215.85 
  "></polyline>
<polyline clip-path="url(#clip730)" style="stroke:#000000; stroke-linecap:butt; stroke-linejoin:round; stroke-width:4; stroke-opacity:1; fill:none" points="
  193.936,1020.61 212.834,1020.61 
  "></polyline>
<polyline clip-path="url(#clip730)" style="stroke:#000000; stroke-linecap:butt; stroke-linejoin:round; stroke-width:4; stroke-opacity:1; fill:none" points="
  193.936,825.363 212.834,825.363 
  "></polyline>
<polyline clip-path="url(#clip730)" style="stroke:#000000; stroke-linecap:butt; stroke-linejoin:round; stroke-width:4; stroke-opacity:1; fill:none" points="
  193.936,630.119 212.834,630.119 
  "></polyline>
<polyline clip-path="url(#clip730)" style="stroke:#000000; stroke-linecap:butt; stroke-linejoin:round; stroke-width:4; stroke-opacity:1; fill:none" points="
  193.936,434.874 212.834,434.874 
  "></polyline>
<polyline clip-path="url(#clip730)" style="stroke:#000000; stroke-linecap:butt; stroke-linejoin:round; stroke-width:4; stroke-opacity:1; fill:none" points="
  193.936,239.629 212.834,239.629 
  "></polyline>
<path clip-path="url(#clip730)" d="M51.9875 1411.55 L81.6633 1411.55 L81.6633 1415.48 L51.9875 1415.48 L51.9875 1411.55 Z" fill="#000000" fill-rule="evenodd" fill-opacity="1"></path><path clip-path="url(#clip730)" d="M92.566 1424.44 L100.205 1424.44 L100.205 1398.08 L91.8947 1399.74 L91.8947 1395.48 L100.159 1393.82 L104.834 1393.82 L104.834 1424.44 L112.473 1424.44 L112.473 1428.38 L92.566 1428.38 L92.566 1424.44 Z" fill="#000000" fill-rule="evenodd" fill-opacity="1"></path><path clip-path="url(#clip730)" d="M121.918 1422.5 L126.802 1422.5 L126.802 1428.38 L121.918 1428.38 L121.918 1422.5 Z" fill="#000000" fill-rule="evenodd" fill-opacity="1"></path><path clip-path="url(#clip730)" d="M137.033 1393.82 L155.39 1393.82 L155.39 1397.75 L141.316 1397.75 L141.316 1406.22 Q142.334 1405.88 143.353 1405.72 Q144.371 1405.53 145.39 1405.53 Q151.177 1405.53 154.556 1408.7 Q157.936 1411.87 157.936 1417.29 Q157.936 1422.87 154.464 1425.97 Q150.992 1429.05 144.672 1429.05 Q142.496 1429.05 140.228 1428.68 Q137.982 1428.31 135.575 1427.57 L135.575 1422.87 Q137.658 1424 139.881 1424.56 Q142.103 1425.11 144.58 1425.11 Q148.584 1425.11 150.922 1423.01 Q153.26 1420.9 153.26 1417.29 Q153.26 1413.68 150.922 1411.57 Q148.584 1409.47 144.58 1409.47 Q142.705 1409.47 140.83 1409.88 Q138.978 1410.3 137.033 1411.18 L137.033 1393.82 Z" fill="#000000" fill-rule="evenodd" fill-opacity="1"></path><path clip-path="url(#clip730)" d="M50.9921 1216.3 L80.6679 1216.3 L80.6679 1220.24 L50.9921 1220.24 L50.9921 1216.3 Z" fill="#000000" fill-rule="evenodd" fill-opacity="1"></path><path clip-path="url(#clip730)" d="M91.5706 1229.2 L99.2095 1229.2 L99.2095 1202.83 L90.8993 1204.5 L90.8993 1200.24 L99.1632 1198.57 L103.839 1198.57 L103.839 1229.2 L111.478 1229.2 L111.478 1233.13 L91.5706 1233.13 L91.5706 1229.2 Z" fill="#000000" fill-rule="evenodd" fill-opacity="1"></path><path clip-path="url(#clip730)" d="M120.922 1227.25 L125.807 1227.25 L125.807 1233.13 L120.922 1233.13 L120.922 1227.25 Z" fill="#000000" fill-rule="evenodd" fill-opacity="1"></path><path clip-path="url(#clip730)" d="M145.992 1201.65 Q142.381 1201.65 140.552 1205.22 Q138.746 1208.76 138.746 1215.89 Q138.746 1222.99 140.552 1226.56 Q142.381 1230.1 145.992 1230.1 Q149.626 1230.1 151.431 1226.56 Q153.26 1222.99 153.26 1215.89 Q153.26 1208.76 151.431 1205.22 Q149.626 1201.65 145.992 1201.65 M145.992 1197.95 Q151.802 1197.95 154.857 1202.55 Q157.936 1207.14 157.936 1215.89 Q157.936 1224.61 154.857 1229.22 Q151.802 1233.8 145.992 1233.8 Q140.181 1233.8 137.103 1229.22 Q134.047 1224.61 134.047 1215.89 Q134.047 1207.14 137.103 1202.55 Q140.181 1197.95 145.992 1197.95 Z" fill="#000000" fill-rule="evenodd" fill-opacity="1"></path><path clip-path="url(#clip730)" d="M51.9875 1021.06 L81.6633 1021.06 L81.6633 1024.99 L51.9875 1024.99 L51.9875 1021.06 Z" fill="#000000" fill-rule="evenodd" fill-opacity="1"></path><path clip-path="url(#clip730)" d="M101.756 1006.41 Q98.1447 1006.41 96.316 1009.97 Q94.5104 1013.51 94.5104 1020.64 Q94.5104 1027.75 96.316 1031.31 Q98.1447 1034.86 101.756 1034.86 Q105.39 1034.86 107.196 1031.31 Q109.024 1027.75 109.024 1020.64 Q109.024 1013.51 107.196 1009.97 Q105.39 1006.41 101.756 1006.41 M101.756 1002.7 Q107.566 1002.7 110.621 1007.31 Q113.7 1011.89 113.7 1020.64 Q113.7 1029.37 110.621 1033.98 Q107.566 1038.56 101.756 1038.56 Q95.9456 1038.56 92.8669 1033.98 Q89.8114 1029.37 89.8114 1020.64 Q89.8114 1011.89 92.8669 1007.31 Q95.9456 1002.7 101.756 1002.7 Z" fill="#000000" fill-rule="evenodd" fill-opacity="1"></path><path clip-path="url(#clip730)" d="M121.918 1032.01 L126.802 1032.01 L126.802 1037.89 L121.918 1037.89 L121.918 1032.01 Z" fill="#000000" fill-rule="evenodd" fill-opacity="1"></path><path clip-path="url(#clip730)" d="M137.033 1003.33 L155.39 1003.33 L155.39 1007.26 L141.316 1007.26 L141.316 1015.74 Q142.334 1015.39 143.353 1015.23 Q144.371 1015.04 145.39 1015.04 Q151.177 1015.04 154.556 1018.21 Q157.936 1021.38 157.936 1026.8 Q157.936 1032.38 154.464 1035.48 Q150.992 1038.56 144.672 1038.56 Q142.496 1038.56 140.228 1038.19 Q137.982 1037.82 135.575 1037.08 L135.575 1032.38 Q137.658 1033.51 139.881 1034.07 Q142.103 1034.62 144.58 1034.62 Q148.584 1034.62 150.922 1032.52 Q153.26 1030.41 153.26 1026.8 Q153.26 1023.19 150.922 1021.08 Q148.584 1018.98 144.58 1018.98 Q142.705 1018.98 140.83 1019.39 Q138.978 1019.81 137.033 1020.69 L137.033 1003.33 Z" fill="#000000" fill-rule="evenodd" fill-opacity="1"></path><path clip-path="url(#clip730)" d="M100.76 811.162 Q97.1493 811.162 95.3206 814.727 Q93.515 818.269 93.515 825.398 Q93.515 832.505 95.3206 836.069 Q97.1493 839.611 100.76 839.611 Q104.395 839.611 106.2 836.069 Q108.029 832.505 108.029 825.398 Q108.029 818.269 106.2 814.727 Q104.395 811.162 100.76 811.162 M100.76 807.458 Q106.571 807.458 109.626 812.065 Q112.705 816.648 112.705 825.398 Q112.705 834.125 109.626 838.731 Q106.571 843.315 100.76 843.315 Q94.9502 843.315 91.8715 838.731 Q88.816 834.125 88.816 825.398 Q88.816 816.648 91.8715 812.065 Q94.9502 807.458 100.76 807.458 Z" fill="#000000" fill-rule="evenodd" fill-opacity="1"></path><path clip-path="url(#clip730)" d="M120.922 836.764 L125.807 836.764 L125.807 842.643 L120.922 842.643 L120.922 836.764 Z" fill="#000000" fill-rule="evenodd" fill-opacity="1"></path><path clip-path="url(#clip730)" d="M145.992 811.162 Q142.381 811.162 140.552 814.727 Q138.746 818.269 138.746 825.398 Q138.746 832.505 140.552 836.069 Q142.381 839.611 145.992 839.611 Q149.626 839.611 151.431 836.069 Q153.26 832.505 153.26 825.398 Q153.26 818.269 151.431 814.727 Q149.626 811.162 145.992 811.162 M145.992 807.458 Q151.802 807.458 154.857 812.065 Q157.936 816.648 157.936 825.398 Q157.936 834.125 154.857 838.731 Q151.802 843.315 145.992 843.315 Q140.181 843.315 137.103 838.731 Q134.047 834.125 134.047 825.398 Q134.047 816.648 137.103 812.065 Q140.181 807.458 145.992 807.458 Z" fill="#000000" fill-rule="evenodd" fill-opacity="1"></path><path clip-path="url(#clip730)" d="M101.756 615.917 Q98.1447 615.917 96.316 619.482 Q94.5104 623.024 94.5104 630.153 Q94.5104 637.26 96.316 640.825 Q98.1447 644.366 101.756 644.366 Q105.39 644.366 107.196 640.825 Q109.024 637.26 109.024 630.153 Q109.024 623.024 107.196 619.482 Q105.39 615.917 101.756 615.917 M101.756 612.214 Q107.566 612.214 110.621 616.82 Q113.7 621.404 113.7 630.153 Q113.7 638.88 110.621 643.487 Q107.566 648.07 101.756 648.07 Q95.9456 648.07 92.8669 643.487 Q89.8114 638.88 89.8114 630.153 Q89.8114 621.404 92.8669 616.82 Q95.9456 612.214 101.756 612.214 Z" fill="#000000" fill-rule="evenodd" fill-opacity="1"></path><path clip-path="url(#clip730)" d="M121.918 641.519 L126.802 641.519 L126.802 647.399 L121.918 647.399 L121.918 641.519 Z" fill="#000000" fill-rule="evenodd" fill-opacity="1"></path><path clip-path="url(#clip730)" d="M137.033 612.839 L155.39 612.839 L155.39 616.774 L141.316 616.774 L141.316 625.246 Q142.334 624.899 143.353 624.737 Q144.371 624.552 145.39 624.552 Q151.177 624.552 154.556 627.723 Q157.936 630.894 157.936 636.311 Q157.936 641.89 154.464 644.991 Q150.992 648.07 144.672 648.07 Q142.496 648.07 140.228 647.7 Q137.982 647.329 135.575 646.589 L135.575 641.89 Q137.658 643.024 139.881 643.579 Q142.103 644.135 144.58 644.135 Q148.584 644.135 150.922 642.028 Q153.26 639.922 153.26 636.311 Q153.26 632.7 150.922 630.593 Q148.584 628.487 144.58 628.487 Q142.705 628.487 140.83 628.903 Q138.978 629.32 137.033 630.2 L137.033 612.839 Z" fill="#000000" fill-rule="evenodd" fill-opacity="1"></path><path clip-path="url(#clip730)" d="M91.5706 448.219 L99.2095 448.219 L99.2095 421.853 L90.8993 423.52 L90.8993 419.261 L99.1632 417.594 L103.839 417.594 L103.839 448.219 L111.478 448.219 L111.478 452.154 L91.5706 452.154 L91.5706 448.219 Z" fill="#000000" fill-rule="evenodd" fill-opacity="1"></path><path clip-path="url(#clip730)" d="M120.922 446.274 L125.807 446.274 L125.807 452.154 L120.922 452.154 L120.922 446.274 Z" fill="#000000" fill-rule="evenodd" fill-opacity="1"></path><path clip-path="url(#clip730)" d="M145.992 420.673 Q142.381 420.673 140.552 424.238 Q138.746 427.779 138.746 434.909 Q138.746 442.015 140.552 445.58 Q142.381 449.122 145.992 449.122 Q149.626 449.122 151.431 445.58 Q153.26 442.015 153.26 434.909 Q153.26 427.779 151.431 424.238 Q149.626 420.673 145.992 420.673 M145.992 416.969 Q151.802 416.969 154.857 421.576 Q157.936 426.159 157.936 434.909 Q157.936 443.636 154.857 448.242 Q151.802 452.825 145.992 452.825 Q140.181 452.825 137.103 448.242 Q134.047 443.636 134.047 434.909 Q134.047 426.159 137.103 421.576 Q140.181 416.969 145.992 416.969 Z" fill="#000000" fill-rule="evenodd" fill-opacity="1"></path><path clip-path="url(#clip730)" d="M92.566 252.974 L100.205 252.974 L100.205 226.609 L91.8947 228.275 L91.8947 224.016 L100.159 222.349 L104.834 222.349 L104.834 252.974 L112.473 252.974 L112.473 256.909 L92.566 256.909 L92.566 252.974 Z" fill="#000000" fill-rule="evenodd" fill-opacity="1"></path><path clip-path="url(#clip730)" d="M121.918 251.03 L126.802 251.03 L126.802 256.909 L121.918 256.909 L121.918 251.03 Z" fill="#000000" fill-rule="evenodd" fill-opacity="1"></path><path clip-path="url(#clip730)" d="M137.033 222.349 L155.39 222.349 L155.39 226.285 L141.316 226.285 L141.316 234.757 Q142.334 234.41 143.353 234.248 Q144.371 234.062 145.39 234.062 Q151.177 234.062 154.556 237.234 Q157.936 240.405 157.936 245.822 Q157.936 251.4 154.464 254.502 Q150.992 257.581 144.672 257.581 Q142.496 257.581 140.228 257.21 Q137.982 256.84 135.575 256.099 L135.575 251.4 Q137.658 252.534 139.881 253.09 Q142.103 253.646 144.58 253.646 Q148.584 253.646 150.922 251.539 Q153.26 249.433 153.26 245.822 Q153.26 242.21 150.922 240.104 Q148.584 237.997 144.58 237.997 Q142.705 237.997 140.83 238.414 Q138.978 238.831 137.033 239.71 L137.033 222.349 Z" fill="#000000" fill-rule="evenodd" fill-opacity="1"></path><polyline clip-path="url(#clip732)" style="stroke:#009af9; stroke-linecap:butt; stroke-linejoin:round; stroke-width:4; stroke-opacity:1; fill:none" points="
  255.035,1185.37 257.073,1201.94 259.112,1217.84 261.151,1233.08 263.189,1247.67 265.228,1261.63 267.267,1274.98 269.305,1287.71 271.344,1299.86 273.383,1311.42 
  275.421,1322.41 277.46,1332.85 279.499,1342.75 281.537,1352.11 283.576,1360.95 285.615,1369.29 287.653,1377.13 289.692,1384.48 291.731,1391.36 293.769,1397.77 
  295.808,1403.73 297.847,1409.25 299.885,1414.34 301.924,1419 303.963,1423.26 306.001,1427.11 308.04,1430.57 310.079,1433.65 312.117,1436.36 314.156,1438.7 
  316.195,1440.7 318.233,1442.34 320.272,1443.65 322.31,1444.64 324.349,1445.3 326.388,1445.66 328.426,1445.72 330.465,1445.48 332.504,1444.96 334.542,1444.16 
  336.581,1443.09 338.62,1441.76 340.658,1440.18 342.697,1438.35 344.736,1436.29 346.774,1433.99 348.813,1431.47 350.852,1428.73 352.89,1425.78 354.929,1422.63 
  356.968,1419.28 359.006,1415.74 361.045,1412.02 363.084,1408.12 365.122,1404.05 367.161,1399.81 369.2,1395.42 371.238,1390.87 373.277,1386.17 375.316,1381.33 
  377.354,1376.35 379.393,1371.25 381.432,1366.02 383.47,1360.66 385.509,1355.2 387.548,1349.62 389.586,1343.94 391.625,1338.15 393.664,1332.28 395.702,1326.31 
  397.741,1320.25 399.78,1314.11 401.818,1307.9 403.857,1301.61 405.896,1295.25 407.934,1288.83 409.973,1282.35 412.012,1275.81 414.05,1269.22 416.089,1262.58 
  418.128,1255.9 420.166,1249.17 422.205,1242.41 424.244,1235.61 426.282,1228.78 428.321,1221.92 430.36,1215.04 432.398,1208.14 434.437,1201.22 436.476,1194.28 
  438.514,1187.34 440.553,1180.38 442.592,1173.42 444.63,1166.45 446.669,1159.48 448.707,1152.52 450.746,1145.55 452.785,1138.6 454.823,1131.65 456.862,1124.72 
  458.901,1117.8 460.939,1110.9 462.978,1104.01 465.017,1097.15 467.055,1090.31 469.094,1083.49 471.133,1076.7 473.171,1069.94 475.21,1063.21 477.249,1056.52 
  479.287,1049.85 481.326,1043.22 483.365,1036.63 485.403,1030.08 487.442,1023.57 489.481,1017.1 491.519,1010.68 493.558,1004.3 495.597,997.964 497.635,991.678 
  499.674,985.44 501.713,979.253 503.751,973.117 505.79,967.034 507.829,961.004 509.867,955.029 511.906,949.109 513.945,943.246 515.983,937.44 518.022,931.693 
  520.061,926.004 522.099,920.376 524.138,914.809 526.177,909.303 528.215,903.86 530.254,898.479 532.293,893.162 534.331,887.909 536.37,882.721 538.409,877.598 
  540.447,872.541 542.486,867.55 544.525,862.625 546.563,857.768 548.602,852.978 550.641,848.256 552.679,843.602 554.718,839.016 556.757,834.5 558.795,830.051 
  560.834,825.672 562.873,821.363 564.911,817.123 566.95,812.952 568.989,808.851 571.027,804.82 573.066,800.858 575.104,796.967 577.143,793.145 579.182,789.393 
  581.22,785.712 583.259,782.099 585.298,778.557 587.336,775.084 589.375,771.681 591.414,768.347 593.452,765.083 595.491,761.887 597.53,758.761 599.568,755.703 
  601.607,752.714 603.646,749.792 605.684,746.939 607.723,744.154 609.762,741.436 611.8,738.785 613.839,736.201 615.878,733.684 617.916,731.233 619.955,728.847 
  621.994,726.527 624.032,724.272 626.071,722.082 628.11,719.956 630.148,717.894 632.187,715.895 634.226,713.96 636.264,712.087 638.303,710.276 640.342,708.526 
  642.38,706.838 644.419,705.211 646.458,703.643 648.496,702.135 650.535,700.687 652.574,699.297 654.612,697.965 656.651,696.691 658.69,695.474 660.728,694.313 
  662.767,693.208 664.806,692.158 666.844,691.164 668.883,690.223 670.922,689.336 672.96,688.502 674.999,687.721 677.038,686.991 679.076,686.313 681.115,685.686 
  683.154,685.108 685.192,684.58 687.231,684.1 689.27,683.669 691.308,683.286 693.347,682.949 695.385,682.659 697.424,682.414 699.463,682.215 701.501,682.06 
  703.54,681.948 705.579,681.88 707.617,681.855 709.656,681.871 711.695,681.928 713.733,682.026 715.772,682.165 717.811,682.342 719.849,682.558 721.888,682.812 
  723.927,683.104 725.965,683.432 728.004,683.796 730.043,684.196 732.081,684.631 734.12,685.1 736.159,685.602 738.197,686.137 740.236,686.705 742.275,687.304 
  744.313,687.935 746.352,688.595 748.391,689.286 750.429,690.005 752.468,690.753 754.507,691.529 756.545,692.332 758.584,693.162 760.623,694.018 762.661,694.899 
  764.7,695.805 766.739,696.736 768.777,697.69 770.816,698.666 772.855,699.666 774.893,700.687 776.932,701.729 778.971,702.792 781.009,703.875 783.048,704.978 
  785.087,706.099 787.125,707.239 789.164,708.396 791.203,709.571 793.241,710.762 795.28,711.97 797.319,713.192 799.357,714.43 801.396,715.683 803.435,716.949 
  805.473,718.229 807.512,719.521 809.551,720.826 811.589,722.143 813.628,723.47 815.667,724.809 817.705,726.158 819.744,727.517 821.782,728.885 823.821,730.262 
  825.86,731.647 827.898,733.04 829.937,734.44 831.976,735.848 834.014,737.261 836.053,738.681 838.092,740.106 840.13,741.536 842.169,742.971 844.208,744.41 
  846.246,745.853 848.285,747.299 850.324,748.748 852.362,750.2 854.401,751.654 856.44,753.109 858.478,754.566 860.517,756.023 862.556,757.481 864.594,758.939 
  866.633,760.397 868.672,761.854 870.71,763.311 872.749,764.766 874.788,766.219 876.826,767.67 878.865,769.118 880.904,770.564 882.942,772.007 884.981,773.447 
  887.02,774.882 889.058,776.314 891.097,777.741 893.136,779.164 895.174,780.581 897.213,781.994 899.252,783.401 901.29,784.802 903.329,786.196 905.368,787.585 
  907.406,788.967 909.445,790.342 911.484,791.709 913.522,793.069 915.561,794.422 917.6,795.767 919.638,797.103 921.677,798.431 923.716,799.751 925.754,801.061 
  927.793,802.363 929.832,803.655 931.87,804.938 933.909,806.211 935.948,807.474 937.986,808.727 940.025,809.97 942.064,811.202 944.102,812.424 946.141,813.635 
  948.179,814.835 950.218,816.024 952.257,817.202 954.295,818.368 956.334,819.522 958.373,820.665 960.411,821.796 962.45,822.915 964.489,824.022 966.527,825.117 
  968.566,826.199 970.605,827.268 972.643,828.326 974.682,829.37 976.721,830.401 978.759,831.42 980.798,832.425 982.837,833.418 984.875,834.397 986.914,835.363 
  988.953,836.315 990.991,837.254 993.03,838.179 995.069,839.091 997.107,839.989 999.146,840.873 1001.18,841.744 1003.22,842.601 1005.26,843.443 1007.3,844.272 
  1009.34,845.087 1011.38,845.887 1013.42,846.674 1015.46,847.446 1017.49,848.205 1019.53,848.949 1021.57,849.679 1023.61,850.394 1025.65,851.095 1027.69,851.782 
  1029.73,852.455 1031.76,853.113 1033.8,853.757 1035.84,854.387 1037.88,855.002 1039.92,855.603 1041.96,856.19 1044,856.762 1046.04,857.32 1048.07,857.864 
  1050.11,858.393 1052.15,858.908 1054.19,859.409 1056.23,859.895 1058.27,860.367 1060.31,860.825 1062.34,861.268 1064.38,861.698 1066.42,862.113 1068.46,862.514 
  1070.5,862.901 1072.54,863.274 1074.58,863.633 1076.62,863.977 1078.65,864.308 1080.69,864.625 1082.73,864.928 1084.77,865.217 1086.81,865.492 1088.85,865.753 
  1090.89,866.001 1092.92,866.235 1094.96,866.455 1097,866.662 1099.04,866.855 1101.08,867.035 1103.12,867.201 1105.16,867.354 1107.2,867.493 1109.23,867.619 
  1111.27,867.732 1113.31,867.832 1115.35,867.918 1117.39,867.991 1119.43,868.052 1121.47,868.099 1123.5,868.134 1125.54,868.155 1127.58,868.164 1129.62,868.16 
  1131.66,868.144 1133.7,868.114 1135.74,868.073 1137.77,868.018 1139.81,867.952 1141.85,867.872 1143.89,867.781 1145.93,867.677 1147.97,867.561 1150.01,867.433 
  1152.05,867.293 1154.08,867.141 1156.12,866.977 1158.16,866.8 1160.2,866.612 1162.24,866.413 1164.28,866.201 1166.32,865.978 1168.35,865.743 1170.39,865.497 
  1172.43,865.239 1174.47,864.969 1176.51,864.688 1178.55,864.396 1180.59,864.093 1182.63,863.778 1184.66,863.452 1186.7,863.115 1188.74,862.767 1190.78,862.408 
  1192.82,862.037 1194.86,861.656 1196.9,861.264 1198.93,860.861 1200.97,860.448 1203.01,860.023 1205.05,859.588 1207.09,859.142 1209.13,858.686 1211.17,858.218 
  1213.21,857.741 1215.24,857.253 1217.28,856.754 1219.32,856.245 1221.36,855.725 1223.4,855.196 1225.44,854.655 1227.48,854.105 1229.51,853.544 1231.55,852.973 
  1233.59,852.392 1235.63,851.8 1237.67,851.199 1239.71,850.587 1241.75,849.965 1243.79,849.333 1245.82,848.691 1247.86,848.039 1249.9,847.377 1251.94,846.704 
  1253.98,846.022 1256.02,845.33 1258.06,844.628 1260.09,843.916 1262.13,843.194 1264.17,842.461 1266.21,841.719 1268.25,840.967 1270.29,840.206 1272.33,839.434 
  1274.37,838.652 1276.4,837.86 1278.44,837.059 1280.48,836.247 1282.52,835.426 1284.56,834.594 1286.6,833.753 1288.64,832.901 1290.67,832.04 1292.71,831.169 
  1294.75,830.287 1296.79,829.396 1298.83,828.495 1300.87,827.583 1302.91,826.662 1304.95,825.73 1306.98,824.789 1309.02,823.837 1311.06,822.875 1313.1,821.903 
  1315.14,820.921 1317.18,819.928 1319.22,818.926 1321.25,817.913 1323.29,816.889 1325.33,815.856 1327.37,814.812 1329.41,813.757 1331.45,812.692 1333.49,811.617 
  1335.53,810.531 1337.56,809.435 1339.6,808.328 1341.64,807.21 1343.68,806.082 1345.72,804.943 1347.76,803.793 1349.8,802.632 1351.83,801.461 1353.87,800.278 
  1355.91,799.085 1357.95,797.881 1359.99,796.665 1362.03,795.439 1364.07,794.201 1366.11,792.953 1368.14,791.693 1370.18,790.421 1372.22,789.138 1374.26,787.844 
  1376.3,786.539 1378.34,785.222 1380.38,783.893 1382.41,782.553 1384.45,781.201 1386.49,779.837 1388.53,778.462 1390.57,777.074 1392.61,775.675 1394.65,774.264 
  1396.68,772.84 1398.72,771.405 1400.76,769.957 1402.8,768.497 1404.84,767.025 1406.88,765.541 1408.92,764.044 1410.96,762.535 1412.99,761.013 1415.03,759.479 
  1417.07,757.932 1419.11,756.372 1421.15,754.8 1423.19,753.215 1425.23,751.617 1427.26,750.006 1429.3,748.382 1431.34,746.745 1433.38,745.095 1435.42,743.432 
  1437.46,741.756 1439.5,740.066 1441.54,738.363 1443.57,736.647 1445.61,734.917 1447.65,733.174 1449.69,731.417 1451.73,729.647 1453.77,727.863 1455.81,726.066 
  1457.84,724.255 1459.88,722.43 1461.92,720.591 1463.96,718.739 1466,716.872 1468.04,714.992 1470.08,713.098 1472.12,711.189 1474.15,709.267 1476.19,707.331 
  1478.23,705.38 1480.27,703.416 1482.31,701.437 1484.35,699.444 1486.39,697.437 1488.42,695.416 1490.46,693.38 1492.5,691.33 1494.54,689.266 1496.58,687.187 
  1498.62,685.095 1500.66,682.988 1502.7,680.866 1504.73,678.73 1506.77,676.58 1508.81,674.416 1510.85,672.237 1512.89,670.044 1514.93,667.836 1516.97,665.614 
  1519,663.378 1521.04,661.128 1523.08,658.863 1525.12,656.584 1527.16,654.29 1529.2,651.983 1531.24,649.661 1533.28,647.325 1535.31,644.975 1537.35,642.611 
  1539.39,640.233 1541.43,637.84 1543.47,635.434 1545.51,633.014 1547.55,630.58 1549.58,628.132 1551.62,625.67 1553.66,623.195 1555.7,620.706 1557.74,618.204 
  1559.78,615.688 1561.82,613.159 1563.86,610.616 1565.89,608.06 1567.93,605.491 1569.97,602.909 1572.01,600.314 1574.05,597.706 1576.09,595.086 1578.13,592.452 
  1580.16,589.807 1582.2,587.149 1584.24,584.478 1586.28,581.796 1588.32,579.101 1590.36,576.395 1592.4,573.677 1594.44,570.947 1596.47,568.206 1598.51,565.454 
  1600.55,562.69 1602.59,559.915 1604.63,557.13 1606.67,554.334 1608.71,551.528 1610.74,548.711 1612.78,545.885 1614.82,543.048 1616.86,540.202 1618.9,537.346 
  1620.94,534.481 1622.98,531.607 1625.02,528.724 1627.05,525.832 1629.09,522.932 1631.13,520.024 1633.17,517.108 1635.21,514.184 1637.25,511.253 1639.29,508.315 
  1641.32,505.369 1643.36,502.417 1645.4,499.459 1647.44,496.495 1649.48,493.524 1651.52,490.548 1653.56,487.567 1655.59,484.581 1657.63,481.59 1659.67,478.595 
  1661.71,475.596 1663.75,472.593 1665.79,469.587 1667.83,466.577 1669.87,463.565 1671.9,460.55 1673.94,457.534 1675.98,454.515 1678.02,451.496 1680.06,448.475 
  1682.1,445.453 1684.14,442.432 1686.17,439.41 1688.21,436.389 1690.25,433.369 1692.29,430.35 1694.33,427.333 1696.37,424.318 1698.41,421.305 1700.45,418.296 
  1702.48,415.289 1704.52,412.287 1706.56,409.288 1708.6,406.295 1710.64,403.306 1712.68,400.323 1714.72,397.345 1716.75,394.375 1718.79,391.411 1720.83,388.454 
  1722.87,385.505 1724.91,382.565 1726.95,379.634 1728.99,376.711 1731.03,373.799 1733.06,370.897 1735.1,368.005 1737.14,365.125 1739.18,362.257 1741.22,359.401 
  1743.26,356.557 1745.3,353.728 1747.33,350.912 1749.37,348.11 1751.41,345.324 1753.45,342.553 1755.49,339.798 1757.53,337.06 1759.57,334.339 1761.61,331.636 
  1763.64,328.951 1765.68,326.285 1767.72,323.638 1769.76,321.012 1771.8,318.406 1773.84,315.821 1775.88,313.259 1777.91,310.718 1779.95,308.201 1781.99,305.707 
  1784.03,303.237 1786.07,300.793 1788.11,298.373 1790.15,295.98 1792.19,293.613 1794.22,291.274 1796.26,288.962 1798.3,286.679 1800.34,284.425 1802.38,282.201 
  1804.42,280.007 1806.46,277.844 1808.49,275.713 1810.53,273.614 1812.57,271.548 1814.61,269.516 1816.65,267.518 1818.69,265.554 1820.73,263.627 1822.77,261.735 
  1824.8,259.88 1826.84,258.062 1828.88,256.283 1830.92,254.542 1832.96,252.84 1835,251.178 1837.04,249.557 1839.07,247.978 1841.11,246.44 1843.15,244.944 
  1845.19,243.492 1847.23,242.084 1849.27,240.72 1851.31,239.401 1853.35,238.127 1855.38,236.9 1857.42,235.721 1859.46,234.588 1861.5,233.504 1863.54,232.469 
  1865.58,231.483 1867.62,230.547 1869.65,229.662 1871.69,228.828 1873.73,228.046 1875.77,227.316 1877.81,226.639 1879.85,226.016 1881.89,225.447 1883.92,224.933 
  1885.96,224.475 1888,224.072 1890.04,223.726 1892.08,223.437 1894.12,223.205 1896.16,223.031 1898.2,222.916 1900.23,222.861 1902.27,222.864 1904.31,222.928 
  1906.35,223.053 1908.39,223.239 1910.43,223.486 1912.47,223.796 1914.5,224.168 1916.54,224.603 1918.58,225.102 1920.62,225.664 1922.66,226.291 1924.7,226.982 
  1926.74,227.739 1928.78,228.561 1930.81,229.448 1932.85,230.402 1934.89,231.423 1936.93,232.51 1938.97,233.664 1941.01,234.886 1943.05,236.176 1945.08,237.533 
  1947.12,238.959 1949.16,240.454 1951.2,242.017 1953.24,243.649 1955.28,245.35 1957.32,247.12 1959.36,248.96 1961.39,250.869 1963.43,252.848 1965.47,254.896 
  1967.51,257.015 1969.55,259.203 1971.59,261.461 1973.63,263.789 1975.66,266.187 1977.7,268.655 1979.74,271.192 1981.78,273.799 1983.82,276.476 1985.86,279.222 
  1987.9,282.037 1989.94,284.922 1991.97,287.875 1994.01,290.897 1996.05,293.988 1998.09,297.146 2000.13,300.373 2002.17,303.667 2004.21,307.027 2006.24,310.455 
  2008.28,313.949 2010.32,317.508 2012.36,321.133 2014.4,324.822 2016.44,328.576 2018.48,332.393 2020.52,336.273 2022.55,340.215 2024.59,344.219 2026.63,348.283 
  2028.67,352.408 2030.71,356.592 2032.75,360.834 2034.79,365.134 2036.82,369.49 2038.86,373.902 2040.9,378.368 2042.94,382.888 2044.98,387.461 2047.02,392.084 
  2049.06,396.758 2051.1,401.481 2053.13,406.251 2055.17,411.068 2057.21,415.929 2059.25,420.834 2061.29,425.781 2063.33,430.769 2065.37,435.796 2067.4,440.861 
  2069.44,445.961 2071.48,451.095 2073.52,456.262 2075.56,461.459 2077.6,466.685 2079.64,471.937 2081.68,477.215 2083.71,482.515 2085.75,487.836 2087.79,493.175 
  2089.83,498.531 2091.87,503.901 2093.91,509.282 2095.95,514.673 2097.98,520.071 2100.02,525.473 2102.06,530.877 2104.1,536.281 2106.14,541.68 2108.18,547.074 
  2110.22,552.458 2112.26,557.83 2114.29,563.188 2116.33,568.527 2118.37,573.845 2120.41,579.139 2122.45,584.405 2124.49,589.64 2126.53,594.84 2128.56,600.003 
  2130.6,605.124 2132.64,610.2 2134.68,615.227 2136.72,620.202 2138.76,625.119 2140.8,629.977 2142.83,634.769 2144.87,639.493 2146.91,644.144 2148.95,648.718 
  2150.99,653.21 2153.03,657.616 2155.07,661.931 2157.11,666.15 2159.14,670.269 2161.18,674.283 2163.22,678.187 2165.26,681.976 2167.3,685.644 2169.34,689.187 
  2171.38,692.599 2173.41,695.875 2175.45,699.008 2177.49,701.994 2179.53,704.827 2181.57,707.5 2183.61,710.009 2185.65,712.346 2187.69,714.505 2189.72,716.48 
  2191.76,718.266 2193.8,719.854 2195.84,721.239 2197.88,722.414 2199.92,723.371 2201.96,724.105 2203.99,724.607 2206.03,724.871 2208.07,724.889 2210.11,724.654 
  2212.15,724.157 2214.19,723.392 2216.23,722.35 2218.27,721.024 2220.3,719.405 2222.34,717.484 2224.38,715.255 2226.42,712.707 2228.46,709.832 2230.5,706.622 
  2232.54,703.068 2234.57,699.16 2236.61,694.889 2238.65,690.245 2240.69,685.22 2242.73,679.804 2244.77,673.986 2246.81,667.757 2248.85,661.106 2250.88,654.024 
  2252.92,646.499 2254.96,638.521 2257,630.08 2259.04,621.164 2261.08,611.763 2263.12,601.864 2265.15,591.458 2267.19,580.531 2269.23,569.072 2271.27,557.07 
  2273.31,544.512 2275.35,531.385 2277.39,517.678 2279.43,503.378 2281.46,488.472 2283.5,472.947 2285.54,456.789 2287.58,439.986 2289.62,422.523 2291.66,404.387 
  
  "></polyline>
<polyline clip-path="url(#clip732)" style="stroke:#e26f46; stroke-linecap:butt; stroke-linejoin:round; stroke-width:4; stroke-opacity:1; fill:none" points="
  255.035,1185.37 257.073,1179.37 259.112,1173.01 261.151,1166.32 263.189,1159.3 265.228,1151.97 267.267,1144.35 269.305,1136.45 271.344,1128.29 273.383,1119.9 
  275.421,1111.28 277.46,1102.47 279.499,1093.47 281.537,1084.3 283.576,1074.99 285.615,1065.56 287.653,1056.02 289.692,1046.4 291.731,1036.71 293.769,1026.97 
  295.808,1017.21 297.847,1007.44 299.885,997.679 301.924,987.952 303.963,978.274 306.001,968.664 308.04,959.141 310.079,949.72 312.117,940.421 314.156,931.26 
  316.195,922.253 318.233,913.415 320.272,904.764 322.31,896.312 324.349,888.075 326.388,880.067 328.426,872.299 330.465,864.785 332.504,857.537 334.542,850.565 
  336.581,843.879 338.62,837.491 340.658,831.408 342.697,825.639 344.736,820.192 346.774,815.074 348.813,810.29 350.852,805.846 352.89,801.747 354.929,797.997 
  356.968,794.6 359.006,791.557 361.045,788.871 363.084,786.543 365.122,784.573 367.161,782.961 369.2,781.707 371.238,780.808 373.277,780.263 375.316,780.069 
  377.354,780.222 379.393,780.718 381.432,781.552 383.47,782.721 385.509,784.216 387.548,786.034 389.586,788.165 391.625,790.605 393.664,793.343 395.702,796.374 
  397.741,799.687 399.78,803.273 401.818,807.125 403.857,811.23 405.896,815.581 407.934,820.166 409.973,824.974 412.012,829.995 414.05,835.217 416.089,840.629 
  418.128,846.22 420.166,851.977 422.205,857.889 424.244,863.944 426.282,870.13 428.321,876.434 430.36,882.845 432.398,889.35 434.437,895.936 436.476,902.592 
  438.514,909.306 440.553,916.065 442.592,922.856 444.63,929.669 446.669,936.491 448.707,943.31 450.746,950.116 452.785,956.895 454.823,963.638 456.862,970.333 
  458.901,976.969 460.939,983.535 462.978,990.022 465.017,996.418 467.055,1002.72 469.094,1008.9 471.133,1014.97 473.171,1020.91 475.21,1026.71 477.249,1032.37 
  479.287,1037.88 481.326,1043.22 483.365,1048.4 485.403,1053.4 487.442,1058.22 489.481,1062.85 491.519,1067.29 493.558,1071.52 495.597,1075.55 497.635,1079.37 
  499.674,1082.98 501.713,1086.36 503.751,1089.52 505.79,1092.46 507.829,1095.16 509.867,1097.64 511.906,1099.87 513.945,1101.87 515.983,1103.64 518.022,1105.16 
  520.061,1106.44 522.099,1107.47 524.138,1108.27 526.177,1108.82 528.215,1109.13 530.254,1109.2 532.293,1109.03 534.331,1108.62 536.37,1107.97 538.409,1107.08 
  540.447,1105.97 542.486,1104.61 544.525,1103.03 546.563,1101.23 548.602,1099.2 550.641,1096.95 552.679,1094.49 554.718,1091.81 556.757,1088.92 558.795,1085.83 
  560.834,1082.54 562.873,1079.06 564.911,1075.39 566.95,1071.53 568.989,1067.49 571.027,1063.27 573.066,1058.88 575.104,1054.34 577.143,1049.63 579.182,1044.77 
  581.22,1039.76 583.259,1034.61 585.298,1029.33 587.336,1023.91 589.375,1018.38 591.414,1012.72 593.452,1006.96 595.491,1001.09 597.53,995.126 599.568,989.068 
  601.607,982.924 603.646,976.701 605.684,970.405 607.723,964.043 609.762,957.62 611.8,951.143 613.839,944.617 615.878,938.05 617.916,931.448 619.955,924.815 
  621.994,918.159 624.032,911.485 626.071,904.8 628.11,898.108 630.148,891.416 632.187,884.729 634.226,878.053 636.264,871.393 638.303,864.754 640.342,858.142 
  642.38,851.563 644.419,845.019 646.458,838.518 648.496,832.063 650.535,825.66 652.574,819.312 654.612,813.024 656.651,806.8 658.69,800.645 660.728,794.563 
  662.767,788.556 664.806,782.63 666.844,776.788 668.883,771.033 670.922,765.369 672.96,759.798 674.999,754.324 677.038,748.949 679.076,743.678 681.115,738.511 
  683.154,733.452 685.192,728.502 687.231,723.665 689.27,718.942 691.308,714.336 693.347,709.847 695.385,705.478 697.424,701.231 699.463,697.105 701.501,693.104 
  703.54,689.228 705.579,685.478 707.617,681.855 709.656,678.359 711.695,674.992 713.733,671.754 715.772,668.645 717.811,665.665 719.849,662.816 721.888,660.096 
  723.927,657.506 725.965,655.046 728.004,652.715 730.043,650.513 732.081,648.439 734.12,646.494 736.159,644.676 738.197,642.985 740.236,641.42 742.275,639.979 
  744.313,638.663 746.352,637.469 748.391,636.397 750.429,635.446 752.468,634.614 754.507,633.9 756.545,633.302 758.584,632.82 760.623,632.451 762.661,632.193 
  764.7,632.046 766.739,632.007 768.777,632.075 770.816,632.248 772.855,632.524 774.893,632.901 776.932,633.378 778.971,633.951 781.009,634.62 783.048,635.383 
  785.087,636.236 787.125,637.179 789.164,638.208 791.203,639.322 793.241,640.519 795.28,641.797 797.319,643.153 799.357,644.585 801.396,646.092 803.435,647.67 
  805.473,649.317 807.512,651.032 809.551,652.812 811.589,654.655 813.628,656.559 815.667,658.521 817.705,660.539 819.744,662.612 821.782,664.736 823.821,666.91 
  825.86,669.131 827.898,671.398 829.937,673.708 831.976,676.059 834.014,678.449 836.053,680.876 838.092,683.337 840.13,685.831 842.169,688.356 844.208,690.909 
  846.246,693.489 848.285,696.094 850.324,698.721 852.362,701.37 854.401,704.037 856.44,706.721 858.478,709.42 860.517,712.133 862.556,714.858 864.594,717.592 
  866.633,720.335 868.672,723.084 870.71,725.839 872.749,728.596 874.788,731.355 876.826,734.114 878.865,736.872 880.904,739.627 882.942,742.378 884.981,745.123 
  887.02,747.86 889.058,750.59 891.097,753.309 893.136,756.018 895.174,758.714 897.213,761.397 899.252,764.065 901.29,766.718 903.329,769.353 905.368,771.971 
  907.406,774.569 909.445,777.148 911.484,779.705 913.522,782.241 915.561,784.754 917.6,787.243 919.638,789.708 921.677,792.147 923.716,794.56 925.754,796.947 
  927.793,799.306 929.832,801.636 931.87,803.938 933.909,806.211 935.948,808.453 937.986,810.665 940.025,812.846 942.064,814.995 944.102,817.112 946.141,819.196 
  948.179,821.248 950.218,823.266 952.257,825.251 954.295,827.202 956.334,829.118 958.373,831 960.411,832.847 962.45,834.659 964.489,836.436 966.527,838.177 
  968.566,839.883 970.605,841.553 972.643,843.187 974.682,844.785 976.721,846.347 978.759,847.874 980.798,849.364 982.837,850.818 984.875,852.235 986.914,853.617 
  988.953,854.963 990.991,856.273 993.03,857.547 995.069,858.785 997.107,859.987 999.146,861.154 1001.18,862.285 1003.22,863.381 1005.26,864.442 1007.3,865.468 
  1009.34,866.46 1011.38,867.417 1013.42,868.339 1015.46,869.228 1017.49,870.082 1019.53,870.903 1021.57,871.691 1023.61,872.446 1025.65,873.168 1027.69,873.857 
  1029.73,874.515 1031.76,875.14 1033.8,875.734 1035.84,876.297 1037.88,876.829 1039.92,877.33 1041.96,877.801 1044,878.242 1046.04,878.654 1048.07,879.036 
  1050.11,879.39 1052.15,879.716 1054.19,880.013 1056.23,880.283 1058.27,880.525 1060.31,880.741 1062.34,880.93 1064.38,881.093 1066.42,881.23 1068.46,881.342 
  1070.5,881.43 1072.54,881.492 1074.58,881.531 1076.62,881.545 1078.65,881.537 1080.69,881.506 1082.73,881.452 1084.77,881.376 1086.81,881.278 1088.85,881.159 
  1090.89,881.02 1092.92,880.859 1094.96,880.679 1097,880.479 1099.04,880.26 1101.08,880.022 1103.12,879.765 1105.16,879.49 1107.2,879.198 1109.23,878.888 
  1111.27,878.562 1113.31,878.219 1115.35,877.86 1117.39,877.485 1119.43,877.095 1121.47,876.689 1123.5,876.269 1125.54,875.835 1127.58,875.387 1129.62,874.925 
  1131.66,874.451 1133.7,873.963 1135.74,873.463 1137.77,872.951 1139.81,872.427 1141.85,871.892 1143.89,871.345 1145.93,870.788 1147.97,870.22 1150.01,869.642 
  1152.05,869.055 1154.08,868.458 1156.12,867.851 1158.16,867.236 1160.2,866.612 1162.24,865.98 1164.28,865.34 1166.32,864.693 1168.35,864.038 1170.39,863.375 
  1172.43,862.706 1174.47,862.031 1176.51,861.349 1178.55,860.66 1180.59,859.966 1182.63,859.267 1184.66,858.562 1186.7,857.852 1188.74,857.137 1190.78,856.417 
  1192.82,855.693 1194.86,854.965 1196.9,854.233 1198.93,853.497 1200.97,852.757 1203.01,852.014 1205.05,851.268 1207.09,850.519 1209.13,849.767 1211.17,849.012 
  1213.21,848.254 1215.24,847.495 1217.28,846.733 1219.32,845.969 1221.36,845.203 1223.4,844.435 1225.44,843.666 1227.48,842.895 1229.51,842.123 1231.55,841.35 
  1233.59,840.575 1235.63,839.8 1237.67,839.023 1239.71,838.246 1241.75,837.468 1243.79,836.689 1245.82,835.91 1247.86,835.13 1249.9,834.35 1251.94,833.569 
  1253.98,832.788 1256.02,832.007 1258.06,831.226 1260.09,830.444 1262.13,829.663 1264.17,828.881 1266.21,828.1 1268.25,827.318 1270.29,826.536 1272.33,825.754 
  1274.37,824.973 1276.4,824.191 1278.44,823.409 1280.48,822.627 1282.52,821.845 1284.56,821.064 1286.6,820.282 1288.64,819.5 1290.67,818.717 1292.71,817.935 
  1294.75,817.152 1296.79,816.369 1298.83,815.586 1300.87,814.802 1302.91,814.018 1304.95,813.233 1306.98,812.448 1309.02,811.661 1311.06,810.874 1313.1,810.086 
  1315.14,809.297 1317.18,808.507 1319.22,807.716 1321.25,806.923 1323.29,806.129 1325.33,805.333 1327.37,804.535 1329.41,803.736 1331.45,802.934 1333.49,802.13 
  1335.53,801.324 1337.56,800.516 1339.6,799.704 1341.64,798.89 1343.68,798.073 1345.72,797.252 1347.76,796.428 1349.8,795.601 1351.83,794.77 1353.87,793.934 
  1355.91,793.095 1357.95,792.251 1359.99,791.402 1362.03,790.549 1364.07,789.69 1366.11,788.826 1368.14,787.957 1370.18,787.081 1372.22,786.2 1374.26,785.312 
  1376.3,784.418 1378.34,783.516 1380.38,782.608 1382.41,781.692 1384.45,780.769 1386.49,779.837 1388.53,778.897 1390.57,777.949 1392.61,776.992 1394.65,776.025 
  1396.68,775.049 1398.72,774.064 1400.76,773.068 1402.8,772.061 1404.84,771.044 1406.88,770.016 1408.92,768.977 1410.96,767.925 1412.99,766.862 1415.03,765.786 
  1417.07,764.697 1419.11,763.595 1421.15,762.48 1423.19,761.351 1425.23,760.207 1427.26,759.049 1429.3,757.875 1431.34,756.687 1433.38,755.483 1435.42,754.262 
  1437.46,753.025 1439.5,751.771 1441.54,750.5 1443.57,749.211 1445.61,747.904 1447.65,746.579 1449.69,745.234 1451.73,743.871 1453.77,742.488 1455.81,741.084 
  1457.84,739.661 1459.88,738.216 1461.92,736.75 1463.96,735.263 1466,733.753 1468.04,732.221 1470.08,730.666 1472.12,729.087 1474.15,727.485 1476.19,725.859 
  1478.23,724.209 1480.27,722.533 1482.31,720.832 1484.35,719.106 1486.39,717.353 1488.42,715.574 1490.46,713.768 1492.5,711.935 1494.54,710.074 1496.58,708.185 
  1498.62,706.267 1500.66,704.321 1502.7,702.346 1504.73,700.341 1506.77,698.307 1508.81,696.242 1510.85,694.147 1512.89,692.02 1514.93,689.863 1516.97,687.674 
  1519,685.453 1521.04,683.2 1523.08,680.915 1525.12,678.596 1527.16,676.245 1529.2,673.86 1531.24,671.442 1533.28,668.99 1535.31,666.504 1537.35,663.984 
  1539.39,661.429 1541.43,658.839 1543.47,656.215 1545.51,653.555 1547.55,650.86 1549.58,648.13 1551.62,645.364 1553.66,642.562 1555.7,639.725 1557.74,636.852 
  1559.78,633.942 1561.82,630.997 1563.86,628.016 1565.89,624.998 1567.93,621.945 1569.97,618.855 1572.01,615.729 1574.05,612.568 1576.09,609.37 1578.13,606.136 
  1580.16,602.867 1582.2,599.562 1584.24,596.222 1586.28,592.847 1588.32,589.436 1590.36,585.991 1592.4,582.511 1594.44,578.997 1596.47,575.448 1598.51,571.867 
  1600.55,568.251 1602.59,564.603 1604.63,560.923 1606.67,557.21 1608.71,553.466 1610.74,549.69 1612.78,545.885 1614.82,542.049 1616.86,538.183 1618.9,534.289 
  1620.94,530.366 1622.98,526.416 1625.02,522.44 1627.05,518.437 1629.09,514.409 1631.13,510.356 1633.17,506.28 1635.21,502.18 1637.25,498.059 1639.29,493.917 
  1641.32,489.755 1643.36,485.574 1645.4,481.375 1647.44,477.159 1649.48,472.928 1651.52,468.681 1653.56,464.421 1655.59,460.149 1657.63,455.866 1659.67,451.573 
  1661.71,447.272 1663.75,442.963 1665.79,438.649 1667.83,434.331 1669.87,430.009 1671.9,425.687 1673.94,421.364 1675.98,417.043 1678.02,412.726 1680.06,408.413 
  1682.1,404.107 1684.14,399.809 1686.17,395.52 1688.21,391.244 1690.25,386.981 1692.29,382.733 1694.33,378.503 1696.37,374.291 1698.41,370.1 1700.45,365.932 
  1702.48,361.788 1704.52,357.671 1706.56,353.583 1708.6,349.525 1710.64,345.5 1712.68,341.51 1714.72,337.557 1716.75,333.642 1718.79,329.769 1720.83,325.939 
  1722.87,322.154 1724.91,318.416 1726.95,314.728 1728.99,311.092 1731.03,307.511 1733.06,303.985 1735.1,300.518 1737.14,297.111 1739.18,293.768 1741.22,290.489 
  1743.26,287.278 1745.3,284.137 1747.33,281.067 1749.37,278.071 1751.41,275.152 1753.45,272.31 1755.49,269.55 1757.53,266.872 1759.57,264.279 1761.61,261.773 
  1763.64,259.356 1765.68,257.03 1767.72,254.798 1769.76,252.66 1771.8,250.621 1773.84,248.68 1775.88,246.84 1777.91,245.104 1779.95,243.472 1781.99,241.948 
  1784.03,240.531 1786.07,239.225 1788.11,238.031 1790.15,236.95 1792.19,235.984 1794.22,235.135 1796.26,234.403 1798.3,233.791 1800.34,233.299 1802.38,232.929 
  1804.42,232.682 1806.46,232.559 1808.49,232.561 1810.53,232.688 1812.57,232.943 1814.61,233.325 1816.65,233.834 1818.69,234.473 1820.73,235.24 1822.77,236.137 
  1824.8,237.163 1826.84,238.32 1828.88,239.606 1830.92,241.022 1832.96,242.567 1835,244.242 1837.04,246.046 1839.07,247.978 1841.11,250.037 1843.15,252.224 
  1845.19,254.537 1847.23,256.974 1849.27,259.536 1851.31,262.22 1853.35,265.026 1855.38,267.951 1857.42,270.994 1859.46,274.153 1861.5,277.427 1863.54,280.812 
  1865.58,284.308 1867.62,287.911 1869.65,291.62 1871.69,295.43 1873.73,299.341 1875.77,303.348 1877.81,307.449 1879.85,311.641 1881.89,315.919 1883.92,320.282 
  1885.96,324.725 1888,329.244 1890.04,333.835 1892.08,338.495 1894.12,343.22 1896.16,348.004 1898.2,352.844 1900.23,357.735 1902.27,362.673 1904.31,367.653 
  1906.35,372.669 1908.39,377.717 1910.43,382.792 1912.47,387.889 1914.5,393.002 1916.54,398.125 1918.58,403.254 1920.62,408.382 1922.66,413.504 1924.7,418.614 
  1926.74,423.707 1928.78,428.776 1930.81,433.815 1932.85,438.818 1934.89,443.78 1936.93,448.694 1938.97,453.553 1941.01,458.352 1943.05,463.085 1945.08,467.744 
  1947.12,472.324 1949.16,476.819 1951.2,481.222 1953.24,485.526 1955.28,489.726 1957.32,493.816 1959.36,497.789 1961.39,501.638 1963.43,505.359 1965.47,508.944 
  1967.51,512.388 1969.55,515.686 1971.59,518.83 1973.63,521.816 1975.66,524.637 1977.7,527.289 1979.74,529.766 1981.78,532.062 1983.82,534.173 1985.86,536.094 
  1987.9,537.82 1989.94,539.346 1991.97,540.668 1994.01,541.781 1996.05,542.683 1998.09,543.368 2000.13,543.834 2002.17,544.076 2004.21,544.092 2006.24,543.88 
  2008.28,543.435 2010.32,542.757 2012.36,541.842 2014.4,540.69 2016.44,539.298 2018.48,537.665 2020.52,535.791 2022.55,533.675 2024.59,531.316 2026.63,528.715 
  2028.67,525.872 2030.71,522.787 2032.75,519.463 2034.79,515.899 2036.82,512.098 2038.86,508.062 2040.9,503.793 2042.94,499.295 2044.98,494.57 2047.02,489.621 
  2049.06,484.453 2051.1,479.07 2053.13,473.476 2055.17,467.677 2057.21,461.678 2059.25,455.484 2061.29,449.101 2063.33,442.536 2065.37,435.796 2067.4,428.888 
  2069.44,421.819 2071.48,414.596 2073.52,407.229 2075.56,399.725 2077.6,392.093 2079.64,384.343 2081.68,376.482 2083.71,368.522 2085.75,360.472 2087.79,352.342 
  2089.83,344.143 2091.87,335.884 2093.91,327.578 2095.95,319.235 2097.98,310.866 2100.02,302.483 2102.06,294.098 2104.1,285.722 2106.14,277.366 2108.18,269.044 
  2110.22,260.767 2112.26,252.548 2114.29,244.397 2116.33,236.329 2118.37,228.355 2120.41,220.487 2122.45,212.738 2124.49,205.119 2126.53,197.643 2128.56,190.323 
  2130.6,183.168 2132.64,176.193 2134.68,169.407 2136.72,162.823 2138.76,156.451 2140.8,150.303 2142.83,144.389 2144.87,138.719 2146.91,133.305 2148.95,128.154 
  2150.99,123.278 2153.03,118.684 2155.07,114.382 2157.11,110.379 2159.14,106.684 2161.18,103.303 2163.22,100.244 2165.26,97.512 2167.3,95.1137 2169.34,93.0541 
  2171.38,91.3377 2173.41,89.9686 2175.45,88.9502 2177.49,88.2854 2179.53,87.9763 2181.57,88.0244 2183.61,88.4307 2185.65,89.1954 2187.69,90.3179 2189.72,91.7972 
  2191.76,93.6312 2193.8,95.8175 2195.84,98.3527 2197.88,101.233 2199.92,104.453 2201.96,108.008 2203.99,111.892 2206.03,116.097 2208.07,120.617 2210.11,125.442 
  2212.15,130.563 2214.19,135.972 2216.23,141.657 2218.27,147.607 2220.3,153.811 2222.34,160.256 2224.38,166.93 2226.42,173.818 2228.46,180.906 2230.5,188.18 
  2232.54,195.623 2234.57,203.221 2236.61,210.957 2238.65,218.813 2240.69,226.774 2242.73,234.82 2244.77,242.934 2246.81,251.098 2248.85,259.293 2250.88,267.499 
  2252.92,275.698 2254.96,283.871 2257,291.997 2259.04,300.058 2261.08,308.033 2263.12,315.903 2265.15,323.648 2267.19,331.249 2269.23,338.686 2271.27,345.94 
  2273.31,352.992 2275.35,359.823 2277.39,366.414 2279.43,372.748 2281.46,378.807 2283.5,384.573 2285.54,390.03 2287.58,395.162 2289.62,399.953 2291.66,404.387 
  
  "></polyline>
<path clip-path="url(#clip730)" d="
M1760.07 250.738 L2280.8 250.738 L2280.8 95.2176 L1760.07 95.2176  Z
  " fill="#ffffff" fill-rule="evenodd" fill-opacity="1"></path>
<polyline clip-path="url(#clip730)" style="stroke:#000000; stroke-linecap:butt; stroke-linejoin:round; stroke-width:4; stroke-opacity:1; fill:none" points="
  1760.07,250.738 2280.8,250.738 2280.8,95.2176 1760.07,95.2176 1760.07,250.738 
  "></polyline>
<polyline clip-path="url(#clip730)" style="stroke:#009af9; stroke-linecap:butt; stroke-linejoin:round; stroke-width:4; stroke-opacity:1; fill:none" points="
  1784.06,147.058 1927.98,147.058 
  "></polyline>
<path clip-path="url(#clip730)" d="M1951.97 138.412 L1956.23 138.412 L1956.23 164.338 L1951.97 164.338 L1951.97 138.412 M1951.97 128.319 L1956.23 128.319 L1956.23 133.713 L1951.97 133.713 L1951.97 128.319 Z" fill="#000000" fill-rule="evenodd" fill-opacity="1"></path><path clip-path="url(#clip730)" d="M1986.69 148.689 L1986.69 164.338 L1982.43 164.338 L1982.43 148.828 Q1982.43 145.148 1980.99 143.319 Q1979.56 141.49 1976.69 141.49 Q1973.24 141.49 1971.25 143.69 Q1969.26 145.889 1969.26 149.685 L1969.26 164.338 L1964.98 164.338 L1964.98 138.412 L1969.26 138.412 L1969.26 142.44 Q1970.79 140.102 1972.85 138.944 Q1974.93 137.787 1977.64 137.787 Q1982.11 137.787 1984.4 140.565 Q1986.69 143.319 1986.69 148.689 Z" fill="#000000" fill-rule="evenodd" fill-opacity="1"></path><path clip-path="url(#clip730)" d="M1999.4 131.051 L1999.4 138.412 L2008.17 138.412 L2008.17 141.722 L1999.4 141.722 L1999.4 155.796 Q1999.4 158.967 2000.25 159.87 Q2001.13 160.773 2003.79 160.773 L2008.17 160.773 L2008.17 164.338 L2003.79 164.338 Q1998.86 164.338 1996.99 162.509 Q1995.11 160.657 1995.11 155.796 L1995.11 141.722 L1991.99 141.722 L1991.99 138.412 L1995.11 138.412 L1995.11 131.051 L1999.4 131.051 Z" fill="#000000" fill-rule="evenodd" fill-opacity="1"></path><path clip-path="url(#clip730)" d="M2035.95 150.31 L2035.95 152.393 L2016.36 152.393 Q2016.64 156.791 2019 159.106 Q2021.39 161.398 2025.62 161.398 Q2028.08 161.398 2030.37 160.796 Q2032.68 160.194 2034.95 158.99 L2034.95 163.018 Q2032.66 163.99 2030.25 164.5 Q2027.85 165.009 2025.37 165.009 Q2019.17 165.009 2015.53 161.398 Q2011.92 157.787 2011.92 151.629 Q2011.92 145.264 2015.35 141.537 Q2018.79 137.787 2024.63 137.787 Q2029.86 137.787 2032.89 141.166 Q2035.95 144.523 2035.95 150.31 M2031.69 149.06 Q2031.64 145.565 2029.72 143.481 Q2027.82 141.398 2024.67 141.398 Q2021.11 141.398 2018.96 143.412 Q2016.83 145.426 2016.5 149.083 L2031.69 149.06 Z" fill="#000000" fill-rule="evenodd" fill-opacity="1"></path><path clip-path="url(#clip730)" d="M2057.96 142.393 Q2057.24 141.977 2056.39 141.791 Q2055.55 141.583 2054.54 141.583 Q2050.92 141.583 2048.98 143.944 Q2047.06 146.282 2047.06 150.68 L2047.06 164.338 L2042.78 164.338 L2042.78 138.412 L2047.06 138.412 L2047.06 142.44 Q2048.4 140.078 2050.55 138.944 Q2052.71 137.787 2055.79 137.787 Q2056.23 137.787 2056.76 137.856 Q2057.29 137.903 2057.94 138.018 L2057.96 142.393 Z" fill="#000000" fill-rule="evenodd" fill-opacity="1"></path><path clip-path="url(#clip730)" d="M2066.55 160.449 L2066.55 174.199 L2062.27 174.199 L2062.27 138.412 L2066.55 138.412 L2066.55 142.347 Q2067.89 140.032 2069.93 138.921 Q2071.99 137.787 2074.84 137.787 Q2079.56 137.787 2082.5 141.537 Q2085.46 145.287 2085.46 151.398 Q2085.46 157.509 2082.5 161.259 Q2079.56 165.009 2074.84 165.009 Q2071.99 165.009 2069.93 163.898 Q2067.89 162.763 2066.55 160.449 M2081.04 151.398 Q2081.04 146.699 2079.1 144.037 Q2077.17 141.352 2073.79 141.352 Q2070.41 141.352 2068.47 144.037 Q2066.55 146.699 2066.55 151.398 Q2066.55 156.097 2068.47 158.782 Q2070.41 161.444 2073.79 161.444 Q2077.17 161.444 2079.1 158.782 Q2081.04 156.097 2081.04 151.398 Z" fill="#000000" fill-rule="evenodd" fill-opacity="1"></path><path clip-path="url(#clip730)" d="M2102.57 141.398 Q2099.14 141.398 2097.15 144.083 Q2095.16 146.745 2095.16 151.398 Q2095.16 156.051 2097.13 158.736 Q2099.12 161.398 2102.57 161.398 Q2105.97 161.398 2107.96 158.713 Q2109.95 156.027 2109.95 151.398 Q2109.95 146.791 2107.96 144.106 Q2105.97 141.398 2102.57 141.398 M2102.57 137.787 Q2108.12 137.787 2111.29 141.398 Q2114.47 145.009 2114.47 151.398 Q2114.47 157.764 2111.29 161.398 Q2108.12 165.009 2102.57 165.009 Q2096.99 165.009 2093.82 161.398 Q2090.67 157.764 2090.67 151.398 Q2090.67 145.009 2093.82 141.398 Q2096.99 137.787 2102.57 137.787 Z" fill="#000000" fill-rule="evenodd" fill-opacity="1"></path><path clip-path="url(#clip730)" d="M2121.53 128.319 L2125.79 128.319 L2125.79 164.338 L2121.53 164.338 L2121.53 128.319 Z" fill="#000000" fill-rule="evenodd" fill-opacity="1"></path><path clip-path="url(#clip730)" d="M2146.48 151.305 Q2141.32 151.305 2139.33 152.486 Q2137.34 153.666 2137.34 156.514 Q2137.34 158.782 2138.82 160.125 Q2140.32 161.444 2142.89 161.444 Q2146.43 161.444 2148.56 158.944 Q2150.72 156.421 2150.72 152.254 L2150.72 151.305 L2146.48 151.305 M2154.97 149.546 L2154.97 164.338 L2150.72 164.338 L2150.72 160.402 Q2149.26 162.763 2147.08 163.898 Q2144.91 165.009 2141.76 165.009 Q2137.78 165.009 2135.41 162.787 Q2133.08 160.541 2133.08 156.791 Q2133.08 152.416 2135.99 150.194 Q2138.93 147.972 2144.74 147.972 L2150.72 147.972 L2150.72 147.555 Q2150.72 144.615 2148.77 143.018 Q2146.85 141.398 2143.35 141.398 Q2141.13 141.398 2139.03 141.93 Q2136.92 142.463 2134.97 143.527 L2134.97 139.592 Q2137.31 138.69 2139.51 138.25 Q2141.71 137.787 2143.79 137.787 Q2149.42 137.787 2152.2 140.703 Q2154.97 143.62 2154.97 149.546 Z" fill="#000000" fill-rule="evenodd" fill-opacity="1"></path><path clip-path="url(#clip730)" d="M2167.96 131.051 L2167.96 138.412 L2176.73 138.412 L2176.73 141.722 L2167.96 141.722 L2167.96 155.796 Q2167.96 158.967 2168.82 159.87 Q2169.7 160.773 2172.36 160.773 L2176.73 160.773 L2176.73 164.338 L2172.36 164.338 Q2167.43 164.338 2165.55 162.509 Q2163.68 160.657 2163.68 155.796 L2163.68 141.722 L2160.55 141.722 L2160.55 138.412 L2163.68 138.412 L2163.68 131.051 L2167.96 131.051 Z" fill="#000000" fill-rule="evenodd" fill-opacity="1"></path><path clip-path="url(#clip730)" d="M2204.51 150.31 L2204.51 152.393 L2184.93 152.393 Q2185.21 156.791 2187.57 159.106 Q2189.95 161.398 2194.19 161.398 Q2196.64 161.398 2198.93 160.796 Q2201.25 160.194 2203.52 158.99 L2203.52 163.018 Q2201.22 163.99 2198.82 164.5 Q2196.41 165.009 2193.93 165.009 Q2187.73 165.009 2184.09 161.398 Q2180.48 157.787 2180.48 151.629 Q2180.48 145.264 2183.91 141.537 Q2187.36 137.787 2193.19 137.787 Q2198.42 137.787 2201.46 141.166 Q2204.51 144.523 2204.51 150.31 M2200.25 149.06 Q2200.21 145.565 2198.28 143.481 Q2196.39 141.398 2193.24 141.398 Q2189.67 141.398 2187.52 143.412 Q2185.39 145.426 2185.07 149.083 L2200.25 149.06 Z" fill="#000000" fill-rule="evenodd" fill-opacity="1"></path><path clip-path="url(#clip730)" d="M2228.56 142.347 L2228.56 128.319 L2232.82 128.319 L2232.82 164.338 L2228.56 164.338 L2228.56 160.449 Q2227.22 162.763 2225.16 163.898 Q2223.12 165.009 2220.25 165.009 Q2215.55 165.009 2212.59 161.259 Q2209.65 157.509 2209.65 151.398 Q2209.65 145.287 2212.59 141.537 Q2215.55 137.787 2220.25 137.787 Q2223.12 137.787 2225.16 138.921 Q2227.22 140.032 2228.56 142.347 M2214.05 151.398 Q2214.05 156.097 2215.97 158.782 Q2217.91 161.444 2221.29 161.444 Q2224.67 161.444 2226.62 158.782 Q2228.56 156.097 2228.56 151.398 Q2228.56 146.699 2226.62 144.037 Q2224.67 141.352 2221.29 141.352 Q2217.91 141.352 2215.97 144.037 Q2214.05 146.699 2214.05 151.398 Z" fill="#000000" fill-rule="evenodd" fill-opacity="1"></path><polyline clip-path="url(#clip730)" style="stroke:#e26f46; stroke-linecap:butt; stroke-linejoin:round; stroke-width:4; stroke-opacity:1; fill:none" points="
  1784.06,198.898 1927.98,198.898 
  "></polyline>
<path clip-path="url(#clip730)" d="M1968.47 180.159 L1968.47 183.701 L1964.4 183.701 Q1962.11 183.701 1961.2 184.627 Q1960.32 185.553 1960.32 187.96 L1960.32 190.252 L1967.34 190.252 L1967.34 193.562 L1960.32 193.562 L1960.32 216.178 L1956.04 216.178 L1956.04 193.562 L1951.97 193.562 L1951.97 190.252 L1956.04 190.252 L1956.04 188.446 Q1956.04 184.118 1958.05 182.15 Q1960.07 180.159 1964.44 180.159 L1968.47 180.159 Z" fill="#000000" fill-rule="evenodd" fill-opacity="1"></path></svg>