<svg xmlns="http://www.w3.org/2000/svg" xmlns:xlink="http://www.w3.org/1999/xlink" width="600" height="400" viewBox="0 0 2400 1600">
<defs>
  <clipPath id="clip770">
    <rect x="0" y="0" width="2400" height="1600"></rect>
  </clipPath>
</defs>
<path clip-path="url(#clip770)" d="
M0 1600 L2400 1600 L2400 0 L0 0  Z
  " fill="#ffffff" fill-rule="evenodd" fill-opacity="1"></path>
<defs>
  <clipPath id="clip771">
    <rect x="480" y="0" width="1681" height="1600"></rect>
  </clipPath>
</defs>
<path clip-path="url(#clip770)" d="
M193.936 1486.45 L2352.76 1486.45 L2352.76 47.2441 L193.936 47.2441  Z
  " fill="#ffffff" fill-rule="evenodd" fill-opacity="1"></path>
<defs>
  <clipPath id="clip772">
    <rect x="193" y="47" width="2160" height="1440"></rect>
  </clipPath>
</defs>
<polyline clip-path="url(#clip772)" style="stroke:#000000; stroke-linecap:butt; stroke-linejoin:round; stroke-width:2; stroke-opacity:0.1; fill:none" points="
  255.035,1486.45 255.035,47.2441 
  "></polyline>
<polyline clip-path="url(#clip772)" style="stroke:#000000; stroke-linecap:butt; stroke-linejoin:round; stroke-width:2; stroke-opacity:0.1; fill:none" points="
  764.19,1486.45 764.19,47.2441 
  "></polyline>
<polyline clip-path="url(#clip772)" style="stroke:#000000; stroke-linecap:butt; stroke-linejoin:round; stroke-width:2; stroke-opacity:0.1; fill:none" points="
  1273.35,1486.45 1273.35,47.2441 
  "></polyline>
<polyline clip-path="url(#clip772)" style="stroke:#000000; stroke-linecap:butt; stroke-linejoin:round; stroke-width:2; stroke-opacity:0.1; fill:none" points="
  1782.5,1486.45 1782.5,47.2441 
  "></polyline>
<polyline clip-path="url(#clip772)" style="stroke:#000000; stroke-linecap:butt; stroke-linejoin:round; stroke-width:2; stroke-opacity:0.1; fill:none" points="
  2291.66,1486.45 2291.66,47.2441 
  "></polyline>
<polyline clip-path="url(#clip770)" style="stroke:#000000; stroke-linecap:butt; stroke-linejoin:round; stroke-width:4; stroke-opacity:1; fill:none" points="
  193.936,1486.45 2352.76,1486.45 
  "></polyline>
<polyline clip-path="url(#clip770)" style="stroke:#000000; stroke-linecap:butt; stroke-linejoin:round; stroke-width:4; stroke-opacity:1; fill:none" points="
  255.035,1486.45 255.035,1467.55 
  "></polyline>
<polyline clip-path="url(#clip770)" style="stroke:#000000; stroke-linecap:butt; stroke-linejoin:round; stroke-width:4; stroke-opacity:1; fill:none" points="
  764.19,1486.45 764.19,1467.55 
  "></polyline>
<polyline clip-path="url(#clip770)" style="stroke:#000000; stroke-linecap:butt; stroke-linejoin:round; stroke-width:4; stroke-opacity:1; fill:none" points="
  1273.35,1486.45 1273.35,1467.55 
  "></polyline>
<polyline clip-path="url(#clip770)" style="stroke:#000000; stroke-linecap:butt; stroke-linejoin:round; stroke-width:4; stroke-opacity:1; fill:none" points="
  1782.5,1486.45 1782.5,1467.55 
  "></polyline>
<polyline clip-path="url(#clip770)" style="stroke:#000000; stroke-linecap:butt; stroke-linejoin:round; stroke-width:4; stroke-opacity:1; fill:none" points="
  2291.66,1486.45 2291.66,1467.55 
  "></polyline>
<path clip-path="url(#clip770)" d="M201.563 1532.02 L231.239 1532.02 L231.239 1535.95 L201.563 1535.95 L201.563 1532.02 Z" fill="#000000" fill-rule="evenodd" fill-opacity="1"></path><path clip-path="url(#clip770)" d="M242.141 1544.91 L249.78 1544.91 L249.78 1518.55 L241.47 1520.21 L241.47 1515.95 L249.734 1514.29 L254.41 1514.29 L254.41 1544.91 L262.049 1544.91 L262.049 1548.85 L242.141 1548.85 L242.141 1544.91 Z" fill="#000000" fill-rule="evenodd" fill-opacity="1"></path><path clip-path="url(#clip770)" d="M271.493 1542.97 L276.377 1542.97 L276.377 1548.85 L271.493 1548.85 L271.493 1542.97 Z" fill="#000000" fill-rule="evenodd" fill-opacity="1"></path><path clip-path="url(#clip770)" d="M296.562 1517.37 Q292.951 1517.37 291.122 1520.93 Q289.317 1524.47 289.317 1531.6 Q289.317 1538.71 291.122 1542.27 Q292.951 1545.82 296.562 1545.82 Q300.196 1545.82 302.002 1542.27 Q303.831 1538.71 303.831 1531.6 Q303.831 1524.47 302.002 1520.93 Q300.196 1517.37 296.562 1517.37 M296.562 1513.66 Q302.372 1513.66 305.428 1518.27 Q308.507 1522.85 308.507 1531.6 Q308.507 1540.33 305.428 1544.94 Q302.372 1549.52 296.562 1549.52 Q290.752 1549.52 287.673 1544.94 Q284.618 1540.33 284.618 1531.6 Q284.618 1522.85 287.673 1518.27 Q290.752 1513.66 296.562 1513.66 Z" fill="#000000" fill-rule="evenodd" fill-opacity="1"></path><path clip-path="url(#clip770)" d="M711.216 1532.02 L740.892 1532.02 L740.892 1535.95 L711.216 1535.95 L711.216 1532.02 Z" fill="#000000" fill-rule="evenodd" fill-opacity="1"></path><path clip-path="url(#clip770)" d="M760.984 1517.37 Q757.373 1517.37 755.545 1520.93 Q753.739 1524.47 753.739 1531.6 Q753.739 1538.71 755.545 1542.27 Q757.373 1545.82 760.984 1545.82 Q764.619 1545.82 766.424 1542.27 Q768.253 1538.71 768.253 1531.6 Q768.253 1524.47 766.424 1520.93 Q764.619 1517.37 760.984 1517.37 M760.984 1513.66 Q766.794 1513.66 769.85 1518.27 Q772.929 1522.85 772.929 1531.6 Q772.929 1540.33 769.85 1544.94 Q766.794 1549.52 760.984 1549.52 Q755.174 1549.52 752.095 1544.94 Q749.04 1540.33 749.04 1531.6 Q749.04 1522.85 752.095 1518.27 Q755.174 1513.66 760.984 1513.66 Z" fill="#000000" fill-rule="evenodd" fill-opacity="1"></path><path clip-path="url(#clip770)" d="M781.146 1542.97 L786.03 1542.97 L786.03 1548.85 L781.146 1548.85 L781.146 1542.97 Z" fill="#000000" fill-rule="evenodd" fill-opacity="1"></path><path clip-path="url(#clip770)" d="M796.262 1514.29 L814.618 1514.29 L814.618 1518.22 L800.544 1518.22 L800.544 1526.7 Q801.563 1526.35 802.581 1526.19 Q803.6 1526 804.618 1526 Q810.405 1526 813.785 1529.17 Q817.165 1532.34 817.165 1537.76 Q817.165 1543.34 813.692 1546.44 Q810.22 1549.52 803.901 1549.52 Q801.725 1549.52 799.456 1549.15 Q797.211 1548.78 794.804 1548.04 L794.804 1543.34 Q796.887 1544.47 799.109 1545.03 Q801.331 1545.58 803.808 1545.58 Q807.813 1545.58 810.151 1543.48 Q812.489 1541.37 812.489 1537.76 Q812.489 1534.15 810.151 1532.04 Q807.813 1529.94 803.808 1529.94 Q801.933 1529.94 800.058 1530.35 Q798.206 1530.77 796.262 1531.65 L796.262 1514.29 Z" fill="#000000" fill-rule="evenodd" fill-opacity="1"></path><path clip-path="url(#clip770)" d="M1250.73 1517.37 Q1247.12 1517.37 1245.29 1520.93 Q1243.49 1524.47 1243.49 1531.6 Q1243.49 1538.71 1245.29 1542.27 Q1247.12 1545.82 1250.73 1545.82 Q1254.36 1545.82 1256.17 1542.27 Q1258 1538.71 1258 1531.6 Q1258 1524.47 1256.17 1520.93 Q1254.36 1517.37 1250.73 1517.37 M1250.73 1513.66 Q1256.54 1513.66 1259.6 1518.27 Q1262.67 1522.85 1262.67 1531.6 Q1262.67 1540.33 1259.6 1544.94 Q1256.54 1549.52 1250.73 1549.52 Q1244.92 1549.52 1241.84 1544.94 Q1238.79 1540.33 1238.79 1531.6 Q1238.79 1522.85 1241.84 1518.27 Q1244.92 1513.66 1250.73 1513.66 Z" fill="#000000" fill-rule="evenodd" fill-opacity="1"></path><path clip-path="url(#clip770)" d="M1270.89 1542.97 L1275.78 1542.97 L1275.78 1548.85 L1270.89 1548.85 L1270.89 1542.97 Z" fill="#000000" fill-rule="evenodd" fill-opacity="1"></path><path clip-path="url(#clip770)" d="M1295.96 1517.37 Q1292.35 1517.37 1290.52 1520.93 Q1288.72 1524.47 1288.72 1531.6 Q1288.72 1538.71 1290.52 1542.27 Q1292.35 1545.82 1295.96 1545.82 Q1299.6 1545.82 1301.4 1542.27 Q1303.23 1538.71 1303.23 1531.6 Q1303.23 1524.47 1301.4 1520.93 Q1299.6 1517.37 1295.96 1517.37 M1295.96 1513.66 Q1301.77 1513.66 1304.83 1518.27 Q1307.91 1522.85 1307.91 1531.6 Q1307.91 1540.33 1304.83 1544.94 Q1301.77 1549.52 1295.96 1549.52 Q1290.15 1549.52 1287.07 1544.94 Q1284.02 1540.33 1284.02 1531.6 Q1284.02 1522.85 1287.07 1518.27 Q1290.15 1513.66 1295.96 1513.66 Z" fill="#000000" fill-rule="evenodd" fill-opacity="1"></path><path clip-path="url(#clip770)" d="M1760.38 1517.37 Q1756.77 1517.37 1754.94 1520.93 Q1753.14 1524.47 1753.14 1531.6 Q1753.14 1538.71 1754.94 1542.27 Q1756.77 1545.82 1760.38 1545.82 Q1764.02 1545.82 1765.82 1542.27 Q1767.65 1538.71 1767.65 1531.6 Q1767.65 1524.47 1765.82 1520.93 Q1764.02 1517.37 1760.38 1517.37 M1760.38 1513.66 Q1766.19 1513.66 1769.25 1518.27 Q1772.33 1522.85 1772.33 1531.6 Q1772.33 1540.33 1769.25 1544.94 Q1766.19 1549.52 1760.38 1549.52 Q1754.57 1549.52 1751.49 1544.94 Q1748.44 1540.33 1748.44 1531.6 Q1748.44 1522.85 1751.49 1518.27 Q1754.57 1513.66 1760.38 1513.66 Z" fill="#000000" fill-rule="evenodd" fill-opacity="1"></path><path clip-path="url(#clip770)" d="M1780.55 1542.97 L1785.43 1542.97 L1785.43 1548.85 L1780.55 1548.85 L1780.55 1542.97 Z" fill="#000000" fill-rule="evenodd" fill-opacity="1"></path><path clip-path="url(#clip770)" d="M1795.66 1514.29 L1814.02 1514.29 L1814.02 1518.22 L1799.94 1518.22 L1799.94 1526.7 Q1800.96 1526.35 1801.98 1526.19 Q1803 1526 1804.02 1526 Q1809.8 1526 1813.18 1529.17 Q1816.56 1532.34 1816.56 1537.76 Q1816.56 1543.34 1813.09 1546.44 Q1809.62 1549.52 1803.3 1549.52 Q1801.12 1549.52 1798.86 1549.15 Q1796.61 1548.78 1794.2 1548.04 L1794.2 1543.34 Q1796.29 1544.47 1798.51 1545.03 Q1800.73 1545.58 1803.21 1545.58 Q1807.21 1545.58 1809.55 1543.48 Q1811.89 1541.37 1811.89 1537.76 Q1811.89 1534.15 1809.55 1532.04 Q1807.21 1529.94 1803.21 1529.94 Q1801.33 1529.94 1799.46 1530.35 Q1797.61 1530.77 1795.66 1531.65 L1795.66 1514.29 Z" fill="#000000" fill-rule="evenodd" fill-opacity="1"></path><path clip-path="url(#clip770)" d="M2258.81 1544.91 L2266.45 1544.91 L2266.45 1518.55 L2258.14 1520.21 L2258.14 1515.95 L2266.4 1514.29 L2271.08 1514.29 L2271.08 1544.91 L2278.72 1544.91 L2278.72 1548.85 L2258.81 1548.85 L2258.81 1544.91 Z" fill="#000000" fill-rule="evenodd" fill-opacity="1"></path><path clip-path="url(#clip770)" d="M2288.16 1542.97 L2293.05 1542.97 L2293.05 1548.85 L2288.16 1548.85 L2288.16 1542.97 Z" fill="#000000" fill-rule="evenodd" fill-opacity="1"></path><path clip-path="url(#clip770)" d="M2313.23 1517.37 Q2309.62 1517.37 2307.79 1520.93 Q2305.99 1524.47 2305.99 1531.6 Q2305.99 1538.71 2307.79 1542.27 Q2309.62 1545.82 2313.23 1545.82 Q2316.87 1545.82 2318.67 1542.27 Q2320.5 1538.71 2320.5 1531.6 Q2320.5 1524.47 2318.67 1520.93 Q2316.87 1517.37 2313.23 1517.37 M2313.23 1513.66 Q2319.04 1513.66 2322.1 1518.27 Q2325.18 1522.85 2325.18 1531.6 Q2325.18 1540.33 2322.1 1544.94 Q2319.04 1549.52 2313.23 1549.52 Q2307.42 1549.52 2304.34 1544.94 Q2301.29 1540.33 2301.29 1531.6 Q2301.29 1522.85 2304.34 1518.27 Q2307.42 1513.66 2313.23 1513.66 Z" fill="#000000" fill-rule="evenodd" fill-opacity="1"></path><polyline clip-path="url(#clip772)" style="stroke:#000000; stroke-linecap:butt; stroke-linejoin:round; stroke-width:2; stroke-opacity:0.1; fill:none" points="
  193.936,1456.22 2352.76,1456.22 
  "></polyline>
<polyline clip-path="url(#clip772)" style="stroke:#000000; stroke-linecap:butt; stroke-linejoin:round; stroke-width:2; stroke-opacity:0.1; fill:none" points="
  193.936,1254.32 2352.76,1254.32 
  "></polyline>
<polyline clip-path="url(#clip772)" style="stroke:#000000; stroke-linecap:butt; stroke-linejoin:round; stroke-width:2; stroke-opacity:0.1; fill:none" points="
  193.936,1052.42 2352.76,1052.42 
  "></polyline>
<polyline clip-path="url(#clip772)" style="stroke:#000000; stroke-linecap:butt; stroke-linejoin:round; stroke-width:2; stroke-opacity:0.1; fill:none" points="
  193.936,850.513 2352.76,850.513 
  "></polyline>
<polyline clip-path="url(#clip772)" style="stroke:#000000; stroke-linecap:butt; stroke-linejoin:round; stroke-width:2; stroke-opacity:0.1; fill:none" points="
  193.936,648.609 2352.76,648.609 
  "></polyline>
<polyline clip-path="url(#clip772)" style="stroke:#000000; stroke-linecap:butt; stroke-linejoin:round; stroke-width:2; stroke-opacity:0.1; fill:none" points="
  193.936,446.705 2352.76,446.705 
  "></polyline>
<polyline clip-path="url(#clip772)" style="stroke:#000000; stroke-linecap:butt; stroke-linejoin:round; stroke-width:2; stroke-opacity:0.1; fill:none" points="
  193.936,244.802 2352.76,244.802 
  "></polyline>
<polyline clip-path="url(#clip770)" style="stroke:#000000; stroke-linecap:butt; stroke-linejoin:round; stroke-width:4; stroke-opacity:1; fill:none" points="
  193.936,1486.45 193.936,47.2441 
  "></polyline>
<polyline clip-path="url(#clip770)" style="stroke:#000000; stroke-linecap:butt; stroke-linejoin:round; stroke-width:4; stroke-opacity:1; fill:none" points="
  193.936,1456.22 212.834,1456.22 
  "></polyline>
<polyline clip-path="url(#clip770)" style="stroke:#000000; stroke-linecap:butt; stroke-linejoin:round; stroke-width:4; stroke-opacity:1; fill:none" points="
  193.936,1254.32 212.834,1254.32 
  "></polyline>
<polyline clip-path="url(#clip770)" style="stroke:#000000; stroke-linecap:butt; stroke-linejoin:round; stroke-width:4; stroke-opacity:1; fill:none" points="
  193.936,1052.42 212.834,1052.42 
  "></polyline>
<polyline clip-path="url(#clip770)" style="stroke:#000000; stroke-linecap:butt; stroke-linejoin:round; stroke-width:4; stroke-opacity:1; fill:none" points="
  193.936,850.513 212.834,850.513 
  "></polyline>
<polyline clip-path="url(#clip770)" style="stroke:#000000; stroke-linecap:butt; stroke-linejoin:round; stroke-width:4; stroke-opacity:1; fill:none" points="
  193.936,648.609 212.834,648.609 
  "></polyline>
<polyline clip-path="url(#clip770)" style="stroke:#000000; stroke-linecap:butt; stroke-linejoin:round; stroke-width:4; stroke-opacity:1; fill:none" points="
  193.936,446.705 212.834,446.705 
  "></polyline>
<polyline clip-path="url(#clip770)" style="stroke:#000000; stroke-linecap:butt; stroke-linejoin:round; stroke-width:4; stroke-opacity:1; fill:none" points="
  193.936,244.802 212.834,244.802 
  "></polyline>
<path clip-path="url(#clip770)" d="M51.9875 1456.68 L81.6633 1456.68 L81.6633 1460.61 L51.9875 1460.61 L51.9875 1456.68 Z" fill="#000000" fill-rule="evenodd" fill-opacity="1"></path><path clip-path="url(#clip770)" d="M92.566 1469.57 L100.205 1469.57 L100.205 1443.2 L91.8947 1444.87 L91.8947 1440.61 L100.159 1438.94 L104.834 1438.94 L104.834 1469.57 L112.473 1469.57 L112.473 1473.5 L92.566 1473.5 L92.566 1469.57 Z" fill="#000000" fill-rule="evenodd" fill-opacity="1"></path><path clip-path="url(#clip770)" d="M121.918 1467.62 L126.802 1467.62 L126.802 1473.5 L121.918 1473.5 L121.918 1467.62 Z" fill="#000000" fill-rule="evenodd" fill-opacity="1"></path><path clip-path="url(#clip770)" d="M137.033 1438.94 L155.39 1438.94 L155.39 1442.88 L141.316 1442.88 L141.316 1451.35 Q142.334 1451 143.353 1450.84 Q144.371 1450.66 145.39 1450.66 Q151.177 1450.66 154.556 1453.83 Q157.936 1457 157.936 1462.42 Q157.936 1467.99 154.464 1471.1 Q150.992 1474.18 144.672 1474.18 Q142.496 1474.18 140.228 1473.8 Q137.982 1473.43 135.575 1472.69 L135.575 1467.99 Q137.658 1469.13 139.881 1469.68 Q142.103 1470.24 144.58 1470.24 Q148.584 1470.24 150.922 1468.13 Q153.26 1466.03 153.26 1462.42 Q153.26 1458.8 150.922 1456.7 Q148.584 1454.59 144.58 1454.59 Q142.705 1454.59 140.83 1455.01 Q138.978 1455.43 137.033 1456.3 L137.033 1438.94 Z" fill="#000000" fill-rule="evenodd" fill-opacity="1"></path><path clip-path="url(#clip770)" d="M50.9921 1254.77 L80.6679 1254.77 L80.6679 1258.71 L50.9921 1258.71 L50.9921 1254.77 Z" fill="#000000" fill-rule="evenodd" fill-opacity="1"></path><path clip-path="url(#clip770)" d="M91.5706 1267.66 L99.2095 1267.66 L99.2095 1241.3 L90.8993 1242.97 L90.8993 1238.71 L99.1632 1237.04 L103.839 1237.04 L103.839 1267.66 L111.478 1267.66 L111.478 1271.6 L91.5706 1271.6 L91.5706 1267.66 Z" fill="#000000" fill-rule="evenodd" fill-opacity="1"></path><path clip-path="url(#clip770)" d="M120.922 1265.72 L125.807 1265.72 L125.807 1271.6 L120.922 1271.6 L120.922 1265.72 Z" fill="#000000" fill-rule="evenodd" fill-opacity="1"></path><path clip-path="url(#clip770)" d="M145.992 1240.12 Q142.381 1240.12 140.552 1243.68 Q138.746 1247.23 138.746 1254.35 Q138.746 1261.46 140.552 1265.03 Q142.381 1268.57 145.992 1268.57 Q149.626 1268.57 151.431 1265.03 Q153.26 1261.46 153.26 1254.35 Q153.26 1247.23 151.431 1243.68 Q149.626 1240.12 145.992 1240.12 M145.992 1236.42 Q151.802 1236.42 154.857 1241.02 Q157.936 1245.6 157.936 1254.35 Q157.936 1263.08 154.857 1267.69 Q151.802 1272.27 145.992 1272.27 Q140.181 1272.27 137.103 1267.69 Q134.047 1263.08 134.047 1254.35 Q134.047 1245.6 137.103 1241.02 Q140.181 1236.42 145.992 1236.42 Z" fill="#000000" fill-rule="evenodd" fill-opacity="1"></path><path clip-path="url(#clip770)" d="M51.9875 1052.87 L81.6633 1052.87 L81.6633 1056.8 L51.9875 1056.8 L51.9875 1052.87 Z" fill="#000000" fill-rule="evenodd" fill-opacity="1"></path><path clip-path="url(#clip770)" d="M101.756 1038.22 Q98.1447 1038.22 96.316 1041.78 Q94.5104 1045.32 94.5104 1052.45 Q94.5104 1059.56 96.316 1063.12 Q98.1447 1066.66 101.756 1066.66 Q105.39 1066.66 107.196 1063.12 Q109.024 1059.56 109.024 1052.45 Q109.024 1045.32 107.196 1041.78 Q105.39 1038.22 101.756 1038.22 M101.756 1034.51 Q107.566 1034.51 110.621 1039.12 Q113.7 1043.7 113.7 1052.45 Q113.7 1061.18 110.621 1065.78 Q107.566 1070.37 101.756 1070.37 Q95.9456 1070.37 92.8669 1065.78 Q89.8114 1061.18 89.8114 1052.45 Q89.8114 1043.7 92.8669 1039.12 Q95.9456 1034.51 101.756 1034.51 Z" fill="#000000" fill-rule="evenodd" fill-opacity="1"></path><path clip-path="url(#clip770)" d="M121.918 1063.82 L126.802 1063.82 L126.802 1069.7 L121.918 1069.7 L121.918 1063.82 Z" fill="#000000" fill-rule="evenodd" fill-opacity="1"></path><path clip-path="url(#clip770)" d="M137.033 1035.14 L155.39 1035.14 L155.39 1039.07 L141.316 1039.07 L141.316 1047.54 Q142.334 1047.2 143.353 1047.03 Q144.371 1046.85 145.39 1046.85 Q151.177 1046.85 154.556 1050.02 Q157.936 1053.19 157.936 1058.61 Q157.936 1064.19 154.464 1067.29 Q150.992 1070.37 144.672 1070.37 Q142.496 1070.37 140.228 1070 Q137.982 1069.63 135.575 1068.89 L135.575 1064.19 Q137.658 1065.32 139.881 1065.88 Q142.103 1066.43 144.58 1066.43 Q148.584 1066.43 150.922 1064.33 Q153.26 1062.22 153.26 1058.61 Q153.26 1055 150.922 1052.89 Q148.584 1050.78 144.58 1050.78 Q142.705 1050.78 140.83 1051.2 Q138.978 1051.62 137.033 1052.5 L137.033 1035.14 Z" fill="#000000" fill-rule="evenodd" fill-opacity="1"></path><path clip-path="url(#clip770)" d="M100.76 836.311 Q97.1493 836.311 95.3206 839.876 Q93.515 843.418 93.515 850.547 Q93.515 857.654 95.3206 861.219 Q97.1493 864.76 100.76 864.76 Q104.395 864.76 106.2 861.219 Q108.029 857.654 108.029 850.547 Q108.029 843.418 106.2 839.876 Q104.395 836.311 100.76 836.311 M100.76 832.608 Q106.571 832.608 109.626 837.214 Q112.705 841.798 112.705 850.547 Q112.705 859.274 109.626 863.881 Q106.571 868.464 100.76 868.464 Q94.9502 868.464 91.8715 863.881 Q88.816 859.274 88.816 850.547 Q88.816 841.798 91.8715 837.214 Q94.9502 832.608 100.76 832.608 Z" fill="#000000" fill-rule="evenodd" fill-opacity="1"></path><path clip-path="url(#clip770)" d="M120.922 861.913 L125.807 861.913 L125.807 867.793 L120.922 867.793 L120.922 861.913 Z" fill="#000000" fill-rule="evenodd" fill-opacity="1"></path><path clip-path="url(#clip770)" d="M145.992 836.311 Q142.381 836.311 140.552 839.876 Q138.746 843.418 138.746 850.547 Q138.746 857.654 140.552 861.219 Q142.381 864.76 145.992 864.76 Q149.626 864.76 151.431 861.219 Q153.26 857.654 153.26 850.547 Q153.26 843.418 151.431 839.876 Q149.626 836.311 145.992 836.311 M145.992 832.608 Q151.802 832.608 154.857 837.214 Q157.936 841.798 157.936 850.547 Q157.936 859.274 154.857 863.881 Q151.802 868.464 145.992 868.464 Q140.181 868.464 137.103 863.881 Q134.047 859.274 134.047 850.547 Q134.047 841.798 137.103 837.214 Q140.181 832.608 145.992 832.608 Z" fill="#000000" fill-rule="evenodd" fill-opacity="1"></path><path clip-path="url(#clip770)" d="M101.756 634.408 Q98.1447 634.408 96.316 637.973 Q94.5104 641.514 94.5104 648.644 Q94.5104 655.75 96.316 659.315 Q98.1447 662.857 101.756 662.857 Q105.39 662.857 107.196 659.315 Q109.024 655.75 109.024 648.644 Q109.024 641.514 107.196 637.973 Q105.39 634.408 101.756 634.408 M101.756 630.704 Q107.566 630.704 110.621 635.311 Q113.7 639.894 113.7 648.644 Q113.7 657.371 110.621 661.977 Q107.566 666.56 101.756 666.56 Q95.9456 666.56 92.8669 661.977 Q89.8114 657.371 89.8114 648.644 Q89.8114 639.894 92.8669 635.311 Q95.9456 630.704 101.756 630.704 Z" fill="#000000" fill-rule="evenodd" fill-opacity="1"></path><path clip-path="url(#clip770)" d="M121.918 660.009 L126.802 660.009 L126.802 665.889 L121.918 665.889 L121.918 660.009 Z" fill="#000000" fill-rule="evenodd" fill-opacity="1"></path><path clip-path="url(#clip770)" d="M137.033 631.329 L155.39 631.329 L155.39 635.264 L141.316 635.264 L141.316 643.736 Q142.334 643.389 143.353 643.227 Q144.371 643.042 145.39 643.042 Q151.177 643.042 154.556 646.213 Q157.936 649.385 157.936 654.801 Q157.936 660.38 154.464 663.482 Q150.992 666.56 144.672 666.56 Q142.496 666.56 140.228 666.19 Q137.982 665.82 135.575 665.079 L135.575 660.38 Q137.658 661.514 139.881 662.07 Q142.103 662.625 144.58 662.625 Q148.584 662.625 150.922 660.519 Q153.26 658.412 153.26 654.801 Q153.26 651.19 150.922 649.084 Q148.584 646.977 144.58 646.977 Q142.705 646.977 140.83 647.394 Q138.978 647.81 137.033 648.69 L137.033 631.329 Z" fill="#000000" fill-rule="evenodd" fill-opacity="1"></path><path clip-path="url(#clip770)" d="M91.5706 460.05 L99.2095 460.05 L99.2095 433.685 L90.8993 435.351 L90.8993 431.092 L99.1632 429.425 L103.839 429.425 L103.839 460.05 L111.478 460.05 L111.478 463.985 L91.5706 463.985 L91.5706 460.05 Z" fill="#000000" fill-rule="evenodd" fill-opacity="1"></path><path clip-path="url(#clip770)" d="M120.922 458.106 L125.807 458.106 L125.807 463.985 L120.922 463.985 L120.922 458.106 Z" fill="#000000" fill-rule="evenodd" fill-opacity="1"></path><path clip-path="url(#clip770)" d="M145.992 432.504 Q142.381 432.504 140.552 436.069 Q138.746 439.611 138.746 446.74 Q138.746 453.847 140.552 457.411 Q142.381 460.953 145.992 460.953 Q149.626 460.953 151.431 457.411 Q153.26 453.847 153.26 446.74 Q153.26 439.611 151.431 436.069 Q149.626 432.504 145.992 432.504 M145.992 428.8 Q151.802 428.8 154.857 433.407 Q157.936 437.99 157.936 446.74 Q157.936 455.467 154.857 460.073 Q151.802 464.657 145.992 464.657 Q140.181 464.657 137.103 460.073 Q134.047 455.467 134.047 446.74 Q134.047 437.99 137.103 433.407 Q140.181 428.8 145.992 428.8 Z" fill="#000000" fill-rule="evenodd" fill-opacity="1"></path><path clip-path="url(#clip770)" d="M92.566 258.147 L100.205 258.147 L100.205 231.781 L91.8947 233.448 L91.8947 229.188 L100.159 227.522 L104.834 227.522 L104.834 258.147 L112.473 258.147 L112.473 262.082 L92.566 262.082 L92.566 258.147 Z" fill="#000000" fill-rule="evenodd" fill-opacity="1"></path><path clip-path="url(#clip770)" d="M121.918 256.202 L126.802 256.202 L126.802 262.082 L121.918 262.082 L121.918 256.202 Z" fill="#000000" fill-rule="evenodd" fill-opacity="1"></path><path clip-path="url(#clip770)" d="M137.033 227.522 L155.39 227.522 L155.39 231.457 L141.316 231.457 L141.316 239.929 Q142.334 239.582 143.353 239.42 Q144.371 239.235 145.39 239.235 Q151.177 239.235 154.556 242.406 Q157.936 245.577 157.936 250.994 Q157.936 256.572 154.464 259.674 Q150.992 262.753 144.672 262.753 Q142.496 262.753 140.228 262.383 Q137.982 262.012 135.575 261.272 L135.575 256.572 Q137.658 257.707 139.881 258.262 Q142.103 258.818 144.58 258.818 Q148.584 258.818 150.922 256.711 Q153.26 254.605 153.26 250.994 Q153.26 247.383 150.922 245.276 Q148.584 243.17 144.58 243.17 Q142.705 243.17 140.83 243.586 Q138.978 244.003 137.033 244.883 L137.033 227.522 Z" fill="#000000" fill-rule="evenodd" fill-opacity="1"></path><polyline clip-path="url(#clip772)" style="stroke:#009af9; stroke-linecap:butt; stroke-linejoin:round; stroke-width:4; stroke-opacity:1; fill:none" points="
  255.035,1222.79 257.073,1267.82 259.112,1306.76 261.151,1340.04 263.189,1368.04 265.228,1391.14 267.267,1409.7 269.305,1424.06 271.344,1434.54 273.383,1441.45 
  275.421,1445.08 277.46,1445.72 279.499,1443.61 281.537,1439.01 283.576,1432.17 285.615,1423.29 287.653,1412.59 289.692,1400.27 291.731,1386.51 293.769,1371.5 
  295.808,1355.39 297.847,1338.36 299.885,1320.53 301.924,1302.05 303.963,1283.05 306.001,1263.64 308.04,1243.95 310.079,1224.06 312.117,1204.09 314.156,1184.11 
  316.195,1164.22 318.233,1144.48 320.272,1124.98 322.31,1105.76 324.349,1086.9 326.388,1068.45 328.426,1050.44 330.465,1032.94 332.504,1015.97 334.542,999.574 
  336.581,983.778 338.62,968.611 340.658,954.095 342.697,940.249 344.736,927.091 346.774,914.633 348.813,902.885 350.852,891.855 352.89,881.547 354.929,871.965 
  356.968,863.108 359.006,854.974 361.045,847.559 363.084,840.857 365.122,834.862 367.161,829.563 369.2,824.95 371.238,821.012 373.277,817.735 375.316,815.105 
  377.354,813.106 379.393,811.722 381.432,810.936 383.47,810.73 385.509,811.086 387.548,811.984 389.586,813.405 391.625,815.329 393.664,817.734 395.702,820.601 
  397.741,823.907 399.78,827.633 401.818,831.756 403.857,836.255 405.896,841.108 407.934,846.294 409.973,851.791 412.012,857.579 414.05,863.635 416.089,869.939 
  418.128,876.47 420.166,883.208 422.205,890.131 424.244,897.22 426.282,904.456 428.321,911.818 430.36,919.288 432.398,926.848 434.437,934.478 436.476,942.162 
  438.514,949.882 440.553,957.62 442.592,965.362 444.63,973.09 446.669,980.79 448.707,988.446 450.746,996.043 452.785,1003.57 454.823,1011.01 456.862,1018.35 
  458.901,1025.58 460.939,1032.69 462.978,1039.66 465.017,1046.49 467.055,1053.17 469.094,1059.68 471.133,1066.01 473.171,1072.16 475.21,1078.12 477.249,1083.88 
  479.287,1089.44 481.326,1094.78 483.365,1099.9 485.403,1104.8 487.442,1109.47 489.481,1113.9 491.519,1118.09 493.558,1122.04 495.597,1125.74 497.635,1129.19 
  499.674,1132.39 501.713,1135.33 503.751,1138.01 505.79,1140.44 507.829,1142.61 509.867,1144.52 511.906,1146.16 513.945,1147.55 515.983,1148.68 518.022,1149.54 
  520.061,1150.15 522.099,1150.51 524.138,1150.6 526.177,1150.45 528.215,1150.04 530.254,1149.39 532.293,1148.49 534.331,1147.35 536.37,1145.97 538.409,1144.35 
  540.447,1142.5 542.486,1140.42 544.525,1138.12 546.563,1135.6 548.602,1132.87 550.641,1129.92 552.679,1126.77 554.718,1123.42 556.757,1119.87 558.795,1116.13 
  560.834,1112.21 562.873,1108.1 564.911,1103.83 566.95,1099.38 568.989,1094.78 571.027,1090.01 573.066,1085.1 575.104,1080.04 577.143,1074.84 579.182,1069.5 
  581.22,1064.04 583.259,1058.46 585.298,1052.77 587.336,1046.97 589.375,1041.06 591.414,1035.06 593.452,1028.96 595.491,1022.79 597.53,1016.53 599.568,1010.2 
  601.607,1003.81 603.646,997.357 605.684,990.85 607.723,984.294 609.762,977.695 611.8,971.06 613.839,964.395 615.878,957.703 617.916,950.993 619.955,944.268 
  621.994,937.534 624.032,930.797 626.071,924.062 628.11,917.334 630.148,910.618 632.187,903.919 634.226,897.242 636.264,890.592 638.303,883.974 640.342,877.392 
  642.38,870.85 644.419,864.353 646.458,857.906 648.496,851.512 650.535,845.175 652.574,838.9 654.612,832.69 656.651,826.548 658.69,820.48 660.728,814.487 
  662.767,808.573 664.806,802.742 666.844,796.996 668.883,791.339 670.922,785.773 672.96,780.301 674.999,774.926 677.038,769.65 679.076,764.476 681.115,759.405 
  683.154,754.441 685.192,749.585 687.231,744.838 689.27,740.203 691.308,735.681 693.347,731.275 695.385,726.984 697.424,722.812 699.463,718.758 701.501,714.824 
  703.54,711.011 705.579,707.32 707.617,703.751 709.656,700.306 711.695,696.984 713.733,693.787 715.772,690.715 717.811,687.767 719.849,684.945 721.888,682.248 
  723.927,679.676 725.965,677.229 728.004,674.907 730.043,672.71 732.081,670.636 734.12,668.687 736.159,666.861 738.197,665.157 740.236,663.575 742.275,662.114 
  744.313,660.774 746.352,659.553 748.391,658.451 750.429,657.466 752.468,656.597 754.507,655.843 756.545,655.203 758.584,654.676 760.623,654.259 762.661,653.953 
  764.7,653.755 766.739,653.664 768.777,653.678 770.816,653.795 772.855,654.015 774.893,654.335 776.932,654.754 778.971,655.27 781.009,655.881 783.048,656.585 
  785.087,657.38 787.125,658.265 789.164,659.237 791.203,660.296 793.241,661.438 795.28,662.661 797.319,663.965 799.357,665.346 801.396,666.802 803.435,668.333 
  805.473,669.935 807.512,671.606 809.551,673.345 811.589,675.149 813.628,677.017 815.667,678.945 817.705,680.933 819.744,682.977 821.782,685.077 823.821,687.229 
  825.86,689.431 827.898,691.683 829.937,693.981 831.976,696.323 834.014,698.707 836.053,701.132 838.092,703.596 840.13,706.095 842.169,708.629 844.208,711.195 
  846.246,713.791 848.285,716.415 850.324,719.066 852.362,721.742 854.401,724.439 856.44,727.158 858.478,729.895 860.517,732.649 862.556,735.419 864.594,738.201 
  866.633,740.996 868.672,743.8 870.71,746.612 872.749,749.431 874.788,752.254 876.826,755.081 878.865,757.909 880.904,760.737 882.942,763.564 884.981,766.388 
  887.02,769.207 889.058,772.02 891.097,774.826 893.136,777.623 895.174,780.41 897.213,783.185 899.252,785.948 901.29,788.697 903.329,791.43 905.368,794.148 
  907.406,796.848 909.445,799.529 911.484,802.19 913.522,804.831 915.561,807.449 917.6,810.045 919.638,812.618 921.677,815.165 923.716,817.687 925.754,820.183 
  927.793,822.651 929.832,825.091 931.87,827.503 933.909,829.885 935.948,832.236 937.986,834.557 940.025,836.847 942.064,839.104 944.102,841.328 946.141,843.52 
  948.179,845.677 950.218,847.801 952.257,849.889 954.295,851.943 956.334,853.961 958.373,855.944 960.411,857.89 962.45,859.799 964.489,861.672 966.527,863.508 
  968.566,865.307 970.605,867.068 972.643,868.792 974.682,870.478 976.721,872.126 978.759,873.736 980.798,875.308 982.837,876.841 984.875,878.337 986.914,879.794 
  988.953,881.214 990.991,882.595 993.03,883.938 995.069,885.242 997.107,886.509 999.146,887.739 1001.18,888.93 1003.22,890.084 1005.26,891.2 1007.3,892.279 
  1009.34,893.322 1011.38,894.327 1013.42,895.296 1015.46,896.228 1017.49,897.124 1019.53,897.985 1021.57,898.81 1023.61,899.599 1025.65,900.354 1027.69,901.074 
  1029.73,901.759 1031.76,902.411 1033.8,903.029 1035.84,903.613 1037.88,904.165 1039.92,904.684 1041.96,905.171 1044,905.626 1046.04,906.05 1048.07,906.442 
  1050.11,906.805 1052.15,907.137 1054.19,907.439 1056.23,907.712 1058.27,907.956 1060.31,908.171 1062.34,908.359 1064.38,908.519 1066.42,908.652 1068.46,908.758 
  1070.5,908.838 1072.54,908.892 1074.58,908.92 1076.62,908.924 1078.65,908.904 1080.69,908.859 1082.73,908.791 1084.77,908.7 1086.81,908.586 1088.85,908.45 
  1090.89,908.292 1092.92,908.113 1094.96,907.914 1097,907.694 1099.04,907.454 1101.08,907.194 1103.12,906.916 1105.16,906.618 1107.2,906.303 1109.23,905.97 
  1111.27,905.62 1113.31,905.252 1115.35,904.869 1117.39,904.469 1119.43,904.054 1121.47,903.623 1123.5,903.178 1125.54,902.718 1127.58,902.244 1129.62,901.756 
  1131.66,901.256 1133.7,900.742 1135.74,900.216 1137.77,899.678 1139.81,899.128 1141.85,898.567 1143.89,897.994 1145.93,897.411 1147.97,896.818 1150.01,896.214 
  1152.05,895.601 1154.08,894.978 1156.12,894.347 1158.16,893.707 1160.2,893.058 1162.24,892.401 1164.28,891.736 1166.32,891.064 1168.35,890.385 1170.39,889.698 
  1172.43,889.005 1174.47,888.306 1176.51,887.6 1178.55,886.888 1180.59,886.171 1182.63,885.448 1184.66,884.72 1186.7,883.987 1188.74,883.25 1190.78,882.507 
  1192.82,881.761 1194.86,881.01 1196.9,880.256 1198.93,879.497 1200.97,878.736 1203.01,877.971 1205.05,877.202 1207.09,876.431 1209.13,875.657 1211.17,874.88 
  1213.21,874.101 1215.24,873.319 1217.28,872.535 1219.32,871.75 1221.36,870.962 1223.4,870.172 1225.44,869.381 1227.48,868.588 1229.51,867.793 1231.55,866.997 
  1233.59,866.2 1235.63,865.402 1237.67,864.603 1239.71,863.803 1241.75,863.002 1243.79,862.2 1245.82,861.397 1247.86,860.593 1249.9,859.789 1251.94,858.985 
  1253.98,858.18 1256.02,857.374 1258.06,856.568 1260.09,855.762 1262.13,854.955 1264.17,854.148 1266.21,853.341 1268.25,852.533 1270.29,851.725 1272.33,850.917 
  1274.37,850.108 1276.4,849.3 1278.44,848.491 1280.48,847.682 1282.52,846.872 1284.56,846.062 1286.6,845.252 1288.64,844.442 1290.67,843.631 1292.71,842.82 
  1294.75,842.008 1296.79,841.196 1298.83,840.383 1300.87,839.569 1302.91,838.755 1304.95,837.94 1306.98,837.125 1309.02,836.308 1311.06,835.491 1313.1,834.672 
  1315.14,833.852 1317.18,833.031 1319.22,832.209 1321.25,831.385 1323.29,830.559 1325.33,829.732 1327.37,828.903 1329.41,828.072 1331.45,827.239 1333.49,826.404 
  1335.53,825.566 1337.56,824.726 1339.6,823.884 1341.64,823.038 1343.68,822.189 1345.72,821.338 1347.76,820.483 1349.8,819.624 1351.83,818.762 1353.87,817.895 
  1355.91,817.025 1357.95,816.15 1359.99,815.271 1362.03,814.387 1364.07,813.498 1366.11,812.604 1368.14,811.705 1370.18,810.8 1372.22,809.889 1374.26,808.971 
  1376.3,808.048 1378.34,807.117 1380.38,806.18 1382.41,805.235 1384.45,804.283 1386.49,803.323 1388.53,802.355 1390.57,801.378 1392.61,800.393 1394.65,799.399 
  1396.68,798.395 1398.72,797.381 1400.76,796.358 1402.8,795.324 1404.84,794.28 1406.88,793.224 1408.92,792.158 1410.96,791.079 1412.99,789.988 1415.03,788.885 
  1417.07,787.769 1419.11,786.639 1421.15,785.496 1423.19,784.339 1425.23,783.168 1427.26,781.982 1429.3,780.78 1431.34,779.563 1433.38,778.33 1435.42,777.08 
  1437.46,775.814 1439.5,774.53 1441.54,773.229 1443.57,771.909 1445.61,770.571 1447.65,769.213 1449.69,767.836 1451.73,766.44 1453.77,765.023 1455.81,763.585 
  1457.84,762.126 1459.88,760.645 1461.92,759.142 1463.96,757.616 1466,756.067 1468.04,754.495 1470.08,752.899 1472.12,751.278 1474.15,749.632 1476.19,747.961 
  1478.23,746.265 1480.27,744.542 1482.31,742.792 1484.35,741.015 1486.39,739.211 1488.42,737.379 1490.46,735.518 1492.5,733.628 1494.54,731.709 1496.58,729.76 
  1498.62,727.781 1500.66,725.771 1502.7,723.731 1504.73,721.659 1506.77,719.555 1508.81,717.419 1510.85,715.251 1512.89,713.049 1514.93,710.814 1516.97,708.546 
  1519,706.244 1521.04,703.907 1523.08,701.535 1525.12,699.129 1527.16,696.687 1529.2,694.21 1531.24,691.697 1533.28,689.148 1535.31,686.562 1537.35,683.94 
  1539.39,681.281 1541.43,678.585 1543.47,675.852 1545.51,673.081 1547.55,670.273 1549.58,667.427 1551.62,664.543 1553.66,661.621 1555.7,658.661 1557.74,655.663 
  1559.78,652.627 1561.82,649.553 1563.86,646.441 1565.89,643.29 1567.93,640.101 1569.97,636.875 1572.01,633.61 1574.05,630.307 1576.09,626.967 1578.13,623.589 
  1580.16,620.173 1582.2,616.72 1584.24,613.23 1586.28,609.704 1588.32,606.141 1590.36,602.542 1592.4,598.907 1594.44,595.236 1596.47,591.53 1598.51,587.79 
  1600.55,584.016 1602.59,580.208 1604.63,576.366 1606.67,572.492 1608.71,568.586 1610.74,564.648 1612.78,560.68 1614.82,556.681 1616.86,552.653 1618.9,548.595 
  1620.94,544.51 1622.98,540.398 1625.02,536.259 1627.05,532.095 1629.09,527.906 1631.13,523.693 1633.17,519.457 1635.21,515.2 1637.25,510.922 1639.29,506.624 
  1641.32,502.307 1643.36,497.973 1645.4,493.622 1647.44,489.257 1649.48,484.877 1651.52,480.485 1653.56,476.081 1655.59,471.667 1657.63,467.244 1659.67,462.814 
  1661.71,458.378 1663.75,453.938 1665.79,449.494 1667.83,445.049 1669.87,440.604 1671.9,436.161 1673.94,431.72 1675.98,427.285 1678.02,422.856 1680.06,418.435 
  1682.1,414.024 1684.14,409.624 1686.17,405.238 1688.21,400.867 1690.25,396.513 1692.29,392.177 1694.33,387.863 1696.37,383.571 1698.41,379.303 1700.45,375.062 
  1702.48,370.849 1704.52,366.666 1706.56,362.515 1708.6,358.399 1710.64,354.319 1712.68,350.277 1714.72,346.276 1716.75,342.317 1718.79,338.402 1720.83,334.534 
  1722.87,330.714 1724.91,326.945 1726.95,323.229 1728.99,319.568 1731.03,315.963 1733.06,312.418 1735.1,308.934 1737.14,305.513 1739.18,302.157 1741.22,298.869 
  1743.26,295.65 1745.3,292.503 1747.33,289.429 1749.37,286.431 1751.41,283.511 1753.45,280.67 1755.49,277.912 1757.53,275.236 1759.57,272.647 1761.61,270.145 
  1763.64,267.733 1765.68,265.412 1767.72,263.185 1769.76,261.052 1771.8,259.016 1773.84,257.079 1775.88,255.243 1777.91,253.508 1779.95,251.877 1781.99,250.352 
  1784.03,248.933 1786.07,247.623 1788.11,246.422 1790.15,245.332 1792.19,244.356 1794.22,243.493 1796.26,242.745 1798.3,242.113 1800.34,241.599 1802.38,241.203 
  1804.42,240.926 1806.46,240.77 1808.49,240.735 1810.53,240.822 1812.57,241.031 1814.61,241.364 1816.65,241.82 1818.69,242.401 1820.73,243.106 1822.77,243.936 
  1824.8,244.891 1826.84,245.971 1828.88,247.177 1830.92,248.507 1832.96,249.963 1835,251.543 1837.04,253.248 1839.07,255.076 1841.11,257.028 1843.15,259.102 
  1845.19,261.298 1847.23,263.615 1849.27,266.053 1851.31,268.608 1853.35,271.282 1855.38,274.072 1857.42,276.977 1859.46,279.995 1861.5,283.124 1863.54,286.364 
  1865.58,289.712 1867.62,293.165 1869.65,296.723 1871.69,300.382 1873.73,304.14 1875.77,307.995 1877.81,311.944 1879.85,315.984 1881.89,320.113 1883.92,324.328 
  1885.96,328.624 1888,333.001 1890.04,337.452 1892.08,341.977 1894.12,346.57 1896.16,351.229 1898.2,355.948 1900.23,360.726 1902.27,365.556 1904.31,370.436 
  1906.35,375.361 1908.39,380.326 1910.43,385.328 1912.47,390.361 1914.5,395.421 1916.54,400.503 1918.58,405.602 1920.62,410.713 1922.66,415.831 1924.7,420.952 
  1926.74,426.068 1928.78,431.177 1930.81,436.271 1932.85,441.345 1934.89,446.394 1936.93,451.412 1938.97,456.393 1941.01,461.333 1943.05,466.223 1945.08,471.06 
  1947.12,475.837 1949.16,480.547 1951.2,485.185 1953.24,489.746 1955.28,494.222 1957.32,498.608 1959.36,502.897 1961.39,507.084 1963.43,511.162 1965.47,515.125 
  1967.51,518.967 1969.55,522.683 1971.59,526.265 1973.63,529.709 1975.66,533.007 1977.7,536.155 1979.74,539.146 1981.78,541.974 1983.82,544.634 1985.86,547.119 
  1987.9,549.426 1989.94,551.547 1991.97,553.478 1994.01,555.213 1996.05,556.748 1998.09,558.077 2000.13,559.196 2002.17,560.1 2004.21,560.784 2006.24,561.244 
  2008.28,561.476 2010.32,561.476 2012.36,561.241 2014.4,560.766 2016.44,560.049 2018.48,559.086 2020.52,557.875 2022.55,556.414 2024.59,554.699 2026.63,552.729 
  2028.67,550.503 2030.71,548.018 2032.75,545.274 2034.79,542.271 2036.82,539.007 2038.86,535.482 2040.9,531.698 2042.94,527.654 2044.98,523.352 2047.02,518.793 
  2049.06,513.978 2051.1,508.911 2053.13,503.594 2055.17,498.029 2057.21,492.221 2059.25,486.173 2061.29,479.889 2063.33,473.375 2065.37,466.636 2067.4,459.677 
  2069.44,452.506 2071.48,445.128 2073.52,437.55 2075.56,429.782 2077.6,421.83 2079.64,413.705 2081.68,405.414 2083.71,396.968 2085.75,388.377 2087.79,379.652 
  2089.83,370.804 2091.87,361.845 2093.91,352.788 2095.95,343.646 2097.98,334.431 2100.02,325.159 2102.06,315.842 2104.1,306.497 2106.14,297.139 2108.18,287.783 
  2110.22,278.447 2112.26,269.146 2114.29,259.899 2116.33,250.722 2118.37,241.635 2120.41,232.656 2122.45,223.804 2124.49,215.098 2126.53,206.558 2128.56,198.203 
  2130.6,190.056 2132.64,182.135 2134.68,174.461 2136.72,167.057 2138.76,159.943 2140.8,153.14 2142.83,146.67 2144.87,140.554 2146.91,134.814 2148.95,129.472 
  2150.99,124.548 2153.03,120.065 2155.07,116.043 2157.11,112.502 2159.14,109.465 2161.18,106.95 2163.22,104.977 2165.26,103.566 2167.3,102.735 2169.34,102.502 
  2171.38,102.884 2173.41,103.897 2175.45,105.558 2177.49,107.879 2179.53,110.875 2181.57,114.557 2183.61,118.935 2185.65,124.02 2187.69,129.818 2189.72,136.335 
  2191.76,143.576 2193.8,151.541 2195.84,160.232 2197.88,169.645 2199.92,179.776 2201.96,190.617 2203.99,202.159 2206.03,214.387 2208.07,227.287 2210.11,240.837 
  2212.15,255.016 2214.19,269.797 2216.23,285.148 2218.27,301.036 2220.3,317.422 2222.34,334.261 2224.38,351.505 2226.42,369.102 2228.46,386.991 2230.5,405.109 
  2232.54,423.386 2234.57,441.744 2236.61,460.101 2238.65,478.369 2240.69,496.448 2242.73,514.237 2244.77,531.622 2246.81,548.484 2248.85,564.695 2250.88,580.117 
  2252.92,594.604 2254.96,607.999 2257,620.137 2259.04,630.841 2261.08,639.924 2263.12,647.187 2265.15,652.419 2267.19,655.397 2269.23,655.886 2271.27,653.637 
  2273.31,648.387 2275.35,639.859 2277.39,627.761 2279.43,611.786 2281.46,591.609 2283.5,566.891 2285.54,537.273 2287.58,502.382 2289.62,461.821 2291.66,415.179 
  
  "></polyline>
<polyline clip-path="url(#clip772)" style="stroke:#e26f46; stroke-linecap:butt; stroke-linejoin:round; stroke-width:4; stroke-opacity:1; fill:none" points="
  255.035,1222.79 257.073,1216.59 259.112,1210.02 261.151,1203.1 263.189,1195.84 265.228,1188.26 267.267,1180.37 269.305,1172.21 271.344,1163.77 273.383,1155.09 
  275.421,1146.18 277.46,1137.07 279.499,1127.76 281.537,1118.28 283.576,1108.66 285.615,1098.9 287.653,1089.04 289.692,1079.08 291.731,1069.06 293.769,1059 
  295.808,1048.9 297.847,1038.8 299.885,1028.71 301.924,1018.65 303.963,1008.64 306.001,998.701 308.04,988.852 310.079,979.111 312.117,969.495 314.156,960.021 
  316.195,950.706 318.233,941.568 320.272,932.621 322.31,923.881 324.349,915.364 326.388,907.082 328.426,899.049 330.465,891.279 332.504,883.783 334.542,876.573 
  336.581,869.66 338.62,863.054 340.658,856.764 342.697,850.798 344.736,845.165 346.774,839.872 348.813,834.925 350.852,830.33 352.89,826.091 354.929,822.213 
  356.968,818.7 359.006,815.553 361.045,812.776 363.084,810.368 365.122,808.331 367.161,806.664 369.2,805.367 371.238,804.438 373.277,803.874 375.316,803.673 
  377.354,803.831 379.393,804.344 381.432,805.207 383.47,806.415 385.509,807.962 387.548,809.841 389.586,812.046 391.625,814.568 393.664,817.401 395.702,820.534 
  397.741,823.96 399.78,827.669 401.818,831.652 403.857,835.898 405.896,840.397 407.934,845.138 409.973,850.11 412.012,855.302 414.05,860.702 416.089,866.299 
  418.128,872.08 420.166,878.034 422.205,884.148 424.244,890.409 426.282,896.806 428.321,903.326 430.36,909.955 432.398,916.681 434.437,923.493 436.476,930.376 
  438.514,937.318 440.553,944.307 442.592,951.331 444.63,958.376 446.669,965.43 448.707,972.482 450.746,979.52 452.785,986.531 454.823,993.503 456.862,1000.43 
  458.901,1007.29 460.939,1014.08 462.978,1020.79 465.017,1027.4 467.055,1033.91 469.094,1040.31 471.133,1046.59 473.171,1052.73 475.21,1058.73 477.249,1064.58 
  479.287,1070.28 481.326,1075.8 483.365,1081.16 485.403,1086.33 487.442,1091.31 489.481,1096.1 491.519,1100.69 493.558,1105.07 495.597,1109.24 497.635,1113.19 
  499.674,1116.91 501.713,1120.41 503.751,1123.68 505.79,1126.72 507.829,1129.52 509.867,1132.07 511.906,1134.39 513.945,1136.45 515.983,1138.28 518.022,1139.85 
  520.061,1141.17 522.099,1142.24 524.138,1143.07 526.177,1143.64 528.215,1143.96 530.254,1144.03 532.293,1143.85 534.331,1143.43 536.37,1142.76 538.409,1141.84 
  540.447,1140.68 542.486,1139.29 544.525,1137.65 546.563,1135.79 548.602,1133.69 550.641,1131.36 552.679,1128.81 554.718,1126.05 556.757,1123.06 558.795,1119.87 
  560.834,1116.47 562.873,1112.86 564.911,1109.06 566.95,1105.07 568.989,1100.89 571.027,1096.53 573.066,1092 575.104,1087.29 577.143,1082.43 579.182,1077.4 
  581.22,1072.22 583.259,1066.9 585.298,1061.43 587.336,1055.83 589.375,1050.11 591.414,1044.26 593.452,1038.3 595.491,1032.23 597.53,1026.07 599.568,1019.8 
  601.607,1013.45 603.646,1007.01 605.684,1000.5 607.723,993.922 609.762,987.28 611.8,980.582 613.839,973.834 615.878,967.043 617.916,960.215 619.955,953.357 
  621.994,946.473 624.032,939.572 626.071,932.658 628.11,925.738 630.148,918.818 632.187,911.903 634.226,904.999 636.264,898.112 638.303,891.247 640.342,884.41 
  642.38,877.605 644.419,870.839 646.458,864.116 648.496,857.441 650.535,850.819 652.574,844.255 654.612,837.752 656.651,831.316 658.69,824.951 660.728,818.661 
  662.767,812.45 664.806,806.322 666.844,800.281 668.883,794.329 670.922,788.472 672.96,782.711 674.999,777.05 677.038,771.493 679.076,766.041 681.115,760.698 
  683.154,755.466 685.192,750.348 687.231,745.346 689.27,740.462 691.308,735.698 693.347,731.057 695.385,726.539 697.424,722.146 699.463,717.88 701.501,713.743 
  703.54,709.734 705.579,705.856 707.617,702.109 709.656,698.495 711.695,695.013 713.733,691.664 715.772,688.449 717.811,685.368 719.849,682.421 721.888,679.609 
  723.927,676.93 725.965,674.386 728.004,671.976 730.043,669.699 732.081,667.554 734.12,665.543 736.159,663.663 738.197,661.914 740.236,660.295 742.275,658.806 
  744.313,657.444 746.352,656.21 748.391,655.102 750.429,654.118 752.468,653.258 754.507,652.519 756.545,651.901 758.584,651.402 760.623,651.02 762.661,650.754 
  764.7,650.602 766.739,650.562 768.777,650.632 770.816,650.811 772.855,651.097 774.893,651.487 776.932,651.979 778.971,652.573 781.009,653.264 783.048,654.052 
  785.087,654.935 787.125,655.91 789.164,656.974 791.203,658.127 793.241,659.365 795.28,660.686 797.319,662.088 799.357,663.569 801.396,665.127 803.435,666.759 
  805.473,668.462 807.512,670.236 809.551,672.077 811.589,673.982 813.628,675.951 815.667,677.98 817.705,680.067 819.744,682.21 821.782,684.407 823.821,686.655 
  825.86,688.952 827.898,691.296 829.937,693.685 831.976,696.116 834.014,698.587 836.053,701.097 838.092,703.642 840.13,706.221 842.169,708.832 844.208,711.473 
  846.246,714.141 848.285,716.834 850.324,719.551 852.362,722.29 854.401,725.048 856.44,727.824 858.478,730.615 860.517,733.421 862.556,736.238 864.594,739.066 
  866.633,741.902 868.672,744.745 870.71,747.593 872.749,750.445 874.788,753.298 876.826,756.151 878.865,759.003 880.904,761.852 882.942,764.697 884.981,767.535 
  887.02,770.366 889.058,773.189 891.097,776.001 893.136,778.802 895.174,781.591 897.213,784.365 899.252,787.124 901.29,789.867 903.329,792.592 905.368,795.299 
  907.406,797.986 909.445,800.653 911.484,803.297 913.522,805.92 915.561,808.518 917.6,811.092 919.638,813.641 921.677,816.163 923.716,818.659 925.754,821.127 
  927.793,823.566 929.832,825.976 931.87,828.357 933.909,830.707 935.948,833.026 937.986,835.313 940.025,837.568 942.064,839.791 944.102,841.98 946.141,844.135 
  948.179,846.257 950.218,848.344 952.257,850.397 954.295,852.414 956.334,854.396 958.373,856.342 960.411,858.252 962.45,860.125 964.489,861.963 966.527,863.763 
  968.566,865.527 970.605,867.254 972.643,868.944 974.682,870.597 976.721,872.212 978.759,873.791 980.798,875.331 982.837,876.835 984.875,878.301 986.914,879.73 
  988.953,881.122 990.991,882.476 993.03,883.793 995.069,885.074 997.107,886.317 999.146,887.524 1001.18,888.694 1003.22,889.827 1005.26,890.925 1007.3,891.986 
  1009.34,893.011 1011.38,894 1013.42,894.954 1015.46,895.873 1017.49,896.757 1019.53,897.606 1021.57,898.421 1023.61,899.201 1025.65,899.948 1027.69,900.661 
  1029.73,901.34 1031.76,901.987 1033.8,902.601 1035.84,903.183 1037.88,903.733 1039.92,904.251 1041.96,904.739 1044,905.195 1046.04,905.621 1048.07,906.016 
  1050.11,906.382 1052.15,906.719 1054.19,907.026 1056.23,907.305 1058.27,907.556 1060.31,907.779 1062.34,907.974 1064.38,908.143 1066.42,908.285 1068.46,908.401 
  1070.5,908.491 1072.54,908.556 1074.58,908.596 1076.62,908.611 1078.65,908.602 1080.69,908.57 1082.73,908.514 1084.77,908.436 1086.81,908.335 1088.85,908.212 
  1090.89,908.067 1092.92,907.901 1094.96,907.715 1097,907.508 1099.04,907.281 1101.08,907.035 1103.12,906.77 1105.16,906.486 1107.2,906.184 1109.23,905.863 
  1111.27,905.526 1113.31,905.171 1115.35,904.799 1117.39,904.412 1119.43,904.008 1121.47,903.589 1123.5,903.155 1125.54,902.706 1127.58,902.242 1129.62,901.765 
  1131.66,901.274 1133.7,900.77 1135.74,900.253 1137.77,899.723 1139.81,899.181 1141.85,898.628 1143.89,898.063 1145.93,897.486 1147.97,896.899 1150.01,896.302 
  1152.05,895.694 1154.08,895.077 1156.12,894.45 1158.16,893.814 1160.2,893.169 1162.24,892.515 1164.28,891.853 1166.32,891.183 1168.35,890.506 1170.39,889.821 
  1172.43,889.129 1174.47,888.431 1176.51,887.725 1178.55,887.014 1180.59,886.296 1182.63,885.573 1184.66,884.844 1186.7,884.109 1188.74,883.37 1190.78,882.626 
  1192.82,881.877 1194.86,881.124 1196.9,880.367 1198.93,879.606 1200.97,878.841 1203.01,878.073 1205.05,877.301 1207.09,876.526 1209.13,875.748 1211.17,874.968 
  1213.21,874.184 1215.24,873.399 1217.28,872.611 1219.32,871.821 1221.36,871.029 1223.4,870.235 1225.44,869.439 1227.48,868.642 1229.51,867.844 1231.55,867.044 
  1233.59,866.243 1235.63,865.441 1237.67,864.638 1239.71,863.834 1241.75,863.03 1243.79,862.225 1245.82,861.419 1247.86,860.612 1249.9,859.806 1251.94,858.998 
  1253.98,858.191 1256.02,857.383 1258.06,856.575 1260.09,855.767 1262.13,854.959 1264.17,854.151 1266.21,853.342 1268.25,852.534 1270.29,851.725 1272.33,850.917 
  1274.37,850.109 1276.4,849.3 1278.44,848.492 1280.48,847.683 1282.52,846.875 1284.56,846.066 1286.6,845.258 1288.64,844.449 1290.67,843.64 1292.71,842.831 
  1294.75,842.021 1296.79,841.212 1298.83,840.402 1300.87,839.591 1302.91,838.78 1304.95,837.969 1306.98,837.156 1309.02,836.343 1311.06,835.53 1313.1,834.715 
  1315.14,833.899 1317.18,833.082 1319.22,832.263 1321.25,831.444 1323.29,830.622 1325.33,829.799 1327.37,828.974 1329.41,828.148 1331.45,827.319 1333.49,826.487 
  1335.53,825.654 1337.56,824.818 1339.6,823.979 1341.64,823.137 1343.68,822.291 1345.72,821.443 1347.76,820.591 1349.8,819.735 1351.83,818.876 1353.87,818.012 
  1355.91,817.144 1357.95,816.271 1359.99,815.393 1362.03,814.511 1364.07,813.623 1366.11,812.729 1368.14,811.83 1370.18,810.925 1372.22,810.013 1374.26,809.095 
  1376.3,808.17 1378.34,807.238 1380.38,806.299 1382.41,805.352 1384.45,804.397 1386.49,803.434 1388.53,802.462 1390.57,801.481 1392.61,800.491 1394.65,799.492 
  1396.68,798.483 1398.72,797.463 1400.76,796.433 1402.8,795.393 1404.84,794.341 1406.88,793.278 1408.92,792.203 1410.96,791.116 1412.99,790.016 1415.03,788.903 
  1417.07,787.777 1419.11,786.638 1421.15,785.484 1423.19,784.317 1425.23,783.134 1427.26,781.936 1429.3,780.723 1431.34,779.494 1433.38,778.248 1435.42,776.986 
  1437.46,775.707 1439.5,774.411 1441.54,773.096 1443.57,771.763 1445.61,770.412 1447.65,769.041 1449.69,767.651 1451.73,766.241 1453.77,764.81 1455.81,763.359 
  1457.84,761.887 1459.88,760.393 1461.92,758.877 1463.96,757.339 1466,755.778 1468.04,754.193 1470.08,752.585 1472.12,750.953 1474.15,749.296 1476.19,747.615 
  1478.23,745.908 1480.27,744.175 1482.31,742.416 1484.35,740.631 1486.39,738.818 1488.42,736.979 1490.46,735.111 1492.5,733.215 1494.54,731.291 1496.58,729.337 
  1498.62,727.355 1500.66,725.342 1502.7,723.3 1504.73,721.227 1506.77,719.123 1508.81,716.987 1510.85,714.821 1512.89,712.622 1514.93,710.391 1516.97,708.127 
  1519,705.831 1521.04,703.501 1523.08,701.137 1525.12,698.74 1527.16,696.309 1529.2,693.843 1531.24,691.342 1533.28,688.806 1535.31,686.236 1537.35,683.629 
  1539.39,680.987 1541.43,678.309 1543.47,675.595 1545.51,672.845 1547.55,670.058 1549.58,667.235 1551.62,664.374 1553.66,661.477 1555.7,658.543 1557.74,655.572 
  1559.78,652.563 1561.82,649.517 1563.86,646.434 1565.89,643.314 1567.93,640.156 1569.97,636.961 1572.01,633.729 1574.05,630.459 1576.09,627.153 1578.13,623.809 
  1580.16,620.428 1582.2,617.011 1584.24,613.556 1586.28,610.066 1588.32,606.539 1590.36,602.976 1592.4,599.377 1594.44,595.743 1596.47,592.074 1598.51,588.37 
  1600.55,584.632 1602.59,580.859 1604.63,577.053 1606.67,573.214 1608.71,569.342 1610.74,565.438 1612.78,561.502 1614.82,557.535 1616.86,553.538 1618.9,549.511 
  1620.94,545.455 1622.98,541.37 1625.02,537.257 1627.05,533.118 1629.09,528.952 1631.13,524.762 1633.17,520.546 1635.21,516.307 1637.25,512.046 1639.29,507.762 
  1641.32,503.458 1643.36,499.135 1645.4,494.792 1647.44,490.433 1649.48,486.057 1651.52,481.666 1653.56,477.26 1655.59,472.843 1657.63,468.413 1659.67,463.974 
  1661.71,459.526 1663.75,455.071 1665.79,450.609 1667.83,446.143 1669.87,441.675 1671.9,437.205 1673.94,432.735 1675.98,428.266 1678.02,423.801 1680.06,419.342 
  1682.1,414.888 1684.14,410.444 1686.17,406.01 1688.21,401.587 1690.25,397.179 1692.29,392.786 1694.33,388.411 1696.37,384.056 1698.41,379.722 1700.45,375.412 
  1702.48,371.127 1704.52,366.869 1706.56,362.642 1708.6,358.446 1710.64,354.283 1712.68,350.157 1714.72,346.069 1716.75,342.021 1718.79,338.015 1720.83,334.054 
  1722.87,330.14 1724.91,326.276 1726.95,322.462 1728.99,318.702 1731.03,314.998 1733.06,311.352 1735.1,307.767 1737.14,304.244 1739.18,300.786 1741.22,297.396 
  1743.26,294.076 1745.3,290.827 1747.33,287.652 1749.37,284.554 1751.41,281.535 1753.45,278.597 1755.49,275.742 1757.53,272.973 1759.57,270.292 1761.61,267.7 
  1763.64,265.201 1765.68,262.796 1767.72,260.487 1769.76,258.277 1771.8,256.168 1773.84,254.161 1775.88,252.259 1777.91,250.463 1779.95,248.776 1781.99,247.199 
  1784.03,245.734 1786.07,244.384 1788.11,243.149 1790.15,242.031 1792.19,241.032 1794.22,240.154 1796.26,239.397 1798.3,238.764 1800.34,238.255 1802.38,237.873 
  1804.42,237.617 1806.46,237.49 1808.49,237.492 1810.53,237.624 1812.57,237.887 1814.61,238.282 1816.65,238.809 1818.69,239.469 1820.73,240.263 1822.77,241.19 
  1824.8,242.252 1826.84,243.447 1828.88,244.777 1830.92,246.241 1832.96,247.84 1835,249.571 1837.04,251.437 1839.07,253.434 1841.11,255.564 1843.15,257.826 
  1845.19,260.217 1847.23,262.738 1849.27,265.387 1851.31,268.163 1853.35,271.064 1855.38,274.089 1857.42,277.236 1859.46,280.503 1861.5,283.888 1863.54,287.389 
  1865.58,291.004 1867.62,294.73 1869.65,298.565 1871.69,302.506 1873.73,306.55 1875.77,310.694 1877.81,314.934 1879.85,319.269 1881.89,323.694 1883.92,328.205 
  1885.96,332.799 1888,337.472 1890.04,342.22 1892.08,347.039 1894.12,351.925 1896.16,356.872 1898.2,361.878 1900.23,366.936 1902.27,372.042 1904.31,377.191 
  1906.35,382.379 1908.39,387.599 1910.43,392.847 1912.47,398.118 1914.5,403.405 1916.54,408.703 1918.58,414.006 1920.62,419.31 1922.66,424.606 1924.7,429.891 
  1926.74,435.157 1928.78,440.399 1930.81,445.61 1932.85,450.784 1934.89,455.915 1936.93,460.996 1938.97,466.022 1941.01,470.984 1943.05,475.878 1945.08,480.696 
  1947.12,485.433 1949.16,490.081 1951.2,494.634 1953.24,499.085 1955.28,503.428 1957.32,507.658 1959.36,511.766 1961.39,515.747 1963.43,519.594 1965.47,523.302 
  1967.51,526.863 1969.55,530.273 1971.59,533.525 1973.63,536.612 1975.66,539.53 1977.7,542.272 1979.74,544.833 1981.78,547.208 1983.82,549.391 1985.86,551.377 
  1987.9,553.162 1989.94,554.74 1991.97,556.107 1994.01,557.259 1996.05,558.191 1998.09,558.9 2000.13,559.381 2002.17,559.632 2004.21,559.649 2006.24,559.429 
  2008.28,558.969 2010.32,558.267 2012.36,557.322 2014.4,556.13 2016.44,554.69 2018.48,553.002 2020.52,551.064 2022.55,548.876 2024.59,546.437 2026.63,543.747 
  2028.67,540.807 2030.71,537.617 2032.75,534.179 2034.79,530.494 2036.82,526.563 2038.86,522.39 2040.9,517.975 2042.94,513.323 2044.98,508.437 2047.02,503.319 
  2049.06,497.975 2051.1,492.408 2053.13,486.624 2055.17,480.627 2057.21,474.423 2059.25,468.018 2061.29,461.418 2063.33,454.629 2065.37,447.659 2067.4,440.515 
  2069.44,433.205 2071.48,425.736 2073.52,418.117 2075.56,410.358 2077.6,402.465 2079.64,394.45 2081.68,386.322 2083.71,378.091 2085.75,369.766 2087.79,361.359 
  2089.83,352.88 2091.87,344.34 2093.91,335.75 2095.95,327.122 2097.98,318.468 2100.02,309.799 2102.06,301.128 2104.1,292.466 2106.14,283.826 2108.18,275.22 
  2110.22,266.66 2112.26,258.16 2114.29,249.732 2116.33,241.389 2118.37,233.143 2120.41,225.007 2122.45,216.993 2124.49,209.114 2126.53,201.384 2128.56,193.813 
  2130.6,186.415 2132.64,179.201 2134.68,172.184 2136.72,165.375 2138.76,158.786 2140.8,152.429 2142.83,146.313 2144.87,140.45 2146.91,134.851 2148.95,129.525 
  2150.99,124.482 2153.03,119.731 2155.07,115.282 2157.11,111.143 2159.14,107.322 2161.18,103.826 2163.22,100.662 2165.26,97.8372 2167.3,95.3572 2169.34,93.2273 
  2171.38,91.4524 2173.41,90.0366 2175.45,88.9834 2177.49,88.2959 2179.53,87.9763 2181.57,88.0261 2183.61,88.4462 2185.65,89.237 2187.69,90.3978 2189.72,91.9275 
  2191.76,93.8241 2193.8,96.0849 2195.84,98.7066 2197.88,101.685 2199.92,105.015 2201.96,108.692 2203.99,112.708 2206.03,117.056 2208.07,121.73 2210.11,126.719 
  2212.15,132.016 2214.19,137.609 2216.23,143.488 2218.27,149.641 2220.3,156.057 2222.34,162.722 2224.38,169.623 2226.42,176.745 2228.46,184.075 2230.5,191.597 
  2232.54,199.295 2234.57,207.152 2236.61,215.151 2238.65,223.276 2240.69,231.508 2242.73,239.828 2244.77,248.219 2246.81,256.661 2248.85,265.136 2250.88,273.622 
  2252.92,282.101 2254.96,290.552 2257,298.955 2259.04,307.291 2261.08,315.538 2263.12,323.676 2265.15,331.686 2267.19,339.546 2269.23,347.237 2271.27,354.738 
  2273.31,362.03 2275.35,369.094 2277.39,375.911 2279.43,382.461 2281.46,388.726 2283.5,394.689 2285.54,400.332 2287.58,405.639 2289.62,410.593 2291.66,415.179 
  
  "></polyline>
<path clip-path="url(#clip770)" d="
M1760.07 250.738 L2280.8 250.738 L2280.8 95.2176 L1760.07 95.2176  Z
  " fill="#ffffff" fill-rule="evenodd" fill-opacity="1"></path>
<polyline clip-path="url(#clip770)" style="stroke:#000000; stroke-linecap:butt; stroke-linejoin:round; stroke-width:4; stroke-opacity:1; fill:none" points="
  1760.07,250.738 2280.8,250.738 2280.8,95.2176 1760.07,95.2176 1760.07,250.738 
  "></polyline>
<polyline clip-path="url(#clip770)" style="stroke:#009af9; stroke-linecap:butt; stroke-linejoin:round; stroke-width:4; stroke-opacity:1; fill:none" points="
  1784.06,147.058 1927.98,147.058 
  "></polyline>
<path clip-path="url(#clip770)" d="M1951.97 138.412 L1956.23 138.412 L1956.23 164.338 L1951.97 164.338 L1951.97 138.412 M1951.97 128.319 L1956.23 128.319 L1956.23 133.713 L1951.97 133.713 L1951.97 128.319 Z" fill="#000000" fill-rule="evenodd" fill-opacity="1"></path><path clip-path="url(#clip770)" d="M1986.69 148.689 L1986.69 164.338 L1982.43 164.338 L1982.43 148.828 Q1982.43 145.148 1980.99 143.319 Q1979.56 141.49 1976.69 141.49 Q1973.24 141.49 1971.25 143.69 Q1969.26 145.889 1969.26 149.685 L1969.26 164.338 L1964.98 164.338 L1964.98 138.412 L1969.26 138.412 L1969.26 142.44 Q1970.79 140.102 1972.85 138.944 Q1974.93 137.787 1977.64 137.787 Q1982.11 137.787 1984.4 140.565 Q1986.69 143.319 1986.69 148.689 Z" fill="#000000" fill-rule="evenodd" fill-opacity="1"></path><path clip-path="url(#clip770)" d="M1999.4 131.051 L1999.4 138.412 L2008.17 138.412 L2008.17 141.722 L1999.4 141.722 L1999.4 155.796 Q1999.4 158.967 2000.25 159.87 Q2001.13 160.773 2003.79 160.773 L2008.17 160.773 L2008.17 164.338 L2003.79 164.338 Q1998.86 164.338 1996.99 162.509 Q1995.11 160.657 1995.11 155.796 L1995.11 141.722 L1991.99 141.722 L1991.99 138.412 L1995.11 138.412 L1995.11 131.051 L1999.4 131.051 Z" fill="#000000" fill-rule="evenodd" fill-opacity="1"></path><path clip-path="url(#clip770)" d="M2035.95 150.31 L2035.95 152.393 L2016.36 152.393 Q2016.64 156.791 2019 159.106 Q2021.39 161.398 2025.62 161.398 Q2028.08 161.398 2030.37 160.796 Q2032.68 160.194 2034.95 158.99 L2034.95 163.018 Q2032.66 163.99 2030.25 164.5 Q2027.85 165.009 2025.37 165.009 Q2019.17 165.009 2015.53 161.398 Q2011.92 157.787 2011.92 151.629 Q2011.92 145.264 2015.35 141.537 Q2018.79 137.787 2024.63 137.787 Q2029.86 137.787 2032.89 141.166 Q2035.95 144.523 2035.95 150.31 M2031.69 149.06 Q2031.64 145.565 2029.72 143.481 Q2027.82 141.398 2024.67 141.398 Q2021.11 141.398 2018.96 143.412 Q2016.83 145.426 2016.5 149.083 L2031.69 149.06 Z" fill="#000000" fill-rule="evenodd" fill-opacity="1"></path><path clip-path="url(#clip770)" d="M2057.96 142.393 Q2057.24 141.977 2056.39 141.791 Q2055.55 141.583 2054.54 141.583 Q2050.92 141.583 2048.98 143.944 Q2047.06 146.282 2047.06 150.68 L2047.06 164.338 L2042.78 164.338 L2042.78 138.412 L2047.06 138.412 L2047.06 142.44 Q2048.4 140.078 2050.55 138.944 Q2052.71 137.787 2055.79 137.787 Q2056.23 137.787 2056.76 137.856 Q2057.29 137.903 2057.94 138.018 L2057.96 142.393 Z" fill="#000000" fill-rule="evenodd" fill-opacity="1"></path><path clip-path="url(#clip770)" d="M2066.55 160.449 L2066.55 174.199 L2062.27 174.199 L2062.27 138.412 L2066.55 138.412 L2066.55 142.347 Q2067.89 140.032 2069.93 138.921 Q2071.99 137.787 2074.84 137.787 Q2079.56 137.787 2082.5 141.537 Q2085.46 145.287 2085.46 151.398 Q2085.46 157.509 2082.5 161.259 Q2079.56 165.009 2074.84 165.009 Q2071.99 165.009 2069.93 163.898 Q2067.89 162.763 2066.55 160.449 M2081.04 151.398 Q2081.04 146.699 2079.1 144.037 Q2077.17 141.352 2073.79 141.352 Q2070.41 141.352 2068.47 144.037 Q2066.55 146.699 2066.55 151.398 Q2066.55 156.097 2068.47 158.782 Q2070.41 161.444 2073.79 161.444 Q2077.17 161.444 2079.1 158.782 Q2081.04 156.097 2081.04 151.398 Z" fill="#000000" fill-rule="evenodd" fill-opacity="1"></path><path clip-path="url(#clip770)" d="M2102.57 141.398 Q2099.14 141.398 2097.15 144.083 Q2095.16 146.745 2095.16 151.398 Q2095.16 156.051 2097.13 158.736 Q2099.12 161.398 2102.57 161.398 Q2105.97 161.398 2107.96 158.713 Q2109.95 156.027 2109.95 151.398 Q2109.95 146.791 2107.96 144.106 Q2105.97 141.398 2102.57 141.398 M2102.57 137.787 Q2108.12 137.787 2111.29 141.398 Q2114.47 145.009 2114.47 151.398 Q2114.47 157.764 2111.29 161.398 Q2108.12 165.009 2102.57 165.009 Q2096.99 165.009 2093.82 161.398 Q2090.67 157.764 2090.67 151.398 Q2090.67 145.009 2093.82 141.398 Q2096.99 137.787 2102.57 137.787 Z" fill="#000000" fill-rule="evenodd" fill-opacity="1"></path><path clip-path="url(#clip770)" d="M2121.53 128.319 L2125.79 128.319 L2125.79 164.338 L2121.53 164.338 L2121.53 128.319 Z" fill="#000000" fill-rule="evenodd" fill-opacity="1"></path><path clip-path="url(#clip770)" d="M2146.48 151.305 Q2141.32 151.305 2139.33 152.486 Q2137.34 153.666 2137.34 156.514 Q2137.34 158.782 2138.82 160.125 Q2140.32 161.444 2142.89 161.444 Q2146.43 161.444 2148.56 158.944 Q2150.72 156.421 2150.72 152.254 L2150.72 151.305 L2146.48 151.305 M2154.97 149.546 L2154.97 164.338 L2150.72 164.338 L2150.72 160.402 Q2149.26 162.763 2147.08 163.898 Q2144.91 165.009 2141.76 165.009 Q2137.78 165.009 2135.41 162.787 Q2133.08 160.541 2133.08 156.791 Q2133.08 152.416 2135.99 150.194 Q2138.93 147.972 2144.74 147.972 L2150.72 147.972 L2150.72 147.555 Q2150.72 144.615 2148.77 143.018 Q2146.85 141.398 2143.35 141.398 Q2141.13 141.398 2139.03 141.93 Q2136.92 142.463 2134.97 143.527 L2134.97 139.592 Q2137.31 138.69 2139.51 138.25 Q2141.71 137.787 2143.79 137.787 Q2149.42 137.787 2152.2 140.703 Q2154.97 143.62 2154.97 149.546 Z" fill="#000000" fill-rule="evenodd" fill-opacity="1"></path><path clip-path="url(#clip770)" d="M2167.96 131.051 L2167.96 138.412 L2176.73 138.412 L2176.73 141.722 L2167.96 141.722 L2167.96 155.796 Q2167.96 158.967 2168.82 159.87 Q2169.7 160.773 2172.36 160.773 L2176.73 160.773 L2176.73 164.338 L2172.36 164.338 Q2167.43 164.338 2165.55 162.509 Q2163.68 160.657 2163.68 155.796 L2163.68 141.722 L2160.55 141.722 L2160.55 138.412 L2163.68 138.412 L2163.68 131.051 L2167.96 131.051 Z" fill="#000000" fill-rule="evenodd" fill-opacity="1"></path><path clip-path="url(#clip770)" d="M2204.51 150.31 L2204.51 152.393 L2184.93 152.393 Q2185.21 156.791 2187.57 159.106 Q2189.95 161.398 2194.19 161.398 Q2196.64 161.398 2198.93 160.796 Q2201.25 160.194 2203.52 158.99 L2203.52 163.018 Q2201.22 163.99 2198.82 164.5 Q2196.41 165.009 2193.93 165.009 Q2187.73 165.009 2184.09 161.398 Q2180.48 157.787 2180.48 151.629 Q2180.48 145.264 2183.91 141.537 Q2187.36 137.787 2193.19 137.787 Q2198.42 137.787 2201.46 141.166 Q2204.51 144.523 2204.51 150.31 M2200.25 149.06 Q2200.21 145.565 2198.28 143.481 Q2196.39 141.398 2193.24 141.398 Q2189.67 141.398 2187.52 143.412 Q2185.39 145.426 2185.07 149.083 L2200.25 149.06 Z" fill="#000000" fill-rule="evenodd" fill-opacity="1"></path><path clip-path="url(#clip770)" d="M2228.56 142.347 L2228.56 128.319 L2232.82 128.319 L2232.82 164.338 L2228.56 164.338 L2228.56 160.449 Q2227.22 162.763 2225.16 163.898 Q2223.12 165.009 2220.25 165.009 Q2215.55 165.009 2212.59 161.259 Q2209.65 157.509 2209.65 151.398 Q2209.65 145.287 2212.59 141.537 Q2215.55 137.787 2220.25 137.787 Q2223.12 137.787 2225.16 138.921 Q2227.22 140.032 2228.56 142.347 M2214.05 151.398 Q2214.05 156.097 2215.97 158.782 Q2217.91 161.444 2221.29 161.444 Q2224.67 161.444 2226.62 158.782 Q2228.56 156.097 2228.56 151.398 Q2228.56 146.699 2226.62 144.037 Q2224.67 141.352 2221.29 141.352 Q2217.91 141.352 2215.97 144.037 Q2214.05 146.699 2214.05 151.398 Z" fill="#000000" fill-rule="evenodd" fill-opacity="1"></path><polyline clip-path="url(#clip770)" style="stroke:#e26f46; stroke-linecap:butt; stroke-linejoin:round; stroke-width:4; stroke-opacity:1; fill:none" points="
  1784.06,198.898 1927.98,198.898 
  "></polyline>
<path clip-path="url(#clip770)" d="M1968.47 180.159 L1968.47 183.701 L1964.4 183.701 Q1962.11 183.701 1961.2 184.627 Q1960.32 185.553 1960.32 187.96 L1960.32 190.252 L1967.34 190.252 L1967.34 193.562 L1960.32 193.562 L1960.32 216.178 L1956.04 216.178 L1956.04 193.562 L1951.97 193.562 L1951.97 190.252 L1956.04 190.252 L1956.04 188.446 Q1956.04 184.118 1958.05 182.15 Q1960.07 180.159 1964.44 180.159 L1968.47 180.159 Z" fill="#000000" fill-rule="evenodd" fill-opacity="1"></path></svg>