<svg xmlns="http://www.w3.org/2000/svg" xmlns:xlink="http://www.w3.org/1999/xlink" width="600" height="400" viewBox="0 0 2400 1600">
<defs>
  <clipPath id="clip690">
    <rect x="0" y="0" width="2400" height="1600"></rect>
  </clipPath>
</defs>
<path clip-path="url(#clip690)" d="
M0 1600 L2400 1600 L2400 0 L0 0  Z
  " fill="#ffffff" fill-rule="evenodd" fill-opacity="1"></path>
<defs>
  <clipPath id="clip691">
    <rect x="480" y="0" width="1681" height="1600"></rect>
  </clipPath>
</defs>
<path clip-path="url(#clip690)" d="
M147.478 1486.45 L2352.76 1486.45 L2352.76 47.2441 L147.478 47.2441  Z
  " fill="#ffffff" fill-rule="evenodd" fill-opacity="1"></path>
<defs>
  <clipPath id="clip692">
    <rect x="147" y="47" width="2206" height="1440"></rect>
  </clipPath>
</defs>
<polyline clip-path="url(#clip692)" style="stroke:#000000; stroke-linecap:butt; stroke-linejoin:round; stroke-width:2; stroke-opacity:0.1; fill:none" points="
  209.891,1486.45 209.891,47.2441 
  "></polyline>
<polyline clip-path="url(#clip692)" style="stroke:#000000; stroke-linecap:butt; stroke-linejoin:round; stroke-width:2; stroke-opacity:0.1; fill:none" points="
  730.004,1486.45 730.004,47.2441 
  "></polyline>
<polyline clip-path="url(#clip692)" style="stroke:#000000; stroke-linecap:butt; stroke-linejoin:round; stroke-width:2; stroke-opacity:0.1; fill:none" points="
  1250.12,1486.45 1250.12,47.2441 
  "></polyline>
<polyline clip-path="url(#clip692)" style="stroke:#000000; stroke-linecap:butt; stroke-linejoin:round; stroke-width:2; stroke-opacity:0.1; fill:none" points="
  1770.23,1486.45 1770.23,47.2441 
  "></polyline>
<polyline clip-path="url(#clip692)" style="stroke:#000000; stroke-linecap:butt; stroke-linejoin:round; stroke-width:2; stroke-opacity:0.1; fill:none" points="
  2290.34,1486.45 2290.34,47.2441 
  "></polyline>
<polyline clip-path="url(#clip690)" style="stroke:#000000; stroke-linecap:butt; stroke-linejoin:round; stroke-width:4; stroke-opacity:1; fill:none" points="
  147.478,1486.45 2352.76,1486.45 
  "></polyline>
<polyline clip-path="url(#clip690)" style="stroke:#000000; stroke-linecap:butt; stroke-linejoin:round; stroke-width:4; stroke-opacity:1; fill:none" points="
  209.891,1486.45 209.891,1467.55 
  "></polyline>
<polyline clip-path="url(#clip690)" style="stroke:#000000; stroke-linecap:butt; stroke-linejoin:round; stroke-width:4; stroke-opacity:1; fill:none" points="
  730.004,1486.45 730.004,1467.55 
  "></polyline>
<polyline clip-path="url(#clip690)" style="stroke:#000000; stroke-linecap:butt; stroke-linejoin:round; stroke-width:4; stroke-opacity:1; fill:none" points="
  1250.12,1486.45 1250.12,1467.55 
  "></polyline>
<polyline clip-path="url(#clip690)" style="stroke:#000000; stroke-linecap:butt; stroke-linejoin:round; stroke-width:4; stroke-opacity:1; fill:none" points="
  1770.23,1486.45 1770.23,1467.55 
  "></polyline>
<polyline clip-path="url(#clip690)" style="stroke:#000000; stroke-linecap:butt; stroke-linejoin:round; stroke-width:4; stroke-opacity:1; fill:none" points="
  2290.34,1486.45 2290.34,1467.55 
  "></polyline>
<path clip-path="url(#clip690)" d="M156.42 1532.02 L186.095 1532.02 L186.095 1535.95 L156.42 1535.95 L156.42 1532.02 Z" fill="#000000" fill-rule="evenodd" fill-opacity="1"></path><path clip-path="url(#clip690)" d="M196.998 1544.91 L204.637 1544.91 L204.637 1518.55 L196.327 1520.21 L196.327 1515.95 L204.591 1514.29 L209.266 1514.29 L209.266 1544.91 L216.905 1544.91 L216.905 1548.85 L196.998 1548.85 L196.998 1544.91 Z" fill="#000000" fill-rule="evenodd" fill-opacity="1"></path><path clip-path="url(#clip690)" d="M226.35 1542.97 L231.234 1542.97 L231.234 1548.85 L226.35 1548.85 L226.35 1542.97 Z" fill="#000000" fill-rule="evenodd" fill-opacity="1"></path><path clip-path="url(#clip690)" d="M251.419 1517.37 Q247.808 1517.37 245.979 1520.93 Q244.174 1524.47 244.174 1531.6 Q244.174 1538.71 245.979 1542.27 Q247.808 1545.82 251.419 1545.82 Q255.053 1545.82 256.859 1542.27 Q258.687 1538.71 258.687 1531.6 Q258.687 1524.47 256.859 1520.93 Q255.053 1517.37 251.419 1517.37 M251.419 1513.66 Q257.229 1513.66 260.285 1518.27 Q263.363 1522.85 263.363 1531.6 Q263.363 1540.33 260.285 1544.94 Q257.229 1549.52 251.419 1549.52 Q245.609 1549.52 242.53 1544.94 Q239.475 1540.33 239.475 1531.6 Q239.475 1522.85 242.53 1518.27 Q245.609 1513.66 251.419 1513.66 Z" fill="#000000" fill-rule="evenodd" fill-opacity="1"></path><path clip-path="url(#clip690)" d="M677.03 1532.02 L706.706 1532.02 L706.706 1535.95 L677.03 1535.95 L677.03 1532.02 Z" fill="#000000" fill-rule="evenodd" fill-opacity="1"></path><path clip-path="url(#clip690)" d="M726.798 1517.37 Q723.187 1517.37 721.358 1520.93 Q719.553 1524.47 719.553 1531.6 Q719.553 1538.71 721.358 1542.27 Q723.187 1545.82 726.798 1545.82 Q730.432 1545.82 732.238 1542.27 Q734.067 1538.71 734.067 1531.6 Q734.067 1524.47 732.238 1520.93 Q730.432 1517.37 726.798 1517.37 M726.798 1513.66 Q732.608 1513.66 735.664 1518.27 Q738.743 1522.85 738.743 1531.6 Q738.743 1540.33 735.664 1544.94 Q732.608 1549.52 726.798 1549.52 Q720.988 1549.52 717.909 1544.94 Q714.854 1540.33 714.854 1531.6 Q714.854 1522.85 717.909 1518.27 Q720.988 1513.66 726.798 1513.66 Z" fill="#000000" fill-rule="evenodd" fill-opacity="1"></path><path clip-path="url(#clip690)" d="M746.96 1542.97 L751.844 1542.97 L751.844 1548.85 L746.96 1548.85 L746.96 1542.97 Z" fill="#000000" fill-rule="evenodd" fill-opacity="1"></path><path clip-path="url(#clip690)" d="M762.076 1514.29 L780.432 1514.29 L780.432 1518.22 L766.358 1518.22 L766.358 1526.7 Q767.377 1526.35 768.395 1526.19 Q769.414 1526 770.432 1526 Q776.219 1526 779.599 1529.17 Q782.978 1532.34 782.978 1537.76 Q782.978 1543.34 779.506 1546.44 Q776.034 1549.52 769.715 1549.52 Q767.539 1549.52 765.27 1549.15 Q763.025 1548.78 760.617 1548.04 L760.617 1543.34 Q762.701 1544.47 764.923 1545.03 Q767.145 1545.58 769.622 1545.58 Q773.627 1545.58 775.965 1543.48 Q778.303 1541.37 778.303 1537.76 Q778.303 1534.15 775.965 1532.04 Q773.627 1529.94 769.622 1529.94 Q767.747 1529.94 765.872 1530.35 Q764.02 1530.77 762.076 1531.65 L762.076 1514.29 Z" fill="#000000" fill-rule="evenodd" fill-opacity="1"></path><path clip-path="url(#clip690)" d="M1227.5 1517.37 Q1223.89 1517.37 1222.06 1520.93 Q1220.26 1524.47 1220.26 1531.6 Q1220.26 1538.71 1222.06 1542.27 Q1223.89 1545.82 1227.5 1545.82 Q1231.14 1545.82 1232.94 1542.27 Q1234.77 1538.71 1234.77 1531.6 Q1234.77 1524.47 1232.94 1520.93 Q1231.14 1517.37 1227.5 1517.37 M1227.5 1513.66 Q1233.31 1513.66 1236.37 1518.27 Q1239.45 1522.85 1239.45 1531.6 Q1239.45 1540.33 1236.37 1544.94 Q1233.31 1549.52 1227.5 1549.52 Q1221.69 1549.52 1218.61 1544.94 Q1215.56 1540.33 1215.56 1531.6 Q1215.56 1522.85 1218.61 1518.27 Q1221.69 1513.66 1227.5 1513.66 Z" fill="#000000" fill-rule="evenodd" fill-opacity="1"></path><path clip-path="url(#clip690)" d="M1247.66 1542.97 L1252.55 1542.97 L1252.55 1548.85 L1247.66 1548.85 L1247.66 1542.97 Z" fill="#000000" fill-rule="evenodd" fill-opacity="1"></path><path clip-path="url(#clip690)" d="M1272.73 1517.37 Q1269.12 1517.37 1267.29 1520.93 Q1265.49 1524.47 1265.49 1531.6 Q1265.49 1538.71 1267.29 1542.27 Q1269.12 1545.82 1272.73 1545.82 Q1276.37 1545.82 1278.17 1542.27 Q1280 1538.71 1280 1531.6 Q1280 1524.47 1278.17 1520.93 Q1276.37 1517.37 1272.73 1517.37 M1272.73 1513.66 Q1278.54 1513.66 1281.6 1518.27 Q1284.68 1522.85 1284.68 1531.6 Q1284.68 1540.33 1281.6 1544.94 Q1278.54 1549.52 1272.73 1549.52 Q1266.92 1549.52 1263.84 1544.94 Q1260.79 1540.33 1260.79 1531.6 Q1260.79 1522.85 1263.84 1518.27 Q1266.92 1513.66 1272.73 1513.66 Z" fill="#000000" fill-rule="evenodd" fill-opacity="1"></path><path clip-path="url(#clip690)" d="M1748.11 1517.37 Q1744.5 1517.37 1742.67 1520.93 Q1740.87 1524.47 1740.87 1531.6 Q1740.87 1538.71 1742.67 1542.27 Q1744.5 1545.82 1748.11 1545.82 Q1751.75 1545.82 1753.55 1542.27 Q1755.38 1538.71 1755.38 1531.6 Q1755.38 1524.47 1753.55 1520.93 Q1751.75 1517.37 1748.11 1517.37 M1748.11 1513.66 Q1753.92 1513.66 1756.98 1518.27 Q1760.06 1522.85 1760.06 1531.6 Q1760.06 1540.33 1756.98 1544.94 Q1753.92 1549.52 1748.11 1549.52 Q1742.3 1549.52 1739.22 1544.94 Q1736.17 1540.33 1736.17 1531.6 Q1736.17 1522.85 1739.22 1518.27 Q1742.3 1513.66 1748.11 1513.66 Z" fill="#000000" fill-rule="evenodd" fill-opacity="1"></path><path clip-path="url(#clip690)" d="M1768.27 1542.97 L1773.16 1542.97 L1773.16 1548.85 L1768.27 1548.85 L1768.27 1542.97 Z" fill="#000000" fill-rule="evenodd" fill-opacity="1"></path><path clip-path="url(#clip690)" d="M1783.39 1514.29 L1801.75 1514.29 L1801.75 1518.22 L1787.67 1518.22 L1787.67 1526.7 Q1788.69 1526.35 1789.71 1526.19 Q1790.73 1526 1791.75 1526 Q1797.53 1526 1800.91 1529.17 Q1804.29 1532.34 1804.29 1537.76 Q1804.29 1543.34 1800.82 1546.44 Q1797.35 1549.52 1791.03 1549.52 Q1788.85 1549.52 1786.58 1549.15 Q1784.34 1548.78 1781.93 1548.04 L1781.93 1543.34 Q1784.01 1544.47 1786.24 1545.03 Q1788.46 1545.58 1790.94 1545.58 Q1794.94 1545.58 1797.28 1543.48 Q1799.62 1541.37 1799.62 1537.76 Q1799.62 1534.15 1797.28 1532.04 Q1794.94 1529.94 1790.94 1529.94 Q1789.06 1529.94 1787.19 1530.35 Q1785.33 1530.77 1783.39 1531.65 L1783.39 1514.29 Z" fill="#000000" fill-rule="evenodd" fill-opacity="1"></path><path clip-path="url(#clip690)" d="M2257.5 1544.91 L2265.13 1544.91 L2265.13 1518.55 L2256.82 1520.21 L2256.82 1515.95 L2265.09 1514.29 L2269.76 1514.29 L2269.76 1544.91 L2277.4 1544.91 L2277.4 1548.85 L2257.5 1548.85 L2257.5 1544.91 Z" fill="#000000" fill-rule="evenodd" fill-opacity="1"></path><path clip-path="url(#clip690)" d="M2286.85 1542.97 L2291.73 1542.97 L2291.73 1548.85 L2286.85 1548.85 L2286.85 1542.97 Z" fill="#000000" fill-rule="evenodd" fill-opacity="1"></path><path clip-path="url(#clip690)" d="M2311.92 1517.37 Q2308.31 1517.37 2306.48 1520.93 Q2304.67 1524.47 2304.67 1531.6 Q2304.67 1538.71 2306.48 1542.27 Q2308.31 1545.82 2311.92 1545.82 Q2315.55 1545.82 2317.36 1542.27 Q2319.18 1538.71 2319.18 1531.6 Q2319.18 1524.47 2317.36 1520.93 Q2315.55 1517.37 2311.92 1517.37 M2311.92 1513.66 Q2317.73 1513.66 2320.78 1518.27 Q2323.86 1522.85 2323.86 1531.6 Q2323.86 1540.33 2320.78 1544.94 Q2317.73 1549.52 2311.92 1549.52 Q2306.11 1549.52 2303.03 1544.94 Q2299.97 1540.33 2299.97 1531.6 Q2299.97 1522.85 2303.03 1518.27 Q2306.11 1513.66 2311.92 1513.66 Z" fill="#000000" fill-rule="evenodd" fill-opacity="1"></path><polyline clip-path="url(#clip692)" style="stroke:#000000; stroke-linecap:butt; stroke-linejoin:round; stroke-width:2; stroke-opacity:0.1; fill:none" points="
  147.478,1481.09 2352.76,1481.09 
  "></polyline>
<polyline clip-path="url(#clip692)" style="stroke:#000000; stroke-linecap:butt; stroke-linejoin:round; stroke-width:2; stroke-opacity:0.1; fill:none" points="
  147.478,1027.99 2352.76,1027.99 
  "></polyline>
<polyline clip-path="url(#clip692)" style="stroke:#000000; stroke-linecap:butt; stroke-linejoin:round; stroke-width:2; stroke-opacity:0.1; fill:none" points="
  147.478,574.893 2352.76,574.893 
  "></polyline>
<polyline clip-path="url(#clip692)" style="stroke:#000000; stroke-linecap:butt; stroke-linejoin:round; stroke-width:2; stroke-opacity:0.1; fill:none" points="
  147.478,121.794 2352.76,121.794 
  "></polyline>
<polyline clip-path="url(#clip690)" style="stroke:#000000; stroke-linecap:butt; stroke-linejoin:round; stroke-width:4; stroke-opacity:1; fill:none" points="
  147.478,1486.45 147.478,47.2441 
  "></polyline>
<polyline clip-path="url(#clip690)" style="stroke:#000000; stroke-linecap:butt; stroke-linejoin:round; stroke-width:4; stroke-opacity:1; fill:none" points="
  147.478,1481.09 166.376,1481.09 
  "></polyline>
<polyline clip-path="url(#clip690)" style="stroke:#000000; stroke-linecap:butt; stroke-linejoin:round; stroke-width:4; stroke-opacity:1; fill:none" points="
  147.478,1027.99 166.376,1027.99 
  "></polyline>
<polyline clip-path="url(#clip690)" style="stroke:#000000; stroke-linecap:butt; stroke-linejoin:round; stroke-width:4; stroke-opacity:1; fill:none" points="
  147.478,574.893 166.376,574.893 
  "></polyline>
<polyline clip-path="url(#clip690)" style="stroke:#000000; stroke-linecap:butt; stroke-linejoin:round; stroke-width:4; stroke-opacity:1; fill:none" points="
  147.478,121.794 166.376,121.794 
  "></polyline>
<path clip-path="url(#clip690)" d="M50.9921 1481.54 L80.6679 1481.54 L80.6679 1485.48 L50.9921 1485.48 L50.9921 1481.54 Z" fill="#000000" fill-rule="evenodd" fill-opacity="1"></path><path clip-path="url(#clip690)" d="M91.5706 1494.44 L99.2095 1494.44 L99.2095 1468.07 L90.8993 1469.74 L90.8993 1465.48 L99.1632 1463.81 L103.839 1463.81 L103.839 1494.44 L111.478 1494.44 L111.478 1498.37 L91.5706 1498.37 L91.5706 1494.44 Z" fill="#000000" fill-rule="evenodd" fill-opacity="1"></path><path clip-path="url(#clip690)" d="M99.5335 1013.79 Q95.9224 1013.79 94.0937 1017.36 Q92.2882 1020.9 92.2882 1028.03 Q92.2882 1035.13 94.0937 1038.7 Q95.9224 1042.24 99.5335 1042.24 Q103.168 1042.24 104.973 1038.7 Q106.802 1035.13 106.802 1028.03 Q106.802 1020.9 104.973 1017.36 Q103.168 1013.79 99.5335 1013.79 M99.5335 1010.09 Q105.344 1010.09 108.399 1014.69 Q111.478 1019.28 111.478 1028.03 Q111.478 1036.75 108.399 1041.36 Q105.344 1045.94 99.5335 1045.94 Q93.7234 1045.94 90.6447 1041.36 Q87.5892 1036.75 87.5892 1028.03 Q87.5892 1019.28 90.6447 1014.69 Q93.7234 1010.09 99.5335 1010.09 Z" fill="#000000" fill-rule="evenodd" fill-opacity="1"></path><path clip-path="url(#clip690)" d="M91.5706 588.238 L99.2095 588.238 L99.2095 561.872 L90.8993 563.539 L90.8993 559.279 L99.1632 557.613 L103.839 557.613 L103.839 588.238 L111.478 588.238 L111.478 592.173 L91.5706 592.173 L91.5706 588.238 Z" fill="#000000" fill-rule="evenodd" fill-opacity="1"></path><path clip-path="url(#clip690)" d="M95.1586 135.139 L111.478 135.139 L111.478 139.074 L89.5336 139.074 L89.5336 135.139 Q92.1956 132.384 96.7789 127.755 Q101.385 123.102 102.566 121.759 Q104.811 119.236 105.691 117.5 Q106.594 115.741 106.594 114.051 Q106.594 111.296 104.649 109.56 Q102.728 107.824 99.6261 107.824 Q97.4271 107.824 94.9734 108.588 Q92.5428 109.352 89.7651 110.903 L89.7651 106.181 Q92.5891 105.046 95.0428 104.468 Q97.4965 103.889 99.5335 103.889 Q104.904 103.889 108.098 106.574 Q111.293 109.259 111.293 113.75 Q111.293 115.88 110.483 117.801 Q109.696 119.699 107.589 122.292 Q107.01 122.963 103.909 126.18 Q100.807 129.375 95.1586 135.139 Z" fill="#000000" fill-rule="evenodd" fill-opacity="1"></path><polyline clip-path="url(#clip692)" style="stroke:#009af9; stroke-linecap:butt; stroke-linejoin:round; stroke-width:4; stroke-opacity:1; fill:none" points="
  209.891,1445.72 211.974,1435.56 214.057,1425.5 216.139,1415.53 218.222,1405.65 220.304,1395.86 222.387,1386.17 224.469,1376.57 226.552,1367.06 228.634,1357.64 
  230.717,1348.31 232.799,1339.07 234.882,1329.92 236.964,1320.86 239.047,1311.89 241.129,1303 243.212,1294.2 245.295,1285.49 247.377,1276.87 249.46,1268.33 
  251.542,1259.88 253.625,1251.51 255.707,1243.23 257.79,1235.03 259.872,1226.92 261.955,1218.89 264.037,1210.94 266.12,1203.07 268.202,1195.29 270.285,1187.59 
  272.367,1179.97 274.45,1172.43 276.533,1164.98 278.615,1157.6 280.698,1150.3 282.78,1143.08 284.863,1135.95 286.945,1128.88 289.028,1121.9 291.11,1115 
  293.193,1108.17 295.275,1101.42 297.358,1094.74 299.44,1088.14 301.523,1081.62 303.605,1075.17 305.688,1068.8 307.771,1062.5 309.853,1056.27 311.936,1050.12 
  314.018,1044.04 316.101,1038.03 318.183,1032.1 320.266,1026.24 322.348,1020.45 324.431,1014.73 326.513,1009.08 328.596,1003.5 330.678,997.989 332.761,992.549 
  334.843,987.178 336.926,981.876 339.009,976.642 341.091,971.475 343.174,966.376 345.256,961.344 347.339,956.379 349.421,951.48 351.504,946.646 353.586,941.878 
  355.669,937.176 357.751,932.537 359.834,927.963 361.916,923.453 363.999,919.007 366.081,914.623 368.164,910.302 370.247,906.044 372.329,901.847 374.412,897.712 
  376.494,893.638 378.577,889.625 380.659,885.673 382.742,881.78 384.824,877.947 386.907,874.173 388.989,870.458 391.072,866.802 393.154,863.204 395.237,859.663 
  397.319,856.18 399.402,852.754 401.485,849.385 403.567,846.072 405.65,842.815 407.732,839.613 409.815,836.467 411.897,833.375 413.98,830.338 416.062,827.355 
  418.145,824.426 420.227,821.549 422.31,818.726 424.392,815.956 426.475,813.238 428.557,810.571 430.64,807.957 432.723,805.393 434.805,802.88 436.888,800.418 
  438.97,798.006 441.053,795.643 443.135,793.33 445.218,791.066 447.3,788.851 449.383,786.684 451.465,784.565 453.548,782.494 455.63,780.47 457.713,778.493 
  459.795,776.563 461.878,774.679 463.961,772.84 466.043,771.048 468.126,769.3 470.208,767.598 472.291,765.94 474.373,764.326 476.456,762.756 478.538,761.23 
  480.621,759.747 482.703,758.307 484.786,756.909 486.868,755.553 488.951,754.24 491.033,752.967 493.116,751.737 495.199,750.546 497.281,749.397 499.364,748.287 
  501.446,747.218 503.529,746.188 505.611,745.197 507.694,744.245 509.776,743.332 511.859,742.457 513.941,741.62 516.024,740.821 518.106,740.058 520.189,739.333 
  522.271,738.645 524.354,737.992 526.437,737.376 528.519,736.796 530.602,736.25 532.684,735.74 534.767,735.265 536.849,734.824 538.932,734.417 541.014,734.044 
  543.097,733.705 545.179,733.399 547.262,733.125 549.344,732.884 551.427,732.676 553.509,732.499 555.592,732.354 557.675,732.241 559.757,732.158 561.84,732.107 
  563.922,732.085 566.005,732.094 568.087,732.133 570.17,732.201 572.252,732.299 574.335,732.425 576.417,732.581 578.5,732.764 580.582,732.976 582.665,733.215 
  584.747,733.482 586.83,733.776 588.913,734.097 590.995,734.445 593.078,734.819 595.16,735.219 597.243,735.645 599.325,736.096 601.408,736.573 603.49,737.074 
  605.573,737.6 607.655,738.151 609.738,738.725 611.82,739.324 613.903,739.945 615.985,740.59 618.068,741.258 620.151,741.949 622.233,742.662 624.316,743.397 
  626.398,744.154 628.481,744.933 630.563,745.733 632.646,746.554 634.728,747.396 636.811,748.258 638.893,749.14 640.976,750.043 643.058,750.965 645.141,751.906 
  647.223,752.867 649.306,753.847 651.389,754.845 653.471,755.862 655.554,756.897 657.636,757.949 659.719,759.019 661.801,760.107 663.884,761.212 665.966,762.333 
  668.049,763.471 670.131,764.626 672.214,765.796 674.296,766.982 676.379,768.184 678.461,769.401 680.544,770.633 682.627,771.88 684.709,773.142 686.792,774.418 
  688.874,775.708 690.957,777.012 693.039,778.329 695.122,779.66 697.204,781.004 699.287,782.36 701.369,783.729 703.452,785.111 705.534,786.505 707.617,787.91 
  709.699,789.328 711.782,790.757 713.865,792.196 715.947,793.647 718.03,795.109 720.112,796.581 722.195,798.063 724.277,799.556 726.36,801.058 728.442,802.569 
  730.525,804.091 732.607,805.621 734.69,807.16 736.772,808.707 738.855,810.263 740.937,811.828 743.02,813.4 745.103,814.98 747.185,816.568 749.268,818.163 
  751.35,819.765 753.433,821.374 755.515,822.989 757.598,824.611 759.68,826.24 761.763,827.874 763.845,829.514 765.928,831.16 768.01,832.811 770.093,834.467 
  772.175,836.128 774.258,837.794 776.341,839.465 778.423,841.14 780.506,842.819 782.588,844.502 784.671,846.188 786.753,847.879 788.836,849.572 790.918,851.269 
  793.001,852.968 795.083,854.67 797.166,856.375 799.248,858.082 801.331,859.791 803.413,861.502 805.496,863.215 807.579,864.93 809.661,866.645 811.744,868.362 
  813.826,870.08 815.909,871.799 817.991,873.518 820.074,875.237 822.156,876.957 824.239,878.677 826.321,880.396 828.404,882.116 830.486,883.834 832.569,885.552 
  834.651,887.269 836.734,888.985 838.817,890.7 840.899,892.413 842.982,894.125 845.064,895.834 847.147,897.542 849.229,899.248 851.312,900.951 853.394,902.652 
  855.477,904.35 857.559,906.045 859.642,907.737 861.724,909.426 863.807,911.112 865.889,912.794 867.972,914.472 870.055,916.147 872.137,917.817 874.22,919.483 
  876.302,921.145 878.385,922.802 880.467,924.455 882.55,926.103 884.632,927.745 886.715,929.383 888.797,931.015 890.88,932.642 892.962,934.263 895.045,935.878 
  897.127,937.487 899.21,939.09 901.293,940.687 903.375,942.277 905.458,943.861 907.54,945.438 909.623,947.008 911.705,948.572 913.788,950.128 915.87,951.676 
  917.953,953.217 920.035,954.751 922.118,956.277 924.2,957.795 926.283,959.305 928.365,960.806 930.448,962.3 932.531,963.784 934.613,965.261 936.696,966.728 
  938.778,968.187 940.861,969.636 942.943,971.077 945.026,972.508 947.108,973.93 949.191,975.342 951.273,976.744 953.356,978.137 955.438,979.519 957.521,980.892 
  959.603,982.254 961.686,983.606 963.769,984.948 965.851,986.279 967.934,987.599 970.016,988.909 972.099,990.207 974.181,991.495 976.264,992.771 978.346,994.036 
  980.429,995.289 982.511,996.531 984.594,997.761 986.676,998.98 988.759,1000.19 990.841,1001.38 992.924,1002.56 995.007,1003.73 997.089,1004.89 999.172,1006.04 
  1001.25,1007.17 1003.34,1008.29 1005.42,1009.4 1007.5,1010.49 1009.58,1011.57 1011.67,1012.64 1013.75,1013.69 1015.83,1014.74 1017.91,1015.76 1020,1016.78 
  1022.08,1017.78 1024.16,1018.77 1026.24,1019.74 1028.33,1020.7 1030.41,1021.65 1032.49,1022.58 1034.57,1023.49 1036.66,1024.4 1038.74,1025.29 1040.82,1026.16 
  1042.9,1027.02 1044.99,1027.86 1047.07,1028.69 1049.15,1029.51 1051.23,1030.31 1053.32,1031.09 1055.4,1031.86 1057.48,1032.62 1059.57,1033.36 1061.65,1034.08 
  1063.73,1034.79 1065.81,1035.48 1067.9,1036.16 1069.98,1036.82 1072.06,1037.47 1074.14,1038.1 1076.23,1038.71 1078.31,1039.31 1080.39,1039.89 1082.47,1040.46 
  1084.56,1041.01 1086.64,1041.54 1088.72,1042.06 1090.8,1042.56 1092.89,1043.04 1094.97,1043.51 1097.05,1043.96 1099.13,1044.4 1101.22,1044.81 1103.3,1045.21 
  1105.38,1045.6 1107.46,1045.96 1109.55,1046.31 1111.63,1046.65 1113.71,1046.96 1115.79,1047.26 1117.88,1047.54 1119.96,1047.8 1122.04,1048.05 1124.12,1048.28 
  1126.21,1048.49 1128.29,1048.68 1130.37,1048.86 1132.45,1049.02 1134.54,1049.16 1136.62,1049.28 1138.7,1049.38 1140.78,1049.47 1142.87,1049.54 1144.95,1049.59 
  1147.03,1049.62 1149.11,1049.64 1151.2,1049.64 1153.28,1049.61 1155.36,1049.57 1157.44,1049.52 1159.53,1049.44 1161.61,1049.35 1163.69,1049.23 1165.77,1049.1 
  1167.86,1048.95 1169.94,1048.78 1172.02,1048.6 1174.1,1048.39 1176.19,1048.17 1178.27,1047.93 1180.35,1047.67 1182.43,1047.39 1184.52,1047.09 1186.6,1046.77 
  1188.68,1046.43 1190.76,1046.08 1192.85,1045.71 1194.93,1045.31 1197.01,1044.9 1199.09,1044.47 1201.18,1044.02 1203.26,1043.56 1205.34,1043.07 1207.42,1042.56 
  1209.51,1042.04 1211.59,1041.5 1213.67,1040.93 1215.76,1040.35 1217.84,1039.75 1219.92,1039.13 1222,1038.49 1224.09,1037.83 1226.17,1037.16 1228.25,1036.46 
  1230.33,1035.74 1232.42,1035.01 1234.5,1034.26 1236.58,1033.48 1238.66,1032.69 1240.75,1031.88 1242.83,1031.05 1244.91,1030.2 1246.99,1029.33 1249.08,1028.44 
  1251.16,1027.54 1253.24,1026.61 1255.32,1025.66 1257.41,1024.7 1259.49,1023.72 1261.57,1022.71 1263.65,1021.69 1265.74,1020.65 1267.82,1019.59 1269.9,1018.51 
  1271.98,1017.41 1274.07,1016.29 1276.15,1015.16 1278.23,1014 1280.31,1012.82 1282.4,1011.63 1284.48,1010.42 1286.56,1009.18 1288.64,1007.93 1290.73,1006.66 
  1292.81,1005.37 1294.89,1004.06 1296.97,1002.74 1299.06,1001.39 1301.14,1000.02 1303.22,998.641 1305.3,997.238 1307.39,995.816 1309.47,994.375 1311.55,992.915 
  1313.63,991.437 1315.72,989.94 1317.8,988.424 1319.88,986.889 1321.96,985.336 1324.05,983.764 1326.13,982.174 1328.21,980.565 1330.29,978.937 1332.38,977.291 
  1334.46,975.626 1336.54,973.943 1338.62,972.242 1340.71,970.522 1342.79,968.784 1344.87,967.027 1346.95,965.253 1349.04,963.46 1351.12,961.649 1353.2,959.82 
  1355.28,957.973 1357.37,956.108 1359.45,954.225 1361.53,952.324 1363.61,950.405 1365.7,948.468 1367.78,946.513 1369.86,944.541 1371.95,942.551 1374.03,940.543 
  1376.11,938.518 1378.19,936.476 1380.28,934.415 1382.36,932.338 1384.44,930.243 1386.52,928.131 1388.61,926.001 1390.69,923.855 1392.77,921.691 1394.85,919.51 
  1396.94,917.313 1399.02,915.098 1401.1,912.867 1403.18,910.618 1405.27,908.353 1407.35,906.072 1409.43,903.773 1411.51,901.459 1413.6,899.127 1415.68,896.78 
  1417.76,894.416 1419.84,892.036 1421.93,889.64 1424.01,887.227 1426.09,884.799 1428.17,882.354 1430.26,879.894 1432.34,877.418 1434.42,874.927 1436.5,872.419 
  1438.59,869.896 1440.67,867.358 1442.75,864.804 1444.83,862.235 1446.92,859.651 1449,857.052 1451.08,854.438 1453.16,851.808 1455.25,849.164 1457.33,846.505 
  1459.41,843.832 1461.49,841.144 1463.58,838.441 1465.66,835.724 1467.74,832.993 1469.82,830.247 1471.91,827.487 1473.99,824.713 1476.07,821.926 1478.15,819.124 
  1480.24,816.309 1482.32,813.48 1484.4,810.638 1486.48,807.782 1488.57,804.913 1490.65,802.03 1492.73,799.135 1494.81,796.226 1496.9,793.305 1498.98,790.371 
  1501.06,787.424 1503.14,784.464 1505.23,781.492 1507.31,778.508 1509.39,775.512 1511.47,772.503 1513.56,769.482 1515.64,766.45 1517.72,763.405 1519.8,760.349 
  1521.89,757.281 1523.97,754.202 1526.05,751.112 1528.14,748.01 1530.22,744.898 1532.3,741.774 1534.38,738.639 1536.47,735.494 1538.55,732.338 1540.63,729.172 
  1542.71,725.996 1544.8,722.809 1546.88,719.612 1548.96,716.405 1551.04,713.188 1553.13,709.962 1555.21,706.726 1557.29,703.481 1559.37,700.226 1561.46,696.962 
  1563.54,693.69 1565.62,690.408 1567.7,687.117 1569.79,683.818 1571.87,680.511 1573.95,677.195 1576.03,673.871 1578.12,670.539 1580.2,667.199 1582.28,663.851 
  1584.36,660.496 1586.45,657.133 1588.53,653.763 1590.61,650.385 1592.69,647.001 1594.78,643.609 1596.86,640.211 1598.94,636.807 1601.02,633.396 1603.11,629.978 
  1605.19,626.555 1607.27,623.126 1609.35,619.69 1611.44,616.25 1613.52,612.803 1615.6,609.351 1617.68,605.895 1619.77,602.433 1621.85,598.966 1623.93,595.494 
  1626.01,592.018 1628.1,588.538 1630.18,585.053 1632.26,581.565 1634.34,578.072 1636.43,574.576 1638.51,571.076 1640.59,567.573 1642.67,564.066 1644.76,560.557 
  1646.84,557.045 1648.92,553.53 1651,550.012 1653.09,546.493 1655.17,542.971 1657.25,539.447 1659.33,535.921 1661.42,532.393 1663.5,528.865 1665.58,525.334 
  1667.66,521.803 1669.75,518.271 1671.83,514.738 1673.91,511.205 1676,507.671 1678.08,504.137 1680.16,500.603 1682.24,497.069 1684.33,493.536 1686.41,490.003 
  1688.49,486.471 1690.57,482.94 1692.66,479.41 1694.74,475.882 1696.82,472.355 1698.9,468.829 1700.99,465.306 1703.07,461.785 1705.15,458.266 1707.23,454.749 
  1709.32,451.235 1711.4,447.725 1713.48,444.217 1715.56,440.712 1717.65,437.212 1719.73,433.714 1721.81,430.221 1723.89,426.732 1725.98,423.247 1728.06,419.767 
  1730.14,416.292 1732.22,412.821 1734.31,409.356 1736.39,405.896 1738.47,402.442 1740.55,398.993 1742.64,395.551 1744.72,392.115 1746.8,388.685 1748.88,385.262 
  1750.97,381.845 1753.05,378.436 1755.13,375.034 1757.21,371.64 1759.3,368.254 1761.38,364.875 1763.46,361.505 1765.54,358.143 1767.63,354.79 1769.71,351.445 
  1771.79,348.11 1773.87,344.784 1775.96,341.468 1778.04,338.161 1780.12,334.865 1782.2,331.578 1784.29,328.303 1786.37,325.037 1788.45,321.783 1790.53,318.54 
  1792.62,315.309 1794.7,312.089 1796.78,308.881 1798.86,305.685 1800.95,302.502 1803.03,299.331 1805.11,296.173 1807.19,293.028 1809.28,289.896 1811.36,286.778 
  1813.44,283.674 1815.52,280.584 1817.61,277.508 1819.69,274.447 1821.77,271.401 1823.85,268.369 1825.94,265.353 1828.02,262.353 1830.1,259.368 1832.19,256.4 
  1834.27,253.447 1836.35,250.512 1838.43,247.593 1840.52,244.691 1842.6,241.807 1844.68,238.94 1846.76,236.091 1848.85,233.26 1850.93,230.447 1853.01,227.653 
  1855.09,224.879 1857.18,222.123 1859.26,219.386 1861.34,216.67 1863.42,213.973 1865.51,211.297 1867.59,208.641 1869.67,206.006 1871.75,203.391 1873.84,200.799 
  1875.92,198.227 1878,195.678 1880.08,193.151 1882.17,190.646 1884.25,188.164 1886.33,185.704 1888.41,183.268 1890.5,180.856 1892.58,178.467 1894.66,176.103 
  1896.74,173.762 1898.83,171.447 1900.91,169.156 1902.99,166.89 1905.07,164.65 1907.16,162.436 1909.24,160.248 1911.32,158.086 1913.4,155.951 1915.49,153.842 
  1917.57,151.761 1919.65,149.707 1921.73,147.682 1923.82,145.684 1925.9,143.714 1927.98,141.774 1930.06,139.862 1932.15,137.979 1934.23,136.126 1936.31,134.303 
  1938.39,132.51 1940.48,130.748 1942.56,129.016 1944.64,127.315 1946.72,125.646 1948.81,124.008 1950.89,122.403 1952.97,120.829 1955.05,119.289 1957.14,117.781 
  1959.22,116.306 1961.3,114.865 1963.38,113.457 1965.47,112.084 1967.55,110.745 1969.63,109.441 1971.71,108.172 1973.8,106.938 1975.88,105.74 1977.96,104.578 
  1980.04,103.453 1982.13,102.364 1984.21,101.312 1986.29,100.297 1988.38,99.3199 1990.46,98.3807 1992.54,97.4798 1994.62,96.6174 1996.71,95.7939 1998.79,95.0096 
  2000.87,94.2649 2002.95,93.5601 2005.04,92.8954 2007.12,92.2713 2009.2,91.6881 2011.28,91.1461 2013.37,90.6455 2015.45,90.1869 2017.53,89.7704 2019.61,89.3965 
  2021.7,89.0654 2023.78,88.7775 2025.86,88.5331 2027.94,88.3327 2030.03,88.1764 2032.11,88.0647 2034.19,87.9979 2036.27,87.9763 2038.36,88.0003 2040.44,88.0702 
  2042.52,88.1864 2044.6,88.3491 2046.69,88.5589 2048.77,88.8159 2050.85,89.1206 2052.93,89.4733 2055.02,89.8744 2057.1,90.3241 2059.18,90.8229 2061.26,91.3711 
  2063.35,91.9691 2065.43,92.6172 2067.51,93.3157 2069.59,94.0651 2071.68,94.8657 2073.76,95.7178 2075.84,96.6218 2077.92,97.578 2080.01,98.5869 2082.09,99.6488 
  2084.17,100.764 2086.25,101.933 2088.34,103.156 2090.42,104.433 2092.5,105.766 2094.58,107.153 2096.67,108.596 2098.75,110.095 2100.83,111.65 2102.91,113.262 
  2105,114.93 2107.08,116.657 2109.16,118.441 2111.24,120.283 2113.33,122.183 2115.41,124.143 2117.49,126.162 2119.57,128.24 2121.66,130.378 2123.74,132.577 
  2125.82,134.837 2127.9,137.158 2129.99,139.54 2132.07,141.984 2134.15,144.491 2136.23,147.06 2138.32,149.693 2140.4,152.389 2142.48,155.149 2144.57,157.973 
  2146.65,160.861 2148.73,163.815 2150.81,166.834 2152.9,169.919 2154.98,173.07 2157.06,176.288 2159.14,179.573 2161.23,182.925 2163.31,186.345 2165.39,189.833 
  2167.47,193.39 2169.56,197.016 2171.64,200.711 2173.72,204.476 2175.8,208.311 2177.89,212.217 2179.97,216.193 2182.05,220.242 2184.13,224.362 2186.22,228.554 
  2188.3,232.819 2190.38,237.157 2192.46,241.568 2194.55,246.053 2196.63,250.613 2198.71,255.247 2200.79,259.956 2202.88,264.741 2204.96,269.602 2207.04,274.539 
  2209.12,279.553 2211.21,284.644 2213.29,289.812 2215.37,295.059 2217.45,300.384 2219.54,305.788 2221.62,311.271 2223.7,316.834 2225.78,322.477 2227.87,328.201 
  2229.95,334.006 2232.03,339.892 2234.11,345.86 2236.2,351.91 2238.28,358.043 2240.36,364.259 2242.44,370.558 2244.53,376.942 2246.61,383.41 2248.69,389.963 
  2250.77,396.601 2252.86,403.325 2254.94,410.135 2257.02,417.031 2259.1,424.015 2261.19,431.086 2263.27,438.245 2265.35,445.493 2267.43,452.829 2269.52,460.255 
  2271.6,467.77 2273.68,475.376 2275.76,483.072 2277.85,490.859 2279.93,498.737 2282.01,506.708 2284.09,514.771 2286.18,522.926 2288.26,531.175 2290.34,539.518 
  
  "></polyline>
<polyline clip-path="url(#clip692)" style="stroke:#e26f46; stroke-linecap:butt; stroke-linejoin:round; stroke-width:4; stroke-opacity:1; fill:none" points="
  209.891,1445.72 211.974,1438.76 214.057,1431.38 216.139,1423.61 218.222,1415.47 220.304,1406.96 222.387,1398.12 224.469,1388.95 226.552,1379.49 228.634,1369.75 
  230.717,1359.75 232.799,1349.52 234.882,1339.08 236.964,1328.45 239.047,1317.64 241.129,1306.7 243.212,1295.63 245.295,1284.46 247.377,1273.22 249.46,1261.92 
  251.542,1250.6 253.625,1239.26 255.707,1227.94 257.79,1216.65 259.872,1205.42 261.955,1194.27 264.037,1183.22 266.12,1172.29 268.202,1161.5 270.285,1150.87 
  272.367,1140.42 274.45,1130.16 276.533,1120.12 278.615,1110.32 280.698,1100.76 282.78,1091.47 284.863,1082.45 286.945,1073.73 289.028,1065.32 291.11,1057.23 
  293.193,1049.48 295.275,1042.06 297.358,1035.01 299.44,1028.31 301.523,1021.99 303.605,1016.05 305.688,1010.5 307.771,1005.34 309.853,1000.59 311.936,996.238 
  314.018,992.295 316.101,988.765 318.183,985.648 320.266,982.947 322.348,980.661 324.431,978.791 326.513,977.335 328.596,976.293 330.678,975.66 332.761,975.434 
  334.843,975.612 336.926,976.188 339.009,977.156 341.091,978.512 343.174,980.247 345.256,982.356 347.339,984.829 349.421,987.66 351.504,990.838 353.586,994.354 
  355.669,998.198 357.751,1002.36 359.834,1006.83 361.916,1011.59 363.999,1016.64 366.081,1021.96 368.164,1027.54 370.247,1033.37 372.329,1039.42 374.412,1045.7 
  376.494,1052.19 378.577,1058.87 380.659,1065.73 382.742,1072.76 384.824,1079.94 386.907,1087.25 388.989,1094.69 391.072,1102.24 393.154,1109.88 395.237,1117.6 
  397.319,1125.39 399.402,1133.24 401.485,1141.12 403.567,1149.02 405.65,1156.94 407.732,1164.85 409.815,1172.75 411.897,1180.61 413.98,1188.44 416.062,1196.2 
  418.145,1203.9 420.227,1211.52 422.31,1219.05 424.392,1226.47 426.475,1233.78 428.557,1240.96 430.64,1248 432.723,1254.89 434.805,1261.63 436.888,1268.19 
  438.97,1274.58 441.053,1280.78 443.135,1286.79 445.218,1292.59 447.3,1298.18 449.383,1303.56 451.465,1308.7 453.548,1313.62 455.63,1318.3 457.713,1322.73 
  459.795,1326.91 461.878,1330.84 463.961,1334.51 466.043,1337.91 468.126,1341.05 470.208,1343.92 472.291,1346.52 474.373,1348.84 476.456,1350.88 478.538,1352.65 
  480.621,1354.13 482.703,1355.33 484.786,1356.26 486.868,1356.9 488.951,1357.26 491.033,1357.34 493.116,1357.14 495.199,1356.66 497.281,1355.91 499.364,1354.88 
  501.446,1353.58 503.529,1352.02 505.611,1350.18 507.694,1348.09 509.776,1345.73 511.859,1343.12 513.941,1340.26 516.024,1337.16 518.106,1333.81 520.189,1330.22 
  522.271,1326.41 524.354,1322.37 526.437,1318.1 528.519,1313.62 530.602,1308.93 532.684,1304.04 534.767,1298.96 536.849,1293.68 538.932,1288.21 541.014,1282.57 
  543.097,1276.76 545.179,1270.79 547.262,1264.66 549.344,1258.38 551.427,1251.95 553.509,1245.39 555.592,1238.71 557.675,1231.9 559.757,1224.97 561.84,1217.94 
  563.922,1210.82 566.005,1203.59 568.087,1196.29 570.17,1188.91 572.252,1181.45 574.335,1173.94 576.417,1166.37 578.5,1158.75 580.582,1151.09 582.665,1143.39 
  584.747,1135.67 586.83,1127.92 588.913,1120.16 590.995,1112.4 593.078,1104.63 595.16,1096.88 597.243,1089.13 599.325,1081.4 601.408,1073.7 603.49,1066.03 
  605.573,1058.39 607.655,1050.8 609.738,1043.26 611.82,1035.77 613.903,1028.34 615.985,1020.97 618.068,1013.67 620.151,1006.45 622.233,999.31 624.316,992.252 
  626.398,985.283 628.481,978.407 630.563,971.628 632.646,964.95 634.728,958.377 636.811,951.913 638.893,945.562 640.976,939.326 643.058,933.209 645.141,927.213 
  647.223,921.343 649.306,915.6 651.389,909.988 653.471,904.508 655.554,899.162 657.636,893.954 659.719,888.885 661.801,883.956 663.884,879.169 665.966,874.526 
  668.049,870.029 670.131,865.677 672.214,861.473 674.296,857.417 676.379,853.51 678.461,849.753 680.544,846.145 682.627,842.688 684.709,839.382 686.792,836.226 
  688.874,833.22 690.957,830.366 693.039,827.661 695.122,825.106 697.204,822.7 699.287,820.443 701.369,818.334 703.452,816.371 705.534,814.555 707.617,812.884 
  709.699,811.356 711.782,809.971 713.865,808.728 715.947,807.624 718.03,806.658 720.112,805.83 722.195,805.136 724.277,804.576 726.36,804.148 728.442,803.849 
  730.525,803.679 732.607,803.634 734.69,803.713 736.772,803.913 738.855,804.233 740.937,804.671 743.02,805.224 745.103,805.889 747.185,806.666 749.268,807.55 
  751.35,808.54 753.433,809.634 755.515,810.828 757.598,812.122 759.68,813.511 761.763,814.993 763.845,816.567 765.928,818.228 768.01,819.976 770.093,821.807 
  772.175,823.719 774.258,825.709 776.341,827.774 778.423,829.913 780.506,832.122 782.588,834.398 784.671,836.74 786.753,839.145 788.836,841.61 790.918,844.132 
  793.001,846.71 795.083,849.34 797.166,852.02 799.248,854.748 801.331,857.521 803.413,860.337 805.496,863.193 807.579,866.087 809.661,869.017 811.744,871.98 
  813.826,874.973 815.909,877.996 817.991,881.044 820.074,884.117 822.156,887.212 824.239,890.327 826.321,893.459 828.404,896.607 830.486,899.768 832.569,902.941 
  834.651,906.124 836.734,909.314 838.817,912.509 840.899,915.709 842.982,918.91 845.064,922.112 847.147,925.312 849.229,928.509 851.312,931.7 853.394,934.885 
  855.477,938.062 857.559,941.229 859.642,944.385 861.724,947.528 863.807,950.656 865.889,953.769 867.972,956.865 870.055,959.943 872.137,963.001 874.22,966.038 
  876.302,969.053 878.385,972.045 880.467,975.013 882.55,977.955 884.632,980.871 886.715,983.759 888.797,986.619 890.88,989.449 892.962,992.25 895.045,995.019 
  897.127,997.756 899.21,1000.46 901.293,1003.13 903.375,1005.77 905.458,1008.37 907.54,1010.94 909.623,1013.47 911.705,1015.96 913.788,1018.42 915.87,1020.84 
  917.953,1023.22 920.035,1025.56 922.118,1027.86 924.2,1030.12 926.283,1032.35 928.365,1034.53 930.448,1036.68 932.531,1038.78 934.613,1040.84 936.696,1042.86 
  938.778,1044.84 940.861,1046.78 942.943,1048.67 945.026,1050.53 947.108,1052.34 949.191,1054.11 951.273,1055.84 953.356,1057.53 955.438,1059.17 957.521,1060.78 
  959.603,1062.34 961.686,1063.86 963.769,1065.33 965.851,1066.77 967.934,1068.17 970.016,1069.52 972.099,1070.83 974.181,1072.11 976.264,1073.34 978.346,1074.53 
  980.429,1075.68 982.511,1076.79 984.594,1077.86 986.676,1078.89 988.759,1079.88 990.841,1080.83 992.924,1081.75 995.007,1082.62 997.089,1083.46 999.172,1084.26 
  1001.25,1085.02 1003.34,1085.75 1005.42,1086.44 1007.5,1087.09 1009.58,1087.71 1011.67,1088.29 1013.75,1088.84 1015.83,1089.35 1017.91,1089.83 1020,1090.27 
  1022.08,1090.68 1024.16,1091.06 1026.24,1091.4 1028.33,1091.72 1030.41,1092 1032.49,1092.25 1034.57,1092.47 1036.66,1092.66 1038.74,1092.82 1040.82,1092.95 
  1042.9,1093.05 1044.99,1093.12 1047.07,1093.16 1049.15,1093.18 1051.23,1093.17 1053.32,1093.14 1055.4,1093.07 1057.48,1092.98 1059.57,1092.87 1061.65,1092.73 
  1063.73,1092.57 1065.81,1092.39 1067.9,1092.18 1069.98,1091.94 1072.06,1091.69 1074.14,1091.41 1076.23,1091.12 1078.31,1090.8 1080.39,1090.46 1082.47,1090.1 
  1084.56,1089.72 1086.64,1089.32 1088.72,1088.91 1090.8,1088.47 1092.89,1088.02 1094.97,1087.55 1097.05,1087.06 1099.13,1086.56 1101.22,1086.04 1103.3,1085.5 
  1105.38,1084.95 1107.46,1084.38 1109.55,1083.8 1111.63,1083.21 1113.71,1082.6 1115.79,1081.98 1117.88,1081.35 1119.96,1080.7 1122.04,1080.04 1124.12,1079.37 
  1126.21,1078.69 1128.29,1078 1130.37,1077.29 1132.45,1076.58 1134.54,1075.85 1136.62,1075.12 1138.7,1074.38 1140.78,1073.63 1142.87,1072.87 1144.95,1072.1 
  1147.03,1071.32 1149.11,1070.54 1151.2,1069.75 1153.28,1068.95 1155.36,1068.14 1157.44,1067.33 1159.53,1066.51 1161.61,1065.69 1163.69,1064.86 1165.77,1064.02 
  1167.86,1063.18 1169.94,1062.34 1172.02,1061.49 1174.1,1060.64 1176.19,1059.78 1178.27,1058.92 1180.35,1058.05 1182.43,1057.18 1184.52,1056.31 1186.6,1055.43 
  1188.68,1054.55 1190.76,1053.67 1192.85,1052.79 1194.93,1051.9 1197.01,1051.01 1199.09,1050.12 1201.18,1049.23 1203.26,1048.33 1205.34,1047.44 1207.42,1046.54 
  1209.51,1045.64 1211.59,1044.74 1213.67,1043.84 1215.76,1042.94 1217.84,1042.04 1219.92,1041.13 1222,1040.23 1224.09,1039.32 1226.17,1038.42 1228.25,1037.51 
  1230.33,1036.61 1232.42,1035.7 1234.5,1034.79 1236.58,1033.89 1238.66,1032.98 1240.75,1032.07 1242.83,1031.17 1244.91,1030.26 1246.99,1029.35 1249.08,1028.45 
  1251.16,1027.54 1253.24,1026.63 1255.32,1025.72 1257.41,1024.82 1259.49,1023.91 1261.57,1023 1263.65,1022.09 1265.74,1021.19 1267.82,1020.28 1269.9,1019.37 
  1271.98,1018.46 1274.07,1017.56 1276.15,1016.65 1278.23,1015.74 1280.31,1014.83 1282.4,1013.92 1284.48,1013 1286.56,1012.09 1288.64,1011.18 1290.73,1010.27 
  1292.81,1009.35 1294.89,1008.43 1296.97,1007.51 1299.06,1006.59 1301.14,1005.67 1303.22,1004.75 1305.3,1003.82 1307.39,1002.9 1309.47,1001.97 1311.55,1001.03 
  1313.63,1000.1 1315.72,999.16 1317.8,998.218 1319.88,997.274 1321.96,996.325 1324.05,995.373 1326.13,994.417 1328.21,993.457 1330.29,992.493 1332.38,991.523 
  1334.46,990.549 1336.54,989.57 1338.62,988.585 1340.71,987.595 1342.79,986.599 1344.87,985.596 1346.95,984.587 1349.04,983.572 1351.12,982.549 1353.2,981.519 
  1355.28,980.481 1357.37,979.435 1359.45,978.381 1361.53,977.318 1363.61,976.247 1365.7,975.166 1367.78,974.075 1369.86,972.975 1371.95,971.864 1374.03,970.743 
  1376.11,969.61 1378.19,968.467 1380.28,967.311 1382.36,966.143 1384.44,964.963 1386.52,963.77 1388.61,962.564 1390.69,961.344 1392.77,960.11 1394.85,958.862 
  1396.94,957.598 1399.02,956.32 1401.1,955.026 1403.18,953.715 1405.27,952.388 1407.35,951.044 1409.43,949.683 1411.51,948.304 1413.6,946.906 1415.68,945.49 
  1417.76,944.055 1419.84,942.6 1421.93,941.125 1424.01,939.629 1426.09,938.113 1428.17,936.575 1430.26,935.015 1432.34,933.433 1434.42,931.828 1436.5,930.2 
  1438.59,928.548 1440.67,926.871 1442.75,925.17 1444.83,923.444 1446.92,921.693 1449,919.915 1451.08,918.11 1453.16,916.279 1455.25,914.42 1457.33,912.533 
  1459.41,910.618 1461.49,908.674 1463.58,906.7 1465.66,904.697 1467.74,902.663 1469.82,900.599 1471.91,898.503 1473.99,896.376 1476.07,894.217 1478.15,892.025 
  1480.24,889.8 1482.32,887.542 1484.4,885.25 1486.48,882.924 1488.57,880.563 1490.65,878.167 1492.73,875.736 1494.81,873.269 1496.9,870.765 1498.98,868.226 
  1501.06,865.649 1503.14,863.034 1505.23,860.382 1507.31,857.693 1509.39,854.964 1511.47,852.197 1513.56,849.391 1515.64,846.546 1517.72,843.662 1519.8,840.737 
  1521.89,837.773 1523.97,834.768 1526.05,831.722 1528.14,828.636 1530.22,825.509 1532.3,822.341 1534.38,819.132 1536.47,815.881 1538.55,812.589 1540.63,809.255 
  1542.71,805.879 1544.8,802.461 1546.88,799.002 1548.96,795.501 1551.04,791.958 1553.13,788.373 1555.21,784.746 1557.29,781.077 1559.37,777.367 1561.46,773.615 
  1563.54,769.821 1565.62,765.987 1567.7,762.111 1569.79,758.194 1571.87,754.237 1573.95,750.239 1576.03,746.201 1578.12,742.123 1580.2,738.006 1582.28,733.85 
  1584.36,729.655 1586.45,725.422 1588.53,721.152 1590.61,716.844 1592.69,712.499 1594.78,708.118 1596.86,703.702 1598.94,699.251 1601.02,694.766 1603.11,690.247 
  1605.19,685.696 1607.27,681.113 1609.35,676.498 1611.44,671.854 1613.52,667.18 1615.6,662.477 1617.68,657.747 1619.77,652.991 1621.85,648.209 1623.93,643.403 
  1626.01,638.573 1628.1,633.722 1630.18,628.85 1632.26,623.958 1634.34,619.048 1636.43,614.12 1638.51,609.178 1640.59,604.22 1642.67,599.251 1644.76,594.269 
  1646.84,589.278 1648.92,584.279 1651,579.273 1653.09,574.262 1655.17,569.248 1657.25,564.232 1659.33,559.217 1661.42,554.203 1663.5,549.193 1665.58,544.189 
  1667.66,539.192 1669.75,534.205 1671.83,529.229 1673.91,524.267 1676,519.321 1678.08,514.392 1680.16,509.483 1682.24,504.596 1684.33,499.733 1686.41,494.896 
  1688.49,490.088 1690.57,485.311 1692.66,480.568 1694.74,475.859 1696.82,471.189 1698.9,466.559 1700.99,461.972 1703.07,457.43 1705.15,452.935 1707.23,448.491 
  1709.32,444.099 1711.4,439.762 1713.48,435.483 1715.56,431.265 1717.65,427.108 1719.73,423.017 1721.81,418.994 1723.89,415.042 1725.98,411.162 1728.06,407.358 
  1730.14,403.632 1732.22,399.987 1734.31,396.425 1736.39,392.949 1738.47,389.561 1740.55,386.264 1742.64,383.061 1744.72,379.954 1746.8,376.945 1748.88,374.037 
  1750.97,371.233 1753.05,368.534 1755.13,365.944 1757.21,363.464 1759.3,361.097 1761.38,358.845 1763.46,356.711 1765.54,354.696 1767.63,352.803 1769.71,351.033 
  1771.79,349.39 1773.87,347.874 1775.96,346.488 1778.04,345.234 1780.12,344.114 1782.2,343.128 1784.29,342.279 1786.37,341.569 1788.45,340.998 1790.53,340.569 
  1792.62,340.282 1794.7,340.139 1796.78,340.141 1798.86,340.289 1800.95,340.585 1803.03,341.028 1805.11,341.619 1807.19,342.36 1809.28,343.25 1811.36,344.291 
  1813.44,345.482 1815.52,346.824 1817.61,348.316 1819.69,349.959 1821.77,351.752 1823.85,353.695 1825.94,355.788 1828.02,358.03 1830.1,360.42 1832.19,362.957 
  1834.27,365.641 1836.35,368.469 1838.43,371.442 1840.52,374.556 1842.6,377.811 1844.68,381.205 1846.76,384.737 1848.85,388.402 1850.93,392.201 1853.01,396.129 
  1855.09,400.185 1857.18,404.366 1859.26,408.669 1861.34,413.091 1863.42,417.629 1865.51,422.279 1867.59,427.037 1869.67,431.901 1871.75,436.865 1873.84,441.927 
  1875.92,447.082 1878,452.326 1880.08,457.654 1882.17,463.061 1884.25,468.543 1886.33,474.094 1888.41,479.711 1890.5,485.386 1892.58,491.116 1894.66,496.894 
  1896.74,502.714 1898.83,508.572 1900.91,514.461 1902.99,520.374 1905.07,526.307 1907.16,532.252 1909.24,538.202 1911.32,544.153 1913.4,550.096 1915.49,556.026 
  1917.57,561.935 1919.65,567.817 1921.73,573.664 1923.82,579.47 1925.9,585.227 1927.98,590.928 1930.06,596.567 1932.15,602.135 1934.23,607.627 1936.31,613.033 
  1938.39,618.348 1940.48,623.563 1942.56,628.671 1944.64,633.666 1946.72,638.54 1948.81,643.285 1950.89,647.895 1952.97,652.362 1955.05,656.679 1957.14,660.839 
  1959.22,664.836 1961.3,668.661 1963.38,672.31 1965.47,675.774 1967.55,679.048 1969.63,682.125 1971.71,684.999 1973.8,687.664 1975.88,690.113 1977.96,692.342 
  1980.04,694.344 1982.13,696.115 1984.21,697.649 1986.29,698.941 1988.38,699.987 1990.46,700.782 1992.54,701.322 1994.62,701.604 1996.71,701.623 1998.79,701.376 
  2000.87,700.86 2002.95,700.073 2005.04,699.012 2007.12,697.674 2009.2,696.059 2011.28,694.165 2013.37,691.99 2015.45,689.535 2017.53,686.798 2019.61,683.78 
  2021.7,680.481 2023.78,676.902 2025.86,673.044 2027.94,668.909 2030.03,664.499 2032.11,659.816 2034.19,654.862 2036.27,649.643 2038.36,644.16 2040.44,638.417 
  2042.52,632.421 2044.6,626.175 2046.69,619.684 2048.77,612.955 2050.85,605.994 2052.93,598.807 2055.02,591.401 2057.1,583.784 2059.18,575.963 2061.26,567.947 
  2063.35,559.744 2065.43,551.364 2067.51,542.815 2069.59,534.108 2071.68,525.253 2073.76,516.259 2075.84,507.139 2077.92,497.902 2080.01,488.562 2082.09,479.128 
  2084.17,469.614 2086.25,460.032 2088.34,450.393 2090.42,440.713 2092.5,431.002 2094.58,421.275 2096.67,411.545 2098.75,401.826 2100.83,392.131 2102.91,382.474 
  2105,372.87 2107.08,363.333 2109.16,353.876 2111.24,344.514 2113.33,335.261 2115.41,326.132 2117.49,317.14 2119.57,308.3 2121.66,299.626 2123.74,291.131 
  2125.82,282.83 2127.9,274.735 2129.99,266.862 2132.07,259.222 2134.15,251.828 2136.23,244.694 2138.32,237.832 2140.4,231.254 2142.48,224.971 2144.57,218.995 
  2146.65,213.336 2148.73,208.006 2150.81,203.014 2152.9,198.37 2154.98,194.082 2157.06,190.159 2159.14,186.609 2161.23,183.439 2163.31,180.657 2165.39,178.267 
  2167.47,176.275 2169.56,174.687 2171.64,173.505 2173.72,172.733 2175.8,172.375 2177.89,172.431 2179.97,172.902 2182.05,173.789 2184.13,175.092 2186.22,176.808 
  2188.3,178.936 2190.38,181.473 2192.46,184.415 2194.55,187.757 2196.63,191.494 2198.71,195.619 2200.79,200.125 2202.88,205.005 2204.96,210.248 2207.04,215.847 
  2209.12,221.79 2211.21,228.066 2213.29,234.662 2215.37,241.567 2217.45,248.765 2219.54,256.244 2221.62,263.987 2223.7,271.98 2225.78,280.204 2227.87,288.644 
  2229.95,297.281 2232.03,306.097 2234.11,315.073 2236.2,324.19 2238.28,333.426 2240.36,342.763 2242.44,352.178 2244.53,361.651 2246.61,371.159 2248.69,380.682 
  2250.77,390.195 2252.86,399.678 2254.94,409.107 2257.02,418.46 2259.1,427.714 2261.19,436.846 2263.27,445.833 2265.35,454.653 2267.43,463.282 2269.52,471.699 
  2271.6,479.882 2273.68,487.808 2275.76,495.456 2277.85,502.806 2279.93,509.836 2282.01,516.527 2284.09,522.859 2286.18,528.813 2288.26,534.372 2290.34,539.518 
  
  "></polyline>
<path clip-path="url(#clip690)" d="
M1753.36 250.738 L2279.25 250.738 L2279.25 95.2176 L1753.36 95.2176  Z
  " fill="#ffffff" fill-rule="evenodd" fill-opacity="1"></path>
<polyline clip-path="url(#clip690)" style="stroke:#000000; stroke-linecap:butt; stroke-linejoin:round; stroke-width:4; stroke-opacity:1; fill:none" points="
  1753.36,250.738 2279.25,250.738 2279.25,95.2176 1753.36,95.2176 1753.36,250.738 
  "></polyline>
<polyline clip-path="url(#clip690)" style="stroke:#009af9; stroke-linecap:butt; stroke-linejoin:round; stroke-width:4; stroke-opacity:1; fill:none" points="
  1777.86,147.058 1924.88,147.058 
  "></polyline>
<path clip-path="url(#clip690)" d="M1949.39 138.412 L1953.64 138.412 L1953.64 164.338 L1949.39 164.338 L1949.39 138.412 M1949.39 128.319 L1953.64 128.319 L1953.64 133.713 L1949.39 133.713 L1949.39 128.319 Z" fill="#000000" fill-rule="evenodd" fill-opacity="1"></path><path clip-path="url(#clip690)" d="M1984.11 148.689 L1984.11 164.338 L1979.85 164.338 L1979.85 148.828 Q1979.85 145.148 1978.41 143.319 Q1976.98 141.49 1974.11 141.49 Q1970.66 141.49 1968.67 143.69 Q1966.68 145.889 1966.68 149.685 L1966.68 164.338 L1962.39 164.338 L1962.39 138.412 L1966.68 138.412 L1966.68 142.44 Q1968.2 140.102 1970.27 138.944 Q1972.35 137.787 1975.06 137.787 Q1979.52 137.787 1981.82 140.565 Q1984.11 143.319 1984.11 148.689 Z" fill="#000000" fill-rule="evenodd" fill-opacity="1"></path><path clip-path="url(#clip690)" d="M1996.82 131.051 L1996.82 138.412 L2005.59 138.412 L2005.59 141.722 L1996.82 141.722 L1996.82 155.796 Q1996.82 158.967 1997.67 159.87 Q1998.55 160.773 2001.21 160.773 L2005.59 160.773 L2005.59 164.338 L2001.21 164.338 Q1996.28 164.338 1994.41 162.509 Q1992.53 160.657 1992.53 155.796 L1992.53 141.722 L1989.41 141.722 L1989.41 138.412 L1992.53 138.412 L1992.53 131.051 L1996.82 131.051 Z" fill="#000000" fill-rule="evenodd" fill-opacity="1"></path><path clip-path="url(#clip690)" d="M2033.37 150.31 L2033.37 152.393 L2013.78 152.393 Q2014.06 156.791 2016.42 159.106 Q2018.81 161.398 2023.04 161.398 Q2025.5 161.398 2027.79 160.796 Q2030.1 160.194 2032.37 158.99 L2032.37 163.018 Q2030.08 163.99 2027.67 164.5 Q2025.26 165.009 2022.79 165.009 Q2016.58 165.009 2012.95 161.398 Q2009.34 157.787 2009.34 151.629 Q2009.34 145.264 2012.76 141.537 Q2016.21 137.787 2022.05 137.787 Q2027.28 137.787 2030.31 141.166 Q2033.37 144.523 2033.37 150.31 M2029.11 149.06 Q2029.06 145.565 2027.14 143.481 Q2025.24 141.398 2022.09 141.398 Q2018.53 141.398 2016.38 143.412 Q2014.25 145.426 2013.92 149.083 L2029.11 149.06 Z" fill="#000000" fill-rule="evenodd" fill-opacity="1"></path><path clip-path="url(#clip690)" d="M2055.38 142.393 Q2054.66 141.977 2053.81 141.791 Q2052.97 141.583 2051.95 141.583 Q2048.34 141.583 2046.4 143.944 Q2044.48 146.282 2044.48 150.68 L2044.48 164.338 L2040.2 164.338 L2040.2 138.412 L2044.48 138.412 L2044.48 142.44 Q2045.82 140.078 2047.97 138.944 Q2050.13 137.787 2053.2 137.787 Q2053.64 137.787 2054.18 137.856 Q2054.71 137.903 2055.36 138.018 L2055.38 142.393 Z" fill="#000000" fill-rule="evenodd" fill-opacity="1"></path><path clip-path="url(#clip690)" d="M2063.97 160.449 L2063.97 174.199 L2059.69 174.199 L2059.69 138.412 L2063.97 138.412 L2063.97 142.347 Q2065.31 140.032 2067.35 138.921 Q2069.41 137.787 2072.26 137.787 Q2076.98 137.787 2079.92 141.537 Q2082.88 145.287 2082.88 151.398 Q2082.88 157.509 2079.92 161.259 Q2076.98 165.009 2072.26 165.009 Q2069.41 165.009 2067.35 163.898 Q2065.31 162.763 2063.97 160.449 M2078.46 151.398 Q2078.46 146.699 2076.51 144.037 Q2074.59 141.352 2071.21 141.352 Q2067.83 141.352 2065.89 144.037 Q2063.97 146.699 2063.97 151.398 Q2063.97 156.097 2065.89 158.782 Q2067.83 161.444 2071.21 161.444 Q2074.59 161.444 2076.51 158.782 Q2078.46 156.097 2078.46 151.398 Z" fill="#000000" fill-rule="evenodd" fill-opacity="1"></path><path clip-path="url(#clip690)" d="M2099.99 141.398 Q2096.56 141.398 2094.57 144.083 Q2092.58 146.745 2092.58 151.398 Q2092.58 156.051 2094.55 158.736 Q2096.54 161.398 2099.99 161.398 Q2103.39 161.398 2105.38 158.713 Q2107.37 156.027 2107.37 151.398 Q2107.37 146.791 2105.38 144.106 Q2103.39 141.398 2099.99 141.398 M2099.99 137.787 Q2105.54 137.787 2108.71 141.398 Q2111.88 145.009 2111.88 151.398 Q2111.88 157.764 2108.71 161.398 Q2105.54 165.009 2099.99 165.009 Q2094.41 165.009 2091.24 161.398 Q2088.09 157.764 2088.09 151.398 Q2088.09 145.009 2091.24 141.398 Q2094.41 137.787 2099.99 137.787 Z" fill="#000000" fill-rule="evenodd" fill-opacity="1"></path><path clip-path="url(#clip690)" d="M2118.94 128.319 L2123.2 128.319 L2123.2 164.338 L2118.94 164.338 L2118.94 128.319 Z" fill="#000000" fill-rule="evenodd" fill-opacity="1"></path><path clip-path="url(#clip690)" d="M2143.9 151.305 Q2138.74 151.305 2136.75 152.486 Q2134.75 153.666 2134.75 156.514 Q2134.75 158.782 2136.24 160.125 Q2137.74 161.444 2140.31 161.444 Q2143.85 161.444 2145.98 158.944 Q2148.13 156.421 2148.13 152.254 L2148.13 151.305 L2143.9 151.305 M2152.39 149.546 L2152.39 164.338 L2148.13 164.338 L2148.13 160.402 Q2146.68 162.763 2144.5 163.898 Q2142.32 165.009 2139.18 165.009 Q2135.19 165.009 2132.83 162.787 Q2130.5 160.541 2130.5 156.791 Q2130.5 152.416 2133.41 150.194 Q2136.35 147.972 2142.16 147.972 L2148.13 147.972 L2148.13 147.555 Q2148.13 144.615 2146.19 143.018 Q2144.27 141.398 2140.77 141.398 Q2138.55 141.398 2136.44 141.93 Q2134.34 142.463 2132.39 143.527 L2132.39 139.592 Q2134.73 138.69 2136.93 138.25 Q2139.13 137.787 2141.21 137.787 Q2146.84 137.787 2149.62 140.703 Q2152.39 143.62 2152.39 149.546 Z" fill="#000000" fill-rule="evenodd" fill-opacity="1"></path><path clip-path="url(#clip690)" d="M2165.38 131.051 L2165.38 138.412 L2174.15 138.412 L2174.15 141.722 L2165.38 141.722 L2165.38 155.796 Q2165.38 158.967 2166.24 159.87 Q2167.12 160.773 2169.78 160.773 L2174.15 160.773 L2174.15 164.338 L2169.78 164.338 Q2164.85 164.338 2162.97 162.509 Q2161.1 160.657 2161.1 155.796 L2161.1 141.722 L2157.97 141.722 L2157.97 138.412 L2161.1 138.412 L2161.1 131.051 L2165.38 131.051 Z" fill="#000000" fill-rule="evenodd" fill-opacity="1"></path><path clip-path="url(#clip690)" d="M2201.93 150.31 L2201.93 152.393 L2182.35 152.393 Q2182.62 156.791 2184.99 159.106 Q2187.37 161.398 2191.61 161.398 Q2194.06 161.398 2196.35 160.796 Q2198.67 160.194 2200.94 158.99 L2200.94 163.018 Q2198.64 163.99 2196.24 164.5 Q2193.83 165.009 2191.35 165.009 Q2185.15 165.009 2181.51 161.398 Q2177.9 157.787 2177.9 151.629 Q2177.9 145.264 2181.33 141.537 Q2184.78 137.787 2190.61 137.787 Q2195.84 137.787 2198.87 141.166 Q2201.93 144.523 2201.93 150.31 M2197.67 149.06 Q2197.62 145.565 2195.7 143.481 Q2193.81 141.398 2190.66 141.398 Q2187.09 141.398 2184.94 143.412 Q2182.81 145.426 2182.49 149.083 L2197.67 149.06 Z" fill="#000000" fill-rule="evenodd" fill-opacity="1"></path><path clip-path="url(#clip690)" d="M2225.98 142.347 L2225.98 128.319 L2230.24 128.319 L2230.24 164.338 L2225.98 164.338 L2225.98 160.449 Q2224.64 162.763 2222.58 163.898 Q2220.54 165.009 2217.67 165.009 Q2212.97 165.009 2210.01 161.259 Q2207.07 157.509 2207.07 151.398 Q2207.07 145.287 2210.01 141.537 Q2212.97 137.787 2217.67 137.787 Q2220.54 137.787 2222.58 138.921 Q2224.64 140.032 2225.98 142.347 M2211.47 151.398 Q2211.47 156.097 2213.39 158.782 Q2215.33 161.444 2218.71 161.444 Q2222.09 161.444 2224.04 158.782 Q2225.98 156.097 2225.98 151.398 Q2225.98 146.699 2224.04 144.037 Q2222.09 141.352 2218.71 141.352 Q2215.33 141.352 2213.39 144.037 Q2211.47 146.699 2211.47 151.398 Z" fill="#000000" fill-rule="evenodd" fill-opacity="1"></path><polyline clip-path="url(#clip690)" style="stroke:#e26f46; stroke-linecap:butt; stroke-linejoin:round; stroke-width:4; stroke-opacity:1; fill:none" points="
  1777.86,198.898 1924.88,198.898 
  "></polyline>
<path clip-path="url(#clip690)" d="M1965.89 180.159 L1965.89 183.701 L1961.82 183.701 Q1959.52 183.701 1958.62 184.627 Q1957.74 185.553 1957.74 187.96 L1957.74 190.252 L1964.76 190.252 L1964.76 193.562 L1957.74 193.562 L1957.74 216.178 L1953.46 216.178 L1953.46 193.562 L1949.39 193.562 L1949.39 190.252 L1953.46 190.252 L1953.46 188.446 Q1953.46 184.118 1955.47 182.15 Q1957.49 180.159 1961.86 180.159 L1965.89 180.159 Z" fill="#000000" fill-rule="evenodd" fill-opacity="1"></path></svg>